<?xml version="1.0" encoding="UTF-8" standalone="no"?>
<!-- Created with Inkscape (http://www.inkscape.org/) -->

<svg
   version="1.1"
   id="svg1"
   width="310.992"
   height="168.18134"
   viewBox="0 0 310.992 168.18134"
   xmlns="http://www.w3.org/2000/svg"
   xmlns:svg="http://www.w3.org/2000/svg">
  <defs
     id="defs1" />
  <g
     id="g1">
    <path
       id="path1"
       d="m 2.9303672,-6.3747891 c 0,-0.234375 0,-0.2578125 -0.234375,-0.2578125 -0.609375,0.6328125 -1.4882813,0.6328125 -1.80468751,0.6328125 v 0.3164063 c 0.19921871,0 0.78515621,0 1.30078121,-0.2578125 v 5.15624999 c 0,0.3515625 -0.035156,0.48046875 -0.9257812,0.48046875 H 0.94989844 V 2.109375e-4 C 1.3014609,-0.03494531 2.1569297,-0.03494531 2.5553672,-0.03494531 c 0.3984375,0 1.265625,0 1.6171875,0.0351562475 V -0.30447656 H 3.8561484 c -0.9023437,0 -0.9257812,-0.1171875 -0.9257812,-0.48046875 z m 6.6328125,3.1875 c 0,-0.796875 -0.046875,-1.59375 -0.3984375,-2.3320312 -0.4570313,-0.9609375 -1.2773438,-1.1132813 -1.6875,-1.1132813 -0.5976563,0 -1.3359375,0.2578125 -1.734375,1.1835938 -0.328125,0.6914062 -0.375,1.4648437 -0.375,2.2617187 0,0.75 0.046875,1.640625 0.4453125,2.40234379 0.4335937,0.80859375 1.1601562,1.0078125 1.6523437,1.0078125 0.5390625,0 1.2890625,-0.2109375 1.734375,-1.16015625 C 9.5163047,-1.6286953 9.5631797,-2.4021328 9.5631797,-3.1872891 Z M 7.4655234,2.109375e-4 c -0.3867187,0 -0.984375,-0.2460937475 -1.1601562,-1.2070312375 -0.1054688,-0.5976563 -0.1054688,-1.5117188 -0.1054688,-2.0976563 0,-0.6445312 0,-1.3007812 0.082031,-1.8398437 0.1875,-1.1835938 0.9257812,-1.265625 1.1835937,-1.265625 0.328125,0 0.984375,0.1757812 1.171875,1.1601562 0.09375,0.5625 0.09375,1.3125 0.09375,1.9453125 0,0.75 0,1.4179688 -0.1054687,2.0625 C 8.4733359,-0.30447656 7.9108359,2.109375e-4 7.4655234,2.109375e-4 Z M 12.891305,-6.3747891 c 0,-0.234375 0,-0.2578125 -0.234375,-0.2578125 -0.609375,0.6328125 -1.488282,0.6328125 -1.804688,0.6328125 v 0.3164063 c 0.199219,0 0.785156,0 1.300781,-0.2578125 v 5.15624999 c 0,0.3515625 -0.03516,0.48046875 -0.925781,0.48046875 H 10.910836 V 2.109375e-4 C 11.262398,-0.03494531 12.117867,-0.03494531 12.516305,-0.03494531 c 0.398437,0 1.265625,0 1.617187,0.0351562475 V -0.30447656 h -0.316406 c -0.902344,0 -0.925781,-0.1171875 -0.925781,-0.48046875 z m 0,0"
       style="fill:#000000;fill-opacity:1;fill-rule:nonzero;stroke:none"
       aria-label="101"
       transform="matrix(1.3333333,0,0,1.3333333,150.128,12.988)" />
    <path
       id="path2"
       d="M 4.6963,0 C 4.6963,2.59372 2.59372,4.6963 0,4.6963 -2.59372,4.6963 -4.6963,2.59372 -4.6963,0 c 0,-2.59372 2.10258,-4.6963 4.6963,-4.6963 2.59372,0 4.6963,2.10258 4.6963,4.6963 z"
       style="fill:#440154;fill-opacity:0.4;fill-rule:nonzero;stroke:#000000;stroke-width:0.3985;stroke-linecap:butt;stroke-linejoin:miter;stroke-miterlimit:10;stroke-dasharray:none;stroke-opacity:1"
       transform="matrix(1.3333333,0,0,-1.3333333,78.096,49.766667)" />
    <path
       id="path3"
       d="m 4.5809375,-3.1882812 c 0,-0.796875 -0.046875,-1.59375 -0.3984375,-2.3320313 C 3.7254688,-6.48125 2.9051563,-6.6335937 2.495,-6.6335937 c -0.5976562,0 -1.3359375,0.2578125 -1.734375,1.1835937 -0.328125,0.6914063 -0.375,1.4648438 -0.375,2.2617188 0,0.75 0.046875,1.640625 0.4453125,2.4023437 0.4335938,0.80859375 1.1601563,1.0078125 1.6523438,1.0078125 0.5390625,0 1.2890625,-0.2109375 1.734375,-1.16015625 C 4.5340625,-1.6296875 4.5809375,-2.403125 4.5809375,-3.1882812 Z M 2.4832813,-7.8125e-4 c -0.3867188,0 -0.984375,-0.24609375 -1.1601563,-1.20703125 -0.1054687,-0.5976562 -0.1054687,-1.5117187 -0.1054687,-2.0976562 0,-0.6445313 0,-1.3007813 0.082031,-1.8398438 0.1875,-1.1835937 0.9257813,-1.265625 1.1835938,-1.265625 0.328125,0 0.984375,0.1757813 1.171875,1.1601563 0.09375,0.5625 0.09375,1.3125 0.09375,1.9453125 0,0.75 0,1.4179687 -0.1054688,2.0625 -0.1523435,0.93749995 -0.7148435,1.24218745 -1.160156,1.24218745 z M 9.5643359,-3.1882812 c 0,-0.796875 -0.046875,-1.59375 -0.3984375,-2.3320313 -0.4570312,-0.9609375 -1.2773437,-1.1132812 -1.6875,-1.1132812 -0.5976562,0 -1.3359375,0.2578125 -1.734375,1.1835937 -0.328125,0.6914063 -0.375,1.4648438 -0.375,2.2617188 0,0.75 0.046875,1.640625 0.4453125,2.4023437 0.4335938,0.80859375 1.1601563,1.0078125 1.6523438,1.0078125 0.5390625,0 1.2890625,-0.2109375 1.734375,-1.16015625 C 9.5174609,-1.6296875 9.5643359,-2.403125 9.5643359,-3.1882812 Z M 7.4666797,-7.8125e-4 c -0.3867188,0 -0.984375,-0.24609375 -1.1601563,-1.20703125 -0.1054687,-0.5976562 -0.1054687,-1.5117187 -0.1054687,-2.0976562 0,-0.6445313 0,-1.3007813 0.082031,-1.8398438 0.1875,-1.1835937 0.9257813,-1.265625 1.1835938,-1.265625 0.328125,0 0.984375,0.1757813 1.171875,1.1601563 0.09375,0.5625 0.09375,1.3125 0.09375,1.9453125 0,0.75 0,1.4179687 -0.1054688,2.0625 -0.1523435,0.93749995 -0.7148435,1.24218745 -1.160156,1.24218745 z M 12.892461,-6.3757812 c 0,-0.234375 0,-0.2578125 -0.234375,-0.2578125 -0.609375,0.6328125 -1.488281,0.6328125 -1.804688,0.6328125 v 0.3164062 c 0.199219,0 0.785157,0 1.300782,-0.2578125 v 5.15625 c 0,0.3515625 -0.03516,0.48046875 -0.925782,0.48046875 h -0.316406 v 0.3046875 c 0.351563,-0.03515625 1.207031,-0.03515625 1.605469,-0.03515625 0.398437,0 1.265625,0 1.617187,0.03515625 v -0.3046875 h -0.316406 c -0.902344,0 -0.925781,-0.1171875 -0.925781,-0.48046875 z m 0,0"
       style="fill:#000000;fill-opacity:1;fill-rule:nonzero;stroke:none"
       aria-label="001"
       transform="matrix(1.3333333,0,0,1.3333333,98.173333,49.766667)" />
    <path
       id="path4"
       d="M 4.6963,0 C 4.6963,2.59372 2.59372,4.6963 0,4.6963 -2.59372,4.6963 -4.6963,2.59372 -4.6963,0 c 0,-2.59372 2.10258,-4.6963 4.6963,-4.6963 2.59372,0 4.6963,2.10258 4.6963,4.6963 z"
       style="fill:#481a6c;fill-opacity:0.4;fill-rule:nonzero;stroke:#000000;stroke-width:0.3985;stroke-linecap:butt;stroke-linejoin:miter;stroke-miterlimit:10;stroke-dasharray:none;stroke-opacity:1"
       transform="matrix(1.3333333,0,0,-1.3333333,97.181333,86.545333)" />
    <path
       id="path5"
       d="M 4.6963,0 C 4.6963,2.59372 2.59372,4.6963 0,4.6963 -2.59372,4.6963 -4.6963,2.59372 -4.6963,0 c 0,-2.59372 2.10258,-4.6963 4.6963,-4.6963 2.59372,0 4.6963,2.10258 4.6963,4.6963 z"
       style="fill:#46317e;fill-opacity:0.4;fill-rule:nonzero;stroke:#000000;stroke-width:0.3985;stroke-linecap:butt;stroke-linejoin:miter;stroke-miterlimit:10;stroke-dasharray:none;stroke-opacity:1"
       transform="matrix(1.3333333,0,0,-1.3333333,119.09067,86.545333)" />
    <path
       id="path6"
       d="m 4.5815859,-3.1882812 c 0,-0.796875 -0.046875,-1.59375 -0.3984375,-2.3320313 -0.4570312,-0.9609375 -1.2773437,-1.1132812 -1.6875,-1.1132812 -0.5976562,0 -1.3359375,0.2578125 -1.73437496,1.1835937 -0.328125,0.6914063 -0.375,1.4648438 -0.375,2.2617188 0,0.75 0.046875,1.640625 0.4453125,2.4023437 C 1.2651797,0.02265625 1.9917422,0.221875 2.4839297,0.221875 c 0.5390625,0 1.2890625,-0.2109375 1.734375,-1.16015625 C 4.5347109,-1.6296875 4.5815859,-2.403125 4.5815859,-3.1882812 Z M 2.4839297,-7.8125e-4 c -0.3867188,0 -0.984375,-0.24609375 -1.1601563,-1.20703125 -0.1054687,-0.5976562 -0.1054687,-1.5117187 -0.1054687,-2.0976562 0,-0.6445313 0,-1.3007813 0.082031,-1.8398438 0.1875,-1.1835937 0.9257813,-1.265625 1.1835938,-1.265625 0.328125,0 0.984375,0.1757813 1.171875,1.1601563 0.09375,0.5625 0.09375,1.3125 0.09375,1.9453125 0,0.75 0,1.4179687 -0.1054688,2.0625 -0.1523435,0.93749995 -0.7148435,1.24218745 -1.160156,1.24218745 z M 7.9097109,-6.3757812 c 0,-0.234375 0,-0.2578125 -0.234375,-0.2578125 -0.609375,0.6328125 -1.4882812,0.6328125 -1.8046875,0.6328125 v 0.3164062 c 0.1992188,0 0.7851563,0 1.3007813,-0.2578125 v 5.15625 c 0,0.3515625 -0.035156,0.48046875 -0.9257813,0.48046875 H 5.9292422 v 0.3046875 C 6.2808047,-0.0359375 7.1362734,-0.0359375 7.5347109,-0.0359375 c 0.3984375,0 1.265625,0 1.6171875,0.03515625 v -0.3046875 H 8.8354922 c -0.9023438,0 -0.9257813,-0.1171875 -0.9257813,-0.48046875 z m 6.6357421,3.1875 c 0,-0.796875 -0.04687,-1.59375 -0.398437,-2.3320313 -0.457032,-0.9609375 -1.277344,-1.1132812 -1.6875,-1.1132812 -0.597657,0 -1.335938,0.2578125 -1.734375,1.1835937 -0.328125,0.6914063 -0.375,1.4648438 -0.375,2.2617188 0,0.75 0.04687,1.640625 0.445312,2.4023437 0.433594,0.80859375 1.160156,1.0078125 1.652344,1.0078125 0.539062,0 1.289062,-0.2109375 1.734375,-1.16015625 0.316406,-0.69140625 0.363281,-1.46484375 0.363281,-2.24999995 z m -2.097656,3.18749995 c -0.386719,0 -0.984375,-0.24609375 -1.160156,-1.20703125 -0.105469,-0.5976562 -0.105469,-1.5117187 -0.105469,-2.0976562 0,-0.6445313 0,-1.3007813 0.08203,-1.8398438 0.1875,-1.1835937 0.925781,-1.265625 1.183594,-1.265625 0.328125,0 0.984375,0.1757813 1.171875,1.1601563 0.09375,0.5625 0.09375,1.3125 0.09375,1.9453125 0,0.75 0,1.4179687 -0.105469,2.0625 -0.152344,0.93749995 -0.714844,1.24218745 -1.160156,1.24218745 z m 0,0"
       style="fill:#000000;fill-opacity:1;fill-rule:nonzero;stroke:none"
       aria-label="010"
       transform="matrix(1.3333333,0,0,1.3333333,154.192,49.766667)" />
    <path
       id="path7"
       d="m 2.9295938,-6.3738437 c 0,-0.234375 0,-0.2578125 -0.234375,-0.2578125 -0.609375,0.6328125 -1.4882813,0.6328125 -1.80468755,0.6328125 v 0.3164062 c 0.19921875,0 0.78515625,0 1.30078125,-0.2578125 V -0.784 c 0,0.3515625 -0.035156,0.48046875 -0.9257812,0.48046875 H 0.949125 v 0.3046875 C 1.3006875,-0.034 2.1561563,-0.034 2.5545938,-0.034 c 0.3984375,0 1.265625,0 1.6171875,0.03515625 v -0.3046875 H 3.855375 c -0.9023437,0 -0.9257812,-0.1171875 -0.9257812,-0.48046875 z m 6.6328125,3.1875 c 0,-0.796875 -0.046875,-1.59375 -0.3984375,-2.3320313 -0.4570313,-0.9609375 -1.2773438,-1.1132812 -1.6875,-1.1132812 -0.5976563,0 -1.3359375,0.2578125 -1.734375,1.1835937 -0.328125,0.6914063 -0.375,1.4648438 -0.375,2.2617188 0,0.75 0.046875,1.640625 0.4453125,2.4023437 C 6.246,0.02459375 6.9725625,0.2238125 7.46475,0.2238125 c 0.5390625,0 1.2890625,-0.2109375 1.734375,-1.16015625 C 9.5155313,-1.62775 9.5624063,-2.4011875 9.5624063,-3.1863437 Z M 7.46475,0.00115625 c -0.3867187,0 -0.984375,-0.24609375 -1.1601562,-1.20703125 C 6.199125,-1.8035312 6.199125,-2.7175937 6.199125,-3.3035312 c 0,-0.6445313 0,-1.3007813 0.082031,-1.8398438 C 6.4686563,-6.3269687 7.2069375,-6.409 7.46475,-6.409 c 0.328125,0 0.984375,0.1757813 1.171875,1.1601563 0.09375,0.5625 0.09375,1.3125 0.09375,1.9453125 0,0.75 0,1.4179687 -0.1054687,2.0625 C 8.4725625,-0.30353125 7.9100625,0.00115625 7.46475,0.00115625 Z m 7.081055,-3.18749995 c 0,-0.796875 -0.04687,-1.59375 -0.398438,-2.3320313 -0.457031,-0.9609375 -1.277344,-1.1132812 -1.6875,-1.1132812 -0.597656,0 -1.335937,0.2578125 -1.734375,1.1835937 -0.328125,0.6914063 -0.375,1.4648438 -0.375,2.2617188 0,0.75 0.04687,1.640625 0.445313,2.4023437 0.433593,0.80859375 1.160156,1.0078125 1.652343,1.0078125 0.539063,0 1.289063,-0.2109375 1.734375,-1.16015625 C 14.49893,-1.62775 14.545805,-2.4011875 14.545805,-3.1863437 Z m -2.097657,3.18749995 c -0.386718,0 -0.984375,-0.24609375 -1.160156,-1.20703125 -0.105469,-0.5976562 -0.105469,-1.5117187 -0.105469,-2.0976562 0,-0.6445313 0,-1.3007813 0.08203,-1.8398438 0.1875,-1.1835937 0.925781,-1.265625 1.183593,-1.265625 0.328125,0 0.984375,0.1757813 1.171875,1.1601563 0.09375,0.5625 0.09375,1.3125 0.09375,1.9453125 0,0.75 0,1.4179687 -0.105468,2.0625 -0.152344,0.93749995 -0.714844,1.24218745 -1.160157,1.24218745 z m 0,0"
       style="fill:#000000;fill-opacity:1;fill-rule:nonzero;stroke:none"
       aria-label="100"
       transform="matrix(1.3333333,0,0,1.3333333,139.172,86.545333)" />
    <path
       id="path8"
       d="M 4.6963,0 C 4.6963,2.59372 2.59372,4.6963 0,4.6963 -2.59372,4.6963 -4.6963,2.59372 -4.6963,0 c 0,-2.59372 2.10258,-4.6963 4.6963,-4.6963 2.59372,0 4.6963,2.10258 4.6963,4.6963 z"
       style="fill:#3f4788;fill-opacity:0.4;fill-rule:nonzero;stroke:#000000;stroke-width:0.3985;stroke-linecap:butt;stroke-linejoin:miter;stroke-miterlimit:10;stroke-dasharray:none;stroke-opacity:1"
       transform="matrix(1.3333333,0,0,-1.3333333,138.18,123.32533)" />
    <path
       id="path9"
       d="M 4.6963,0 C 4.6963,2.59372 2.59372,4.6963 0,4.6963 -2.59372,4.6963 -4.6963,2.59372 -4.6963,0 c 0,-2.59372 2.10258,-4.6963 4.6963,-4.6963 2.59372,0 4.6963,2.10258 4.6963,4.6963 z"
       style="fill:#365b8c;fill-opacity:0.4;fill-rule:nonzero;stroke:#000000;stroke-width:0.3985;stroke-linecap:butt;stroke-linejoin:miter;stroke-miterlimit:10;stroke-dasharray:none;stroke-opacity:1"
       transform="matrix(1.3333333,0,0,-1.3333333,160.08933,123.32533)" />
    <path
       id="path10"
       d="M 4.6963,0 C 4.6963,2.59372 2.59372,4.6963 0,4.6963 -2.59372,4.6963 -4.6963,2.59372 -4.6963,0 c 0,-2.59372 2.10258,-4.6963 4.6963,-4.6963 2.59372,0 4.6963,2.10258 4.6963,4.6963 z"
       style="fill:#2e6d8e;fill-opacity:0.4;fill-rule:nonzero;stroke:#000000;stroke-width:0.3985;stroke-linecap:butt;stroke-linejoin:miter;stroke-miterlimit:10;stroke-dasharray:none;stroke-opacity:1"
       transform="matrix(1.3333333,0,0,-1.3333333,179.176,86.545333)" />
    <path
       id="path11"
       d="m 2.9285078,-6.3757812 c 0,-0.234375 0,-0.2578125 -0.234375,-0.2578125 -0.609375,0.6328125 -1.4882812,0.6328125 -1.80468749,0.6328125 v 0.3164062 c 0.19921879,0 0.78515629,0 1.30078129,-0.2578125 v 5.15625 c 0,0.3515625 -0.035156,0.48046875 -0.9257813,0.48046875 H 0.94803906 v 0.3046875 C 1.2996016,-0.0359375 2.1550703,-0.0359375 2.5535078,-0.0359375 c 0.3984375,0 1.265625,0 1.6171875,0.03515625 v -0.3046875 H 3.8542891 c -0.9023438,0 -0.9257813,-0.1171875 -0.9257813,-0.48046875 z m 6.6357422,3.1875 c 0,-0.796875 -0.046875,-1.59375 -0.3984375,-2.3320313 -0.4570312,-0.9609375 -1.2773437,-1.1132812 -1.6875,-1.1132812 -0.5976562,0 -1.3359375,0.2578125 -1.734375,1.1835937 -0.328125,0.6914063 -0.375,1.4648438 -0.375,2.2617188 0,0.75 0.046875,1.640625 0.4453125,2.4023437 0.4335938,0.80859375 1.1601563,1.0078125 1.6523438,1.0078125 0.5390625,0 1.2890625,-0.2109375 1.734375,-1.16015625 C 9.517375,-1.6296875 9.56425,-2.403125 9.56425,-3.1882812 Z M 7.4665938,-7.8125e-4 c -0.3867188,0 -0.984375,-0.24609375 -1.1601563,-1.20703125 -0.1054687,-0.5976562 -0.1054687,-1.5117187 -0.1054687,-2.0976562 0,-0.6445313 0,-1.3007813 0.082031,-1.8398438 0.1875,-1.1835937 0.9257813,-1.265625 1.1835938,-1.265625 0.328125,0 0.984375,0.1757813 1.171875,1.1601563 0.09375,0.5625 0.09375,1.3125 0.09375,1.9453125 0,0.75 0,1.4179687 -0.1054688,2.0625 -0.1523435,0.93749995 -0.7148435,1.24218745 -1.160156,1.24218745 z M 12.892375,-6.3757812 c 0,-0.234375 0,-0.2578125 -0.234375,-0.2578125 -0.609375,0.6328125 -1.488281,0.6328125 -1.804687,0.6328125 v 0.3164062 c 0.199218,0 0.785156,0 1.300781,-0.2578125 v 5.15625 c 0,0.3515625 -0.03516,0.48046875 -0.925781,0.48046875 h -0.316407 v 0.3046875 c 0.351563,-0.03515625 1.207032,-0.03515625 1.605469,-0.03515625 0.398438,0 1.265625,0 1.617188,0.03515625 v -0.3046875 h -0.316407 c -0.902343,0 -0.925781,-0.1171875 -0.925781,-0.48046875 z m 0,0"
       style="fill:#000000;fill-opacity:1;fill-rule:nonzero;stroke:none"
       aria-label="101"
       transform="matrix(1.3333333,0,0,1.3333333,232.12267,49.766667)" />
    <path
       id="path12"
       d="M 4.6963,0 C 4.6963,2.59372 2.59372,4.6963 0,4.6963 -2.59372,4.6963 -4.6963,2.59372 -4.6963,0 c 0,-2.59372 2.10258,-4.6963 4.6963,-4.6963 2.59372,0 4.6963,2.10258 4.6963,4.6963 z"
       style="fill:#277e8e;fill-opacity:0.4;fill-rule:nonzero;stroke:#000000;stroke-width:0.3985;stroke-linecap:butt;stroke-linejoin:miter;stroke-miterlimit:10;stroke-dasharray:none;stroke-opacity:1"
       transform="matrix(1.3333333,0,0,-1.3333333,201.08533,86.545333)" />
    <path
       id="path13"
       d="M 4.6963,0 C 4.6963,2.59372 2.59372,4.6963 0,4.6963 -2.59372,4.6963 -4.6963,2.59372 -4.6963,0 c 0,-2.59372 2.10258,-4.6963 4.6963,-4.6963 2.59372,0 4.6963,2.10258 4.6963,4.6963 z"
       style="fill:#20908c;fill-opacity:0.4;fill-rule:nonzero;stroke:#000000;stroke-width:0.3985;stroke-linecap:butt;stroke-linejoin:miter;stroke-miterlimit:10;stroke-dasharray:none;stroke-opacity:1"
       transform="matrix(1.3333333,0,0,-1.3333333,222.99467,86.545333)" />
    <path
       id="path14"
       d="m 4.5807656,-3.1863437 c 0,-0.796875 -0.046875,-1.59375 -0.3984375,-2.3320313 -0.4570312,-0.9609375 -1.2773437,-1.1132812 -1.6875,-1.1132812 -0.5976562,0 -1.3359375,0.2578125 -1.73437497,1.1835937 -0.328125,0.6914063 -0.375,1.4648438 -0.375,2.2617188 0,0.75 0.046875,1.640625 0.4453125,2.4023437 0.43359377,0.80859375 1.16015627,1.0078125 1.65234377,1.0078125 0.5390625,0 1.2890625,-0.2109375 1.734375,-1.16015625 C 4.5338906,-1.62775 4.5807656,-2.4011875 4.5807656,-3.1863437 Z M 2.4831094,0.00115625 c -0.3867188,0 -0.984375,-0.24609375 -1.1601563,-1.20703125 -0.1054687,-0.5976562 -0.1054687,-1.5117187 -0.1054687,-2.0976562 0,-0.6445313 0,-1.3007813 0.082031,-1.8398438 0.1875,-1.1835937 0.9257813,-1.265625 1.1835938,-1.265625 0.328125,0 0.984375,0.1757813 1.171875,1.1601563 0.09375,0.5625 0.09375,1.3125 0.09375,1.9453125 0,0.75 0,1.4179687 -0.1054688,2.0625 -0.1523435,0.93749995 -0.7148435,1.24218745 -1.160156,1.24218745 z M 7.9118203,-6.3738437 c 0,-0.234375 0,-0.2578125 -0.234375,-0.2578125 -0.609375,0.6328125 -1.4882812,0.6328125 -1.8046875,0.6328125 v 0.3164062 c 0.1992188,0 0.7851563,0 1.3007813,-0.2578125 V -0.784 c 0,0.3515625 -0.035156,0.48046875 -0.9257813,0.48046875 H 5.9313516 v 0.3046875 C 6.2829141,-0.034 7.1383828,-0.034 7.5368203,-0.034 c 0.3984375,0 1.265625,0 1.6171875,0.03515625 v -0.3046875 H 8.8376016 c -0.9023438,0 -0.9257813,-0.1171875 -0.9257813,-0.48046875 z m 6.6328127,3.1875 c 0,-0.796875 -0.04687,-1.59375 -0.398438,-2.3320313 -0.457031,-0.9609375 -1.277343,-1.1132812 -1.6875,-1.1132812 -0.597656,0 -1.335937,0.2578125 -1.734375,1.1835937 -0.328125,0.6914063 -0.375,1.4648438 -0.375,2.2617188 0,0.75 0.04687,1.640625 0.445313,2.4023437 0.433594,0.80859375 1.160156,1.0078125 1.652344,1.0078125 0.539062,0 1.289062,-0.2109375 1.734375,-1.16015625 0.316406,-0.69140625 0.363281,-1.46484375 0.363281,-2.24999995 z m -2.097656,3.18749995 c -0.386719,0 -0.984375,-0.24609375 -1.160157,-1.20703125 -0.105468,-0.5976562 -0.105468,-1.5117187 -0.105468,-2.0976562 0,-0.6445313 0,-1.3007813 0.08203,-1.8398438 0.1875,-1.1835937 0.925781,-1.265625 1.183594,-1.265625 0.328125,0 0.984375,0.1757813 1.171875,1.1601563 0.09375,0.5625 0.09375,1.3125 0.09375,1.9453125 0,0.75 0,1.4179687 -0.105469,2.0625 -0.152344,0.93749995 -0.714844,1.24218745 -1.160156,1.24218745 z m 0,0"
       style="fill:#000000;fill-opacity:1;fill-rule:nonzero;stroke:none"
       aria-label="010"
       transform="matrix(1.3333333,0,0,1.3333333,243.072,86.545333)" />
    <path
       id="path15"
       d="M 4.6963,0 C 4.6963,2.59372 2.59372,4.6963 0,4.6963 -2.59372,4.6963 -4.6963,2.59372 -4.6963,0 c 0,-2.59372 2.10258,-4.6963 4.6963,-4.6963 2.59372,0 4.6963,2.10258 4.6963,4.6963 z"
       style="fill:#1fa187;fill-opacity:0.4;fill-rule:nonzero;stroke:#000000;stroke-width:0.3985;stroke-linecap:butt;stroke-linejoin:miter;stroke-miterlimit:10;stroke-dasharray:none;stroke-opacity:1"
       transform="matrix(1.3333333,0,0,-1.3333333,238.01467,123.32533)" />
    <path
       id="path16"
       d="m 2.93,-6.3758359 c 0,-0.234375 0,-0.2578125 -0.234375,-0.2578125 -0.609375,0.6328125 -1.4882812,0.6328125 -1.8046875,0.6328125 v 0.3164062 c 0.1992188,0 0.7851563,0 1.3007813,-0.2578125 v 5.15625001 c 0,0.3515625 -0.035156,0.48046875 -0.9257813,0.48046875 H 0.94953125 V -8.359375e-4 C 1.3010938,-0.03599219 2.1565625,-0.03599219 2.555,-0.03599219 c 0.3984375,0 1.265625,0 1.6171875,0.0351562525 V -0.30552344 H 3.8557813 C 2.9534375,-0.30552344 2.93,-0.42271094 2.93,-0.78599219 Z m 6.6328125,3.1875 c 0,-0.796875 -0.046875,-1.59375 -0.3984375,-2.3320313 -0.4570312,-0.9609375 -1.2773437,-1.1132812 -1.6875,-1.1132812 -0.5976562,0 -1.3359375,0.2578125 -1.734375,1.1835937 -0.328125,0.6914063 -0.375,1.4648438 -0.375,2.2617188 0,0.75 0.046875,1.640625 0.4453125,2.40234371 0.4335938,0.80859375 1.1601563,1.0078125 1.6523438,1.0078125 0.5390625,0 1.2890625,-0.2109375 1.734375,-1.16015625 C 9.5159375,-1.6297422 9.5628125,-2.4031797 9.5628125,-3.1883359 Z M 7.4651563,-8.359375e-4 C 7.0784375,-8.359375e-4 6.4807813,-0.24692969 6.305,-1.2078672 6.1995313,-1.8055234 6.1995313,-2.7195859 6.1995313,-3.3055234 c 0,-0.6445313 0,-1.3007813 0.082031,-1.8398438 0.1875,-1.1835937 0.9257813,-1.265625 1.1835938,-1.265625 0.328125,0 0.984375,0.1757813 1.171875,1.1601563 0.09375,0.5625 0.09375,1.3125 0.09375,1.9453125 0,0.75 0,1.4179687 -0.1054688,2.0625 -0.1523435,0.93749996 -0.7148435,1.2421874625 -1.160156,1.2421874625 z M 12.890938,-6.3758359 c 0,-0.234375 0,-0.2578125 -0.234375,-0.2578125 -0.609375,0.6328125 -1.488282,0.6328125 -1.804688,0.6328125 v 0.3164062 c 0.199219,0 0.785156,0 1.300781,-0.2578125 v 5.15625001 c 0,0.3515625 -0.03516,0.48046875 -0.925781,0.48046875 H 10.910469 V -8.359375e-4 C 11.262031,-0.03599219 12.1175,-0.03599219 12.515938,-0.03599219 c 0.398437,0 1.265625,0 1.617187,0.0351562525 V -0.30552344 h -0.316406 c -0.902344,0 -0.925781,-0.1171875 -0.925781,-0.48046875 z m 0,0"
       style="fill:#000000;fill-opacity:1;fill-rule:nonzero;stroke:none"
       aria-label="101"
       transform="matrix(1.3333333,0,0,1.3333333,258.09333,123.32533)" />
    <path
       id="path17"
       d="M 4.6963,0 C 4.6963,2.59372 2.59372,4.6963 0,4.6963 -2.59372,4.6963 -4.6963,2.59372 -4.6963,0 c 0,-2.59372 2.10258,-4.6963 4.6963,-4.6963 2.59372,0 4.6963,2.10258 4.6963,4.6963 z"
       style="fill:#2cb17d;fill-opacity:0.4;fill-rule:nonzero;stroke:#000000;stroke-width:0.3985;stroke-linecap:butt;stroke-linejoin:miter;stroke-miterlimit:10;stroke-dasharray:none;stroke-opacity:1"
       transform="matrix(1.3333333,0,0,-1.3333333,235.19067,160.104)" />
    <path
       id="path18"
       d="M 4.6963,0 C 4.6963,2.59372 2.59372,4.6963 0,4.6963 -2.59372,4.6963 -4.6963,2.59372 -4.6963,0 c 0,-2.59372 2.10258,-4.6963 4.6963,-4.6963 2.59372,0 4.6963,2.10258 4.6963,4.6963 z"
       style="fill:#49c16d;fill-opacity:0.4;fill-rule:nonzero;stroke:#000000;stroke-width:0.3985;stroke-linecap:butt;stroke-linejoin:miter;stroke-miterlimit:10;stroke-dasharray:none;stroke-opacity:1"
       transform="matrix(1.3333333,0,0,-1.3333333,257.10133,160.104)" />
    <path
       id="path19"
       d="M 4.6963,0 C 4.6963,2.59372 2.59372,4.6963 0,4.6963 -2.59372,4.6963 -4.6963,2.59372 -4.6963,0 c 0,-2.59372 2.10258,-4.6963 4.6963,-4.6963 2.59372,0 4.6963,2.10258 4.6963,4.6963 z"
       style="fill:#72cf55;fill-opacity:0.4;fill-rule:nonzero;stroke:#000000;stroke-width:0.3985;stroke-linecap:butt;stroke-linejoin:miter;stroke-miterlimit:10;stroke-dasharray:none;stroke-opacity:1"
       transform="matrix(1.3333333,0,0,-1.3333333,279.01067,160.104)" />
    <path
       id="path20"
       d="M 4.6963,0 C 4.6963,2.59372 2.59372,4.6963 0,4.6963 -2.59372,4.6963 -4.6963,2.59372 -4.6963,0 c 0,-2.59372 2.10258,-4.6963 4.6963,-4.6963 2.59372,0 4.6963,2.10258 4.6963,4.6963 z"
       style="fill:#9fd938;fill-opacity:0.4;fill-rule:nonzero;stroke:#000000;stroke-width:0.3985;stroke-linecap:butt;stroke-linejoin:miter;stroke-miterlimit:10;stroke-dasharray:none;stroke-opacity:1"
       transform="matrix(1.3333333,0,0,-1.3333333,300.92,160.104)" />
    <path
       id="path21"
       d="M 4.6963,0 C 4.6963,2.59372 2.59372,4.6963 0,4.6963 -2.59372,4.6963 -4.6963,2.59372 -4.6963,0 c 0,-2.59372 2.10258,-4.6963 4.6963,-4.6963 2.59372,0 4.6963,2.10258 4.6963,4.6963 z"
       style="fill:#cfe11c;fill-opacity:0.4;fill-rule:nonzero;stroke:#000000;stroke-width:0.3985;stroke-linecap:butt;stroke-linejoin:miter;stroke-miterlimit:10;stroke-dasharray:none;stroke-opacity:1"
       transform="matrix(1.3333333,0,0,-1.3333333,283.08667,86.545333)" />
    <path
       id="path22"
       d="M -10.9919,-2.29361 -57.11995,-25.39282"
       style="fill:none;stroke:#000000;stroke-width:0.3985;stroke-linecap:butt;stroke-linejoin:miter;stroke-miterlimit:10;stroke-dasharray:none;stroke-opacity:1"
       transform="matrix(1.3333333,0,0,-1.3333333,160.09067,12.988)" />
    <path
       id="path23"
       d="M -9.50558,-3.5198 -29.46333,-17.64442"
       style="fill:none;stroke:#000000;stroke-width:0.3985;stroke-linecap:butt;stroke-linejoin:miter;stroke-miterlimit:10;stroke-dasharray:none;stroke-opacity:1"
       transform="matrix(1.3333333,0,0,-1.3333333,160.09067,12.988)" />
    <path
       id="path24"
       d="m -40.76111,-31.1045 -5.1593,-19.33492"
       style="fill:none;stroke:#000000;stroke-width:0.3985;stroke-linecap:butt;stroke-linejoin:miter;stroke-miterlimit:10;stroke-dasharray:none;stroke-opacity:1"
       transform="matrix(1.3333333,0,0,-1.3333333,160.09067,12.988)" />
    <path
       id="path25"
       d="m -37.1714,-31.1045 5.15932,-19.33492"
       style="fill:none;stroke:#000000;stroke-width:0.3985;stroke-linecap:butt;stroke-linejoin:miter;stroke-miterlimit:10;stroke-dasharray:none;stroke-opacity:1"
       transform="matrix(1.3333333,0,0,-1.3333333,160.09067,12.988)" />
    <path
       id="path26"
       d="M 0.74358,-3.5198 2.30507,-17.64442"
       style="fill:none;stroke:#000000;stroke-width:0.3985;stroke-linecap:butt;stroke-linejoin:miter;stroke-miterlimit:10;stroke-dasharray:none;stroke-opacity:1"
       transform="matrix(1.3333333,0,0,-1.3333333,160.09067,12.988)" />
    <path
       id="path27"
       d="M 0.30031,-31.1045 -5.46965,-45.22911"
       style="fill:none;stroke:#000000;stroke-width:0.3985;stroke-linecap:butt;stroke-linejoin:miter;stroke-miterlimit:10;stroke-dasharray:none;stroke-opacity:1"
       transform="matrix(1.3333333,0,0,-1.3333333,160.09067,12.988)" />
    <path
       id="path28"
       d="m -10.01181,-58.6892 -5.15932,-19.33491"
       style="fill:none;stroke:#000000;stroke-width:0.3985;stroke-linecap:butt;stroke-linejoin:miter;stroke-miterlimit:10;stroke-dasharray:none;stroke-opacity:1"
       transform="matrix(1.3333333,0,0,-1.3333333,160.09067,12.988)" />
    <path
       id="path29"
       d="M -6.42212,-58.6892 -1.2628,-78.02411"
       style="fill:none;stroke:#000000;stroke-width:0.3985;stroke-linecap:butt;stroke-linejoin:miter;stroke-miterlimit:10;stroke-dasharray:none;stroke-opacity:1"
       transform="matrix(1.3333333,0,0,-1.3333333,160.09067,12.988)" />
    <path
       id="path30"
       d="m 5.51007,-31.1045 7.12199,-19.46737"
       style="fill:none;stroke:#000000;stroke-width:0.3985;stroke-linecap:butt;stroke-linejoin:miter;stroke-miterlimit:10;stroke-dasharray:none;stroke-opacity:1"
       transform="matrix(1.3333333,0,0,-1.3333333,160.09067,12.988)" />
    <path
       id="path31"
       d="M 10.9919,-1.71799 50.50517,-19.44743"
       style="fill:none;stroke:#000000;stroke-width:0.3985;stroke-linecap:butt;stroke-linejoin:miter;stroke-miterlimit:10;stroke-dasharray:none;stroke-opacity:1"
       transform="matrix(1.3333333,0,0,-1.3333333,160.09067,12.988)" />
    <path
       id="path32"
       d="M 54.77937,-31.1045 34.20528,-51.70529"
       style="fill:none;stroke:#000000;stroke-width:0.3985;stroke-linecap:butt;stroke-linejoin:miter;stroke-miterlimit:10;stroke-dasharray:none;stroke-opacity:1"
       transform="matrix(1.3333333,0,0,-1.3333333,160.09067,12.988)" />
    <path
       id="path33"
       d="M 58.36826,-31.1045 49.24237,-50.7303"
       style="fill:none;stroke:#000000;stroke-width:0.3985;stroke-linecap:butt;stroke-linejoin:miter;stroke-miterlimit:10;stroke-dasharray:none;stroke-opacity:1"
       transform="matrix(1.3333333,0,0,-1.3333333,160.09067,12.988)" />
    <path
       id="path34"
       d="m 63.5004,-31.1045 4.20614,-14.12461"
       style="fill:none;stroke:#000000;stroke-width:0.3985;stroke-linecap:butt;stroke-linejoin:miter;stroke-miterlimit:10;stroke-dasharray:none;stroke-opacity:1"
       transform="matrix(1.3333333,0,0,-1.3333333,160.09067,12.988)" />
    <path
       id="path35"
       d="M 67.24762,-58.6892 60.12561,-78.15656"
       style="fill:none;stroke:#000000;stroke-width:0.3985;stroke-linecap:butt;stroke-linejoin:miter;stroke-miterlimit:10;stroke-dasharray:none;stroke-opacity:1"
       transform="matrix(1.3333333,0,0,-1.3333333,160.09067,12.988)" />
    <path
       id="path36"
       d="m 72.45738,-58.6892 5.76996,-14.12461"
       style="fill:none;stroke:#000000;stroke-width:0.3985;stroke-linecap:butt;stroke-linejoin:miter;stroke-miterlimit:10;stroke-dasharray:none;stroke-opacity:1"
       transform="matrix(1.3333333,0,0,-1.3333333,160.09067,12.988)" />
    <path
       id="path37"
       d="M 75.58939,-86.27388 59.38521,-106.51692"
       style="fill:none;stroke:#000000;stroke-width:0.3985;stroke-linecap:butt;stroke-linejoin:miter;stroke-miterlimit:10;stroke-dasharray:none;stroke-opacity:1"
       transform="matrix(1.3333333,0,0,-1.3333333,160.09067,12.988)" />
    <path
       id="path38"
       d="m 79.1798,-86.27388 -5.1593,-19.33493"
       style="fill:none;stroke:#000000;stroke-width:0.3985;stroke-linecap:butt;stroke-linejoin:miter;stroke-miterlimit:10;stroke-dasharray:none;stroke-opacity:1"
       transform="matrix(1.3333333,0,0,-1.3333333,160.09067,12.988)" />
    <path
       id="path39"
       d="m 82.7695,-86.27388 5.15932,-19.33493"
       style="fill:none;stroke:#000000;stroke-width:0.3985;stroke-linecap:butt;stroke-linejoin:miter;stroke-miterlimit:10;stroke-dasharray:none;stroke-opacity:1"
       transform="matrix(1.3333333,0,0,-1.3333333,160.09067,12.988)" />
    <path
       id="path40"
       d="m 86.35992,-86.27388 16.20417,-20.24304"
       style="fill:none;stroke:#000000;stroke-width:0.3985;stroke-linecap:butt;stroke-linejoin:miter;stroke-miterlimit:10;stroke-dasharray:none;stroke-opacity:1"
       transform="matrix(1.3333333,0,0,-1.3333333,160.09067,12.988)" />
    <path
       id="path41"
       d="M 68.2148,-31.1045 88.7889,-51.70529"
       style="fill:none;stroke:#000000;stroke-width:0.3985;stroke-linecap:butt;stroke-linejoin:miter;stroke-miterlimit:10;stroke-dasharray:none;stroke-opacity:1"
       transform="matrix(1.3333333,0,0,-1.3333333,160.09067,12.988)" />
    <path
       id="path42"
       d="m 3.9024219,-2.5444219 c 0,-0.8554687 -0.09375,-1.3710937 -0.3515625,-1.875 -0.3515625,-0.703125 -0.9960938,-0.8789062 -1.4414063,-0.8789062 -0.9960937,0 -1.37109373,0.75 -1.47656248,0.9726562 -0.29296875,0.5742188 -0.3046875,1.3710938 -0.3046875,1.78125 0,0.5273438 0.0234375,1.3359375 0.41015625,1.96875003 0.36328123,0.5859375 0.94921873,0.73828125 1.37109373,0.73828125 0.3867188,0 1.0664063,-0.1171875 1.4648438,-0.90234375 0.2929687,-0.57421873 0.328125,-1.28906253 0.328125,-1.80468753 z m -1.7929688,2.48437503 c -0.2695312,0 -0.8203125,-0.12890625 -0.984375,-0.96093753 -0.09375,-0.4570312 -0.09375,-1.2070312 -0.09375,-1.6171875 0,-0.5507812 0,-1.1132812 0.09375,-1.546875 0.1640625,-0.8085937 0.7851563,-0.890625 0.984375,-0.890625 0.2695313,0 0.8203125,0.1289063 0.984375,0.8554688 0.09375,0.4453125 0.09375,1.0429687 0.09375,1.5820312 0,0.46875 0,1.1835938 -0.09375,1.6289063 -0.1640625,0.84374998 -0.7148437,0.94921873 -0.984375,0.94921873 z m 0,0"
       style="fill:#000000;fill-opacity:1;fill-rule:nonzero;stroke:none"
       aria-label="0"
       transform="matrix(1.3333333,0,0,1.3333333,75.273333,53.416)" />
    <path
       id="path43"
       d="m 2.5083437,-5.0747344 c 0,-0.2226562 -0.023437,-0.2226562 -0.234375,-0.2226562 -0.328125,0.3164062 -0.75,0.5039062 -1.5117187,0.5039062 v 0.2695313 c 0.22265625,0 0.6445312,0 1.1132812,-0.2226563 v 4.08984378 c 0,0.29296875 -0.023437,0.3984375 -0.7851562,0.3984375 H 0.809125 V -5.15625e-4 C 1.13725,-0.02395312 1.8286562,-0.02395312 2.1802187,-0.02395312 c 0.3632813,0 1.0546875,0 1.3828125,0.023437495 V -0.25832812 h -0.28125 c -0.75,0 -0.7734375,-0.10546875 -0.7734375,-0.3984375 z m 0,0"
       style="fill:#000000;fill-opacity:1;fill-rule:nonzero;stroke:none"
       aria-label="1"
       transform="matrix(1.3333333,0,0,1.3333333,94.358667,90.196)" />
    <path
       id="path44"
       d="m 2.2511484,-1.6294219 c 0.1289063,-0.1171875 0.4570313,-0.375 0.5859375,-0.4921875 0.4921875,-0.4570312 0.9609375,-0.890625 0.9609375,-1.6171875 0,-0.9492187 -0.796875,-1.5585937 -1.7929687,-1.5585937 -0.9492188,0 -1.58203126,0.7265625 -1.58203126,1.4296875 0,0.3984375 0.31640625,0.4453125 0.421875,0.4453125 0.16406246,0 0.41015626,-0.1171875 0.41015626,-0.421875 0,-0.4101563 -0.39843751,-0.4101563 -0.49218751,-0.4101563 0.234375,-0.5859375 0.77343751,-0.7851562 1.16015621,-0.7851562 0.7382813,0 1.125,0.6328125 1.125,1.3007812 0,0.8320313 -0.5859375,1.4296875 -1.5234375,2.4023438 l -1.00781246,1.03124998 c -0.09375,0.09375 -0.09375,0.10546875 -0.09375,0.304687495 H 3.5753672 L 3.7980234,-1.4302031 H 3.5519297 c -0.023437,0.1640625 -0.082031,0.56249998 -0.1757813,0.71484373 -0.046875,0.0585938 -0.65625,0.0585938 -0.7851562,0.0585938 H 1.1730234 Z m 0,0"
       style="fill:#000000;fill-opacity:1;fill-rule:nonzero;stroke:none"
       aria-label="2"
       transform="matrix(1.3333333,0,0,1.3333333,116.268,90.196)" />
    <path
       id="path45"
       d="m 2.0142266,-2.6587344 c 0.6328125,0 1.03125,0.4570313 1.03125,1.3007813 0,0.99609373 -0.5742188,1.28906248 -0.9960938,1.28906248 -0.4335937,0 -1.03125,-0.1640625 -1.31249999,-0.5859375 0.29296879,0 0.49218749,-0.17578125 0.49218749,-0.44531248 0,-0.2578125 -0.1875,-0.4335938 -0.44531249,-0.4335938 -0.2109375,0 -0.43359375,0.1289063 -0.43359375,0.4570313 0,0.74999998 0.80859374,1.24218748 1.72265624,1.24218748 1.0546875,0 1.7929688,-0.7265625 1.7929688,-1.52343748 0,-0.6679688 -0.515625,-1.265625 -1.3359375,-1.4414063 0.6328125,-0.2226562 1.1015625,-0.7734375 1.1015625,-1.40625 0,-0.6328125 -0.7148438,-1.0898437 -1.546875,-1.0898437 -0.8554688,0 -1.50000004,0.4570312 -1.50000004,1.0664062 0,0.2929688 0.19921875,0.421875 0.41015625,0.421875 0.24609379,0 0.41015629,-0.1757812 0.41015629,-0.4101562 0,-0.2929688 -0.2578125,-0.3984375 -0.43359379,-0.4101563 0.33984379,-0.4335937 0.94921879,-0.46875 1.08984379,-0.46875 0.2109375,0 0.8085937,0.070312 0.8085937,0.890625 0,0.5625 -0.2226562,0.890625 -0.3398437,1.0195313 -0.234375,0.2460937 -0.421875,0.2578125 -0.9023438,0.2929687 -0.1523437,0.011719 -0.2226562,0.023437 -0.2226562,0.1171875 0,0.1171875 0.070312,0.1171875 0.2109375,0.1171875 z m 0,0"
       style="fill:#000000;fill-opacity:1;fill-rule:nonzero;stroke:none"
       aria-label="3"
       transform="matrix(1.3333333,0,0,1.3333333,135.35733,126.97467)" />
    <path
       id="path46"
       d="m 3.1398438,-5.1548281 c 0,-0.1640625 0,-0.2226563 -0.1640625,-0.2226563 -0.1054688,0 -0.1171875,0.011719 -0.1992188,0.1171875 l -2.54296875,3.6914063 v 0.2578125 H 2.4835938 v 0.66796873 c 0,0.29296875 -0.023437,0.38671875 -0.6328125,0.38671875 h -0.1875 v 0.2578125 c 0.6796875,-0.0234375 0.6914062,-0.0234375 1.1484375,-0.0234375 0.4570312,0 0.46875,0 1.1484375,0.0234375 v -0.2578125 h -0.1875 c -0.609375,0 -0.6328125,-0.09375 -0.6328125,-0.38671875 V -1.3110781 h 0.84375 v -0.2578125 h -0.84375 z m -0.5976563,0.6445312 v 2.9414063 H 0.51484375 Z m 0,0"
       style="fill:#000000;fill-opacity:1;fill-rule:nonzero;stroke:none"
       aria-label="4"
       transform="matrix(1.3333333,0,0,1.3333333,157.26667,126.97467)" />
    <path
       id="path47"
       d="m 1.1119531,-4.4770781 c 0.1054688,0.035156 0.421875,0.1054687 0.7617188,0.1054687 0.9960937,0 1.59375,-0.6914062 1.59375,-0.8203125 0,-0.082031 -0.046875,-0.1054687 -0.09375,-0.1054687 -0.011719,0 -0.023437,0 -0.1054688,0.035156 -0.3046875,0.1171875 -0.6679687,0.2226563 -1.1015625,0.2226563 -0.46875,0 -0.8554687,-0.1289063 -1.1132812,-0.2226563 -0.0703125,-0.035156 -0.09375,-0.035156 -0.09375,-0.035156 -0.10546875,0 -0.10546875,0.082031 -0.10546875,0.234375 v 2.3320312 c 0,0.140625 0,0.234375 0.12890625,0.234375 0.0585937,0 0.0820312,-0.035156 0.1289062,-0.09375 0.09375,-0.1171875 0.3984375,-0.5273437 1.0664063,-0.5273437 0.4453125,0 0.6679687,0.3632812 0.7382812,0.515625 0.1289063,0.2929687 0.1523438,0.65625 0.1523438,0.9726562 0,0.2929688 -0.011719,0.71484378 -0.234375,1.06640628 -0.1523438,0.24609375 -0.46875,0.4921875 -0.890625,0.4921875 -0.515625,0 -1.03125,-0.328125 -1.20703125,-0.84375 0.0234375,0 0.0703125,0 0.0703125,0 0.22265625,0 0.39843745,-0.14062498 0.39843745,-0.38671878 0,-0.2929687 -0.2226562,-0.3984375 -0.3867187,-0.3984375 -0.140625,0 -0.3984375,0.082031 -0.3984375,0.421875 0,0.71484378 0.6210937,1.44140628 1.5351562,1.44140628 0.9960938,0 1.8398438,-0.7734375 1.8398438,-1.75781248 0,-0.9257813 -0.6679688,-1.7460938 -1.6054688,-1.7460938 -0.3984375,0 -0.7734375,0.1289063 -1.078125,0.3984375 z m 0,0"
       style="fill:#000000;fill-opacity:1;fill-rule:nonzero;stroke:none"
       aria-label="5"
       transform="matrix(1.3333333,0,0,1.3333333,176.35333,90.196)" />
    <path
       id="path48"
       d="m 1.1008516,-2.6372344 c 0,-0.6679687 0.058594,-1.2421875 0.3398437,-1.734375 0.234375,-0.3984375 0.6445313,-0.7265625 1.1484375,-0.7265625 0.1640625,0 0.5273438,0.035156 0.7148438,0.3046875 -0.3632813,0.023437 -0.3984375,0.2929688 -0.3984375,0.375 0,0.2460938 0.1875,0.375 0.375,0.375 0.140625,0 0.375,-0.082031 0.375,-0.3867187 0,-0.4804688 -0.3515625,-0.8671875 -1.078125,-0.8671875 -1.1015625,0 -2.22656254,1.0546875 -2.22656254,2.765625 0,2.16796873 1.00781254,2.69531248 1.78125004,2.69531248 0.375,0 0.796875,-0.10546875 1.1484375,-0.4453125 0.3164062,-0.3046875 0.5859375,-0.64453125 0.5859375,-1.33593748 0,-1.0429688 -0.7851563,-1.78125 -1.6640625,-1.78125 -0.5742188,0 -0.9257813,0.375 -1.1015625,0.7617187 z m 1.03125,2.56640628 c -0.421875,0 -0.6914063,-0.29296875 -0.8085938,-0.515625 -0.1875,-0.36328125 -0.1992187,-0.90234378 -0.1992187,-1.20703128 0,-0.7851562 0.4335937,-1.3828125 1.0429687,-1.3828125 0.3984375,0 0.6328125,0.2109375 0.7851563,0.4921875 0.1757812,0.2929688 0.1757812,0.65625 0.1757812,1.0546875 0,0.4101563 0,0.76171878 -0.1640625,1.04296878 -0.2109375,0.375 -0.4921875,0.515625 -0.8320312,0.515625 z m 0,0"
       style="fill:#000000;fill-opacity:1;fill-rule:nonzero;stroke:none"
       aria-label="6"
       transform="matrix(1.3333333,0,0,1.3333333,198.26267,90.196)" />
    <path
       id="path49"
       d="m 4.0311563,-4.8520781 c 0.070312,-0.09375 0.070312,-0.1054688 0.070312,-0.28125 H 2.074125 c -0.1992187,0 -0.4453125,-0.011719 -0.6445312,-0.023437 -0.4101563,-0.035156 -0.421875,-0.1054688 -0.44531255,-0.234375 H 0.7381875 l -0.26953125,1.6875 H 0.71475 c 0.0234375,-0.1171875 0.10546875,-0.6679688 0.22265625,-0.7382813 0.0820313,-0.035156 0.67968755,-0.035156 0.79687505,-0.035156 h 1.6875 L 2.6014688,-3.3755156 C 1.699125,-2.1684844 1.511625,-0.91457812 1.511625,-0.28176562 c 0,0.0820313 0,0.4453125 0.3632813,0.4453125 0.375,0 0.375,-0.3515625 0.375,-0.4453125 v -0.38671875 c 0,-1.14843753 0.1992187,-2.08593753 0.5859375,-2.60156253 z m 0,0"
       style="fill:#000000;fill-opacity:1;fill-rule:nonzero;stroke:none"
       aria-label="7"
       transform="matrix(1.3333333,0,0,1.3333333,220.172,90.196)" />
    <path
       id="path50"
       d="m 2.6479922,-2.8696719 c 0.4453125,-0.2226562 0.984375,-0.6210937 0.984375,-1.2421875 0,-0.75 -0.7734375,-1.1835937 -1.5117188,-1.1835937 -0.84375,0 -1.53515621,0.5742187 -1.53515621,1.3242187 0,0.3046875 0.10546875,0.5742188 0.3046875,0.796875 0.14062501,0.1757813 0.16406251,0.1875 0.66796871,0.5039063 -0.99609371,0.4335937 -1.20703121,1.0195312 -1.20703121,1.4648437 0,0.86718753 0.87890621,1.37109378 1.75781251,1.37109378 0.9726562,0 1.7578125,-0.65625 1.7578125,-1.49999998 0,-0.5039063 -0.2695313,-0.84375 -0.3984375,-0.9726563 -0.1289063,-0.1289062 -0.140625,-0.140625 -0.8203125,-0.5625 z m -1.2421875,-0.75 c -0.2226563,-0.140625 -0.42187501,-0.375 -0.42187501,-0.6445312 0,-0.5039063 0.55078121,-0.8320313 1.12500001,-0.8320313 0.6210937,0 1.125,0.4335938 1.125,0.984375 0,0.46875 -0.3632813,0.8554688 -0.8320313,1.0898438 z m 0.3984375,1.0898438 c 0.023437,0.011719 0.9375,0.5742187 1.0664062,0.65625 0.1289063,0.070312 0.5507813,0.328125 0.5507813,0.8085937 0,0.60937503 -0.6445313,0.99609378 -1.3007813,0.99609378 -0.7148437,0 -1.31249996,-0.4921875 -1.31249996,-1.13671878 0,-0.5976562 0.44531246,-1.0664062 0.99609376,-1.3242187 z m 0,0"
       style="fill:#000000;fill-opacity:1;fill-rule:nonzero;stroke:none"
       aria-label="8"
       transform="matrix(1.3333333,0,0,1.3333333,235.192,126.97467)" />
    <path
       id="path51"
       d="m 3.1282969,-2.3560391 c 0,1.94531254 -0.9257813,2.28515629 -1.3945313,2.28515629 -0.1640625,0 -0.5742187,-0.0234375 -0.79687498,-0.26953125 0.35156248,-0.0351563 0.37499998,-0.29296875 0.37499998,-0.375 0,-0.24609375 -0.1757812,-0.37500004 -0.37499998,-0.37500004 -0.140625,0 -0.375,0.082031 -0.375,0.38671879 0,0.5390625 0.44531248,0.8671875 1.18359378,0.8671875 1.0898437,0 2.1210937,-1.078125 2.1210937,-2.78906249 0,-2.0742188 -0.9140625,-2.671875 -1.734375,-2.671875 -0.9375,0 -1.78124998,0.7265625 -1.78124998,1.7695312 0,1.03125 0.77343748,1.78125 1.67578128,1.78125 0.5625,0 0.9023437,-0.3632812 1.1015625,-0.7617187 z m -1.078125,0.3867188 c -0.3632813,0 -0.5976563,-0.1640625 -0.7734375,-0.4570313 -0.1757813,-0.3046875 -0.1757813,-0.6796875 -0.1757813,-1.0898437 0,-0.46875 0,-0.8085938 0.2109375,-1.125 0.1992188,-0.2929688 0.4570313,-0.4570313 0.8320313,-0.4570313 0.5273437,0 0.7617187,0.5273438 0.7851562,0.5742188 0.1757813,0.3867187 0.1757813,1.0078125 0.1757813,1.171875 0,0.6210937 -0.3398438,1.3828125 -1.0546875,1.3828125 z m 0,0"
       style="fill:#000000;fill-opacity:1;fill-rule:nonzero;stroke:none"
       aria-label="9"
       transform="matrix(1.3333333,0,0,1.3333333,232.368,163.75467)" />
    <path
       id="path52"
       d="m 2.5066563,-5.0747891 c 0,-0.2226562 -0.023437,-0.2226562 -0.234375,-0.2226562 -0.328125,0.3164062 -0.75,0.5039062 -1.5117188,0.5039062 v 0.2695313 c 0.22265625,0 0.6445313,0 1.1132813,-0.2226563 v 4.08984379 c 0,0.29296875 -0.023437,0.3984375 -0.7851563,0.3984375 h -0.28125 V -5.703125e-4 C 1.1355625,-0.02400781 1.8269688,-0.02400781 2.1785313,-0.02400781 c 0.3632812,0 1.0546875,0 1.3828125,0.0234374975 V -0.25838281 h -0.28125 c -0.75,0 -0.7734375,-0.10546875 -0.7734375,-0.3984375 z m 5.6308593,2.53125 c 0,-0.8554687 -0.09375,-1.3710937 -0.3515625,-1.875 -0.3515625,-0.703125 -0.9960937,-0.8789062 -1.4414062,-0.8789062 -0.9960938,0 -1.3710938,0.75 -1.4765625,0.9726562 -0.2929688,0.5742188 -0.3046875,1.3710938 -0.3046875,1.78125 0,0.5273438 0.023437,1.3359375 0.4101562,1.96875004 0.3632813,0.5859375 0.9492188,0.73828125 1.3710938,0.73828125 0.3867187,0 1.0664062,-0.1171875 1.4648437,-0.90234375 0.2929688,-0.57421874 0.328125,-1.28906254 0.328125,-1.80468754 z m -1.7929687,2.48437504 c -0.2695313,0 -0.8203125,-0.12890625 -0.984375,-0.96093754 -0.09375,-0.4570312 -0.09375,-1.2070312 -0.09375,-1.6171875 0,-0.5507812 0,-1.1132812 0.09375,-1.546875 0.1640625,-0.8085937 0.7851562,-0.890625 0.984375,-0.890625 0.2695312,0 0.8203125,0.1289063 0.984375,0.8554688 0.09375,0.4453125 0.09375,1.0429687 0.09375,1.5820312 0,0.46875 0,1.1835938 -0.09375,1.6289063 -0.1640625,0.84374999 -0.7148438,0.94921874 -0.984375,0.94921874 z m 0,0"
       style="fill:#000000;fill-opacity:1;fill-rule:nonzero;stroke:none"
       aria-label="10"
       transform="matrix(1.3333333,0,0,1.3333333,251.45467,163.75467)" />
    <path
       id="path53"
       d="m 2.5072734,-5.0747891 c 0,-0.2226562 -0.023437,-0.2226562 -0.234375,-0.2226562 -0.328125,0.3164062 -0.75,0.5039062 -1.51171871,0.5039062 v 0.2695313 c 0.22265625,0 0.64453121,0 1.11328121,-0.2226563 v 4.08984379 c 0,0.29296875 -0.023437,0.3984375 -0.7851562,0.3984375 H 0.80805469 V -5.703125e-4 C 1.1361797,-0.02400781 1.8275859,-0.02400781 2.1791484,-0.02400781 c 0.3632813,0 1.0546875,0 1.3828125,0.0234374975 V -0.25838281 h -0.28125 c -0.75,0 -0.7734375,-0.10546875 -0.7734375,-0.3984375 z m 4.2363282,0 c 0,-0.2226562 -0.023437,-0.2226562 -0.234375,-0.2226562 -0.328125,0.3164062 -0.75,0.5039062 -1.5117188,0.5039062 v 0.2695313 c 0.2226563,0 0.6445313,0 1.1132813,-0.2226563 v 4.08984379 c 0,0.29296875 -0.023437,0.3984375 -0.7851563,0.3984375 h -0.28125 V -5.703125e-4 C 5.3725078,-0.02400781 6.0639141,-0.02400781 6.4154766,-0.02400781 c 0.3632812,0 1.0546875,0 1.3828125,0.0234374975 V -0.25838281 h -0.28125 c -0.75,0 -0.7734375,-0.10546875 -0.7734375,-0.3984375 z m 0,0"
       style="fill:#000000;fill-opacity:1;fill-rule:nonzero;stroke:none"
       aria-label="11"
       transform="matrix(1.3333333,0,0,1.3333333,273.364,163.75467)" />
    <path
       id="path54"
       d="m 2.5078906,-5.0747891 c 0,-0.2226562 -0.023437,-0.2226562 -0.234375,-0.2226562 -0.328125,0.3164062 -0.75,0.5039062 -1.51171872,0.5039062 v 0.2695313 c 0.22265625,0 0.64453122,0 1.11328122,-0.2226563 v 4.08984379 c 0,0.29296875 -0.023437,0.3984375 -0.7851562,0.3984375 H 0.80867188 V -5.703125e-4 C 1.1367969,-0.02400781 1.8282031,-0.02400781 2.1797656,-0.02400781 c 0.3632813,0 1.0546875,0 1.3828125,0.0234374975 V -0.25838281 h -0.28125 c -0.75,0 -0.7734375,-0.10546875 -0.7734375,-0.3984375 z m 3.975586,3.4453125 c 0.1289062,-0.1171875 0.4570312,-0.375 0.5859375,-0.4921875 0.4921875,-0.4570312 0.9609375,-0.890625 0.9609375,-1.6171875 0,-0.9492187 -0.796875,-1.5585937 -1.7929688,-1.5585937 -0.9492187,0 -1.5820312,0.7265625 -1.5820312,1.4296875 0,0.3984375 0.3164062,0.4453125 0.421875,0.4453125 0.1640625,0 0.4101562,-0.1171875 0.4101562,-0.421875 0,-0.4101563 -0.3984375,-0.4101563 -0.4921875,-0.4101563 0.234375,-0.5859375 0.7734375,-0.7851562 1.1601563,-0.7851562 0.7382812,0 1.125,0.6328125 1.125,1.3007812 0,0.8320313 -0.5859375,1.4296875 -1.5234375,2.4023438 l -1.0078125,1.03124999 c -0.09375,0.09375 -0.09375,0.10546875 -0.09375,0.3046874975 H 7.8076953 L 8.0303516,-1.4302578 H 7.7842578 c -0.023437,0.1640625 -0.082031,0.56249999 -0.1757812,0.71484374 -0.046875,0.0585938 -0.65625,0.0585938 -0.7851563,0.0585938 H 5.4053516 Z m 0,0"
       style="fill:#000000;fill-opacity:1;fill-rule:nonzero;stroke:none"
       aria-label="12"
       transform="matrix(1.3333333,0,0,1.3333333,295.27333,163.75467)" />
    <path
       id="path55"
       d="m 2.5078672,-5.0747344 c 0,-0.2226562 -0.023437,-0.2226562 -0.234375,-0.2226562 -0.328125,0.3164062 -0.75,0.5039062 -1.51171876,0.5039062 v 0.2695313 c 0.22265625,0 0.64453126,0 1.11328126,-0.2226563 v 4.08984378 c 0,0.29296875 -0.023437,0.3984375 -0.7851563,0.3984375 H 0.80864844 V -5.15625e-4 C 1.1367734,-0.02395312 1.8281797,-0.02395312 2.1797422,-0.02395312 c 0.3632812,0 1.0546875,0 1.3828125,0.023437495 V -0.25832812 h -0.28125 c -0.75,0 -0.7734375,-0.10546875 -0.7734375,-0.3984375 z m 3.7412109,2.4140625 c 0.6328125,0 1.03125,0.4570313 1.03125,1.3007813 0,0.99609373 -0.5742187,1.28906248 -0.9960937,1.28906248 -0.4335938,0 -1.03125,-0.1640625 -1.3125,-0.5859375 0.2929687,0 0.4921875,-0.17578125 0.4921875,-0.44531248 0,-0.2578125 -0.1875,-0.4335938 -0.4453125,-0.4335938 -0.2109375,0 -0.4335938,0.1289063 -0.4335938,0.4570313 0,0.74999998 0.8085938,1.24218748 1.7226563,1.24218748 1.0546875,0 1.7929687,-0.7265625 1.7929687,-1.52343748 0,-0.6679688 -0.515625,-1.265625 -1.3359375,-1.4414063 0.6328125,-0.2226562 1.1015625,-0.7734375 1.1015625,-1.40625 0,-0.6328125 -0.7148437,-1.0898437 -1.546875,-1.0898437 -0.8554687,0 -1.5,0.4570312 -1.5,1.0664062 0,0.2929688 0.1992188,0.421875 0.4101563,0.421875 0.2460937,0 0.4101562,-0.1757812 0.4101562,-0.4101562 0,-0.2929688 -0.2578125,-0.3984375 -0.4335937,-0.4101563 0.3398437,-0.4335937 0.9492187,-0.46875 1.0898437,-0.46875 0.2109375,0 0.8085938,0.070312 0.8085938,0.890625 0,0.5625 -0.2226563,0.890625 -0.3398438,1.0195313 -0.234375,0.2460937 -0.421875,0.2578125 -0.9023437,0.2929687 -0.1523438,0.011719 -0.2226563,0.023437 -0.2226563,0.1171875 0,0.1171875 0.070312,0.1171875 0.2109375,0.1171875 z m 0,0"
       style="fill:#000000;fill-opacity:1;fill-rule:nonzero;stroke:none"
       aria-label="13"
       transform="matrix(1.3333333,0,0,1.3333333,277.44133,90.196)" />
  </g>
</svg>
