<?xml version="1.0" encoding="UTF-8"?>
<svg xmlns="http://www.w3.org/2000/svg" xmlns:xlink="http://www.w3.org/1999/xlink" width="268" height="252" viewBox="0 0 268 252">
<path fill-rule="nonzero" fill="rgb(3.137255%, 36.078431%, 97.254902%)" fill-opacity="0.3" stroke-width="0.19925" stroke-linecap="butt" stroke-linejoin="miter" stroke="rgb(50.196078%, 50.196078%, 50.196078%)" stroke-opacity="1" stroke-miterlimit="10" d="M 0.000249469 0.000241435 L 0.000249469 10.856964 L 21.714694 -0.854636 L 21.714694 -11.712097 Z M 0.000249469 0.000241435 " transform="matrix(5.349622, 0, 0, -5.295898, 151.303353, 115.524716)"/>
<path fill-rule="nonzero" fill="rgb(3.137255%, 36.078431%, 97.254902%)" fill-opacity="0.3" stroke-width="0.19925" stroke-linecap="butt" stroke-linejoin="miter" stroke="rgb(50.196078%, 50.196078%, 50.196078%)" stroke-opacity="1" stroke-miterlimit="10" d="M 0.000249469 0.000241435 L 0.000249469 10.856964 L -9.110354 3.878538 L -9.110354 -6.978922 Z M 0.000249469 0.000241435 " transform="matrix(5.349622, 0, 0, -5.295898, 151.303353, 115.524716)"/>
<path fill-rule="nonzero" fill="rgb(3.137255%, 36.078431%, 97.254902%)" fill-opacity="0.3" stroke-width="0.19925" stroke-linecap="butt" stroke-linejoin="miter" stroke="rgb(50.196078%, 50.196078%, 50.196078%)" stroke-opacity="1" stroke-miterlimit="10" d="M 0.000249469 0.000241435 L 21.714694 -11.712097 L 12.604091 -18.691261 L -9.110354 -6.978922 Z M 0.000249469 0.000241435 " transform="matrix(5.349622, 0, 0, -5.295898, 151.303353, 115.524716)"/>
<path fill-rule="nonzero" fill="rgb(3.137255%, 36.078431%, 97.254902%)" fill-opacity="0.3" stroke-width="0.19925" stroke-linecap="butt" stroke-linejoin="miter" stroke="rgb(50.196078%, 50.196078%, 50.196078%)" stroke-opacity="1" stroke-miterlimit="10" d="M -9.110354 -6.978922 L -9.110354 3.878538 L 12.604091 -7.8338 L 12.604091 -18.691261 Z M -9.110354 -6.978922 " transform="matrix(5.349622, 0, 0, -5.295898, 151.303353, 115.524716)"/>
<path fill-rule="nonzero" fill="rgb(3.137255%, 36.078431%, 97.254902%)" fill-opacity="0.3" stroke-width="0.19925" stroke-linecap="butt" stroke-linejoin="miter" stroke="rgb(50.196078%, 50.196078%, 50.196078%)" stroke-opacity="1" stroke-miterlimit="10" d="M 21.714694 -11.712097 L 21.714694 -0.854636 L 12.604091 -7.8338 L 12.604091 -18.691261 Z M 21.714694 -11.712097 " transform="matrix(5.349622, 0, 0, -5.295898, 151.303353, 115.524716)"/>
<path fill-rule="nonzero" fill="rgb(3.137255%, 36.078431%, 97.254902%)" fill-opacity="0.3" stroke-width="0.19925" stroke-linecap="butt" stroke-linejoin="miter" stroke="rgb(50.196078%, 50.196078%, 50.196078%)" stroke-opacity="1" stroke-miterlimit="10" d="M 0.000249469 10.856964 L 21.714694 -0.854636 L 12.604091 -7.8338 L -9.110354 3.878538 Z M 0.000249469 10.856964 " transform="matrix(5.349622, 0, 0, -5.295898, 151.303353, 115.524716)"/>
<path fill-rule="nonzero" fill="rgb(0%, 0%, 0%)" fill-opacity="1" d="M 185.066406 154.425781 C 180.65625 154.425781 177.667969 152.667969 176.121094 149.132812 C 174.554688 145.550781 173.78125 141.332031 173.78125 136.46875 C 173.78125 133.386719 174.050781 130.492188 174.617188 127.78125 C 175.160156 125.09375 176.289062 122.796875 177.960938 120.914062 C 179.632812 119.050781 181.992188 118.101562 185.066406 118.101562 C 187.40625 118.101562 189.285156 118.679688 190.75 119.839844 C 192.253906 120.957031 193.382812 122.402344 194.175781 124.222656 C 194.949219 126.003906 195.472656 127.925781 195.765625 130.015625 C 196.035156 132.0625 196.183594 134.214844 196.183594 136.46875 C 196.183594 139.449219 195.890625 142.261719 195.347656 144.910156 C 194.78125 147.558594 193.675781 149.835938 192.003906 151.695312 C 190.371094 153.515625 188.074219 154.425781 185.066406 154.425781 Z M 185.066406 153.101562 C 187.007812 153.101562 188.449219 152.109375 189.410156 150.125 C 190.414062 148.097656 191.019531 145.863281 191.25 143.421875 C 191.460938 140.9375 191.585938 138.332031 191.585938 135.558594 C 191.585938 132.914062 191.460938 130.492188 191.25 128.277344 C 191.019531 126.023438 190.414062 124.015625 189.410156 122.238281 C 188.449219 120.417969 187.007812 119.507812 185.066406 119.507812 C 182.996094 119.507812 181.46875 120.417969 180.46875 122.238281 C 179.507812 124.058594 178.921875 126.085938 178.710938 128.277344 C 178.480469 130.492188 178.378906 132.914062 178.378906 135.558594 C 178.378906 137.546875 178.417969 139.429688 178.546875 141.1875 C 178.648438 142.90625 178.898438 144.703125 179.296875 146.566406 C 179.734375 148.386719 180.40625 149.9375 181.304688 151.199219 C 182.242188 152.484375 183.496094 153.101562 185.066406 153.101562 Z M 171.691406 116.074219 "/>
<path fill-rule="nonzero" fill="rgb(7.45098%, 50.196078%, 70.196078%)" fill-opacity="0.3" stroke-width="0.19925" stroke-linecap="butt" stroke-linejoin="miter" stroke="rgb(50.196078%, 50.196078%, 50.196078%)" stroke-opacity="1" stroke-miterlimit="10" d="M -9.110354 -6.978922 L -9.110354 -1.550192 L 12.604091 -13.26253 L 12.604091 -18.691261 Z M -9.110354 -6.978922 " transform="matrix(5.349622, 0, 0, -5.295898, 151.303353, 115.524716)"/>
<path fill-rule="nonzero" fill="rgb(7.45098%, 50.196078%, 70.196078%)" fill-opacity="0.3" stroke-width="0.19925" stroke-linecap="butt" stroke-linejoin="miter" stroke="rgb(50.196078%, 50.196078%, 50.196078%)" stroke-opacity="1" stroke-miterlimit="10" d="M -9.110354 -6.978922 L -9.110354 -1.550192 L -18.220958 -8.529356 L -18.220958 -13.958086 Z M -9.110354 -6.978922 " transform="matrix(5.349622, 0, 0, -5.295898, 151.303353, 115.524716)"/>
<path fill-rule="nonzero" fill="rgb(7.45098%, 50.196078%, 70.196078%)" fill-opacity="0.3" stroke-width="0.19925" stroke-linecap="butt" stroke-linejoin="miter" stroke="rgb(50.196078%, 50.196078%, 50.196078%)" stroke-opacity="1" stroke-miterlimit="10" d="M -9.110354 -6.978922 L 12.604091 -18.691261 L 3.493487 -25.670425 L -18.220958 -13.958086 Z M -9.110354 -6.978922 " transform="matrix(5.349622, 0, 0, -5.295898, 151.303353, 115.524716)"/>
<path fill-rule="nonzero" fill="rgb(7.45098%, 50.196078%, 70.196078%)" fill-opacity="0.3" stroke-width="0.19925" stroke-linecap="butt" stroke-linejoin="miter" stroke="rgb(50.196078%, 50.196078%, 50.196078%)" stroke-opacity="1" stroke-miterlimit="10" d="M -18.220958 -13.958086 L -18.220958 -8.529356 L 3.493487 -20.241694 L 3.493487 -25.670425 Z M -18.220958 -13.958086 " transform="matrix(5.349622, 0, 0, -5.295898, 151.303353, 115.524716)"/>
<path fill-rule="nonzero" fill="rgb(7.45098%, 50.196078%, 70.196078%)" fill-opacity="0.3" stroke-width="0.19925" stroke-linecap="butt" stroke-linejoin="miter" stroke="rgb(50.196078%, 50.196078%, 50.196078%)" stroke-opacity="1" stroke-miterlimit="10" d="M 12.604091 -18.691261 L 12.604091 -13.26253 L 3.493487 -20.241694 L 3.493487 -25.670425 Z M 12.604091 -18.691261 " transform="matrix(5.349622, 0, 0, -5.295898, 151.303353, 115.524716)"/>
<path fill-rule="nonzero" fill="rgb(7.45098%, 50.196078%, 70.196078%)" fill-opacity="0.3" stroke-width="0.19925" stroke-linecap="butt" stroke-linejoin="miter" stroke="rgb(50.196078%, 50.196078%, 50.196078%)" stroke-opacity="1" stroke-miterlimit="10" d="M -9.110354 -1.550192 L 12.604091 -13.26253 L 3.493487 -20.241694 L -18.220958 -8.529356 Z M -9.110354 -1.550192 " transform="matrix(5.349622, 0, 0, -5.295898, 151.303353, 115.524716)"/>
<path fill-rule="nonzero" fill="rgb(0%, 0%, 0%)" fill-opacity="1" d="M 140.085938 201.207031 L 136.40625 201.207031 L 136.40625 180.1875 C 136.40625 178.988281 136.40625 178.015625 136.40625 177.292969 C 136.449219 176.527344 136.511719 175.761719 136.574219 174.976562 C 136.117188 175.429688 135.699219 175.804688 135.320312 176.132812 C 134.988281 176.425781 134.527344 176.796875 133.984375 177.292969 L 130.722656 179.859375 L 128.71875 177.375 L 136.992188 171.085938 L 140.085938 171.085938 Z M 124.957031 156.089844 "/>
<path fill-rule="nonzero" fill="rgb(21.960784%, 59.215686%, 40.392157%)" fill-opacity="0.3" stroke-width="0.19925" stroke-linecap="butt" stroke-linejoin="miter" stroke="rgb(50.196078%, 50.196078%, 50.196078%)" stroke-opacity="1" stroke-miterlimit="10" d="M -9.110354 -1.550192 L -9.110354 3.878538 L 12.604091 -7.8338 L 12.604091 -13.26253 Z M -9.110354 -1.550192 " transform="matrix(5.349622, 0, 0, -5.295898, 151.303353, 115.524716)"/>
<path fill-rule="nonzero" fill="rgb(21.960784%, 59.215686%, 40.392157%)" fill-opacity="0.3" stroke-width="0.19925" stroke-linecap="butt" stroke-linejoin="miter" stroke="rgb(50.196078%, 50.196078%, 50.196078%)" stroke-opacity="1" stroke-miterlimit="10" d="M -9.110354 -1.550192 L -9.110354 3.878538 L -18.220958 -3.100626 L -18.220958 -8.529356 Z M -9.110354 -1.550192 " transform="matrix(5.349622, 0, 0, -5.295898, 151.303353, 115.524716)"/>
<path fill-rule="nonzero" fill="rgb(21.960784%, 59.215686%, 40.392157%)" fill-opacity="0.3" stroke-width="0.19925" stroke-linecap="butt" stroke-linejoin="miter" stroke="rgb(50.196078%, 50.196078%, 50.196078%)" stroke-opacity="1" stroke-miterlimit="10" d="M -9.110354 -1.550192 L 12.604091 -13.26253 L 3.493487 -20.241694 L -18.220958 -8.529356 Z M -9.110354 -1.550192 " transform="matrix(5.349622, 0, 0, -5.295898, 151.303353, 115.524716)"/>
<path fill-rule="nonzero" fill="rgb(21.960784%, 59.215686%, 40.392157%)" fill-opacity="0.3" stroke-width="0.19925" stroke-linecap="butt" stroke-linejoin="miter" stroke="rgb(50.196078%, 50.196078%, 50.196078%)" stroke-opacity="1" stroke-miterlimit="10" d="M -18.220958 -8.529356 L -18.220958 -3.100626 L 3.493487 -14.812964 L 3.493487 -20.241694 Z M -18.220958 -8.529356 " transform="matrix(5.349622, 0, 0, -5.295898, 151.303353, 115.524716)"/>
<path fill-rule="nonzero" fill="rgb(21.960784%, 59.215686%, 40.392157%)" fill-opacity="0.3" stroke-width="0.19925" stroke-linecap="butt" stroke-linejoin="miter" stroke="rgb(50.196078%, 50.196078%, 50.196078%)" stroke-opacity="1" stroke-miterlimit="10" d="M 12.604091 -13.26253 L 12.604091 -7.8338 L 3.493487 -14.812964 L 3.493487 -20.241694 Z M 12.604091 -13.26253 " transform="matrix(5.349622, 0, 0, -5.295898, 151.303353, 115.524716)"/>
<path fill-rule="nonzero" fill="rgb(21.960784%, 59.215686%, 40.392157%)" fill-opacity="0.3" stroke-width="0.19925" stroke-linecap="butt" stroke-linejoin="miter" stroke="rgb(50.196078%, 50.196078%, 50.196078%)" stroke-opacity="1" stroke-miterlimit="10" d="M -9.110354 3.878538 L 12.604091 -7.8338 L 3.493487 -14.812964 L -18.220958 -3.100626 Z M -9.110354 3.878538 " transform="matrix(5.349622, 0, 0, -5.295898, 151.303353, 115.524716)"/>
<path fill-rule="nonzero" fill="rgb(0%, 0%, 0%)" fill-opacity="1" d="M 147.105469 172.457031 L 126.960938 172.457031 L 126.960938 169.394531 L 134.988281 161.367188 C 136.492188 159.878906 137.765625 158.554688 138.832031 157.394531 C 139.875 156.195312 140.691406 155.035156 141.257812 153.921875 C 141.800781 152.761719 142.09375 151.5 142.09375 150.113281 C 142.09375 148.457031 141.589844 147.21875 140.585938 146.390625 C 139.585938 145.519531 138.269531 145.066406 136.660156 145.066406 C 135.195312 145.066406 133.898438 145.3125 132.730469 145.8125 C 131.601562 146.308594 130.496094 147.03125 129.386719 147.960938 L 127.378906 145.480469 C 128.550781 144.488281 129.910156 143.660156 131.476562 142.996094 C 133.023438 142.292969 134.757812 141.921875 136.660156 141.921875 C 139.5 141.921875 141.714844 142.644531 143.347656 144.074219 C 145.015625 145.457031 145.851562 147.425781 145.851562 149.949219 C 145.851562 151.5 145.519531 152.96875 144.851562 154.332031 C 144.222656 155.71875 143.347656 157.105469 142.175781 158.472656 C 141.003906 159.796875 139.625 161.203125 138.078125 162.691406 L 131.726562 168.898438 L 131.726562 169.0625 L 147.105469 169.0625 Z M 124.957031 127.335938 "/>
<path fill-rule="nonzero" fill="rgb(29.411765%, 66.27451%, 13.333333%)" fill-opacity="0.3" stroke-width="0.19925" stroke-linecap="butt" stroke-linejoin="miter" stroke="rgb(50.196078%, 50.196078%, 50.196078%)" stroke-opacity="1" stroke-miterlimit="10" d="M 0.000249469 10.856964 L 0.000249469 21.714425 L 10.857472 15.858625 L 10.857472 5.001164 Z M 0.000249469 10.856964 " transform="matrix(5.349622, 0, 0, -5.295898, 151.303353, 115.524716)"/>
<path fill-rule="nonzero" fill="rgb(29.411765%, 66.27451%, 13.333333%)" fill-opacity="0.3" stroke-width="0.19925" stroke-linecap="butt" stroke-linejoin="miter" stroke="rgb(50.196078%, 50.196078%, 50.196078%)" stroke-opacity="1" stroke-miterlimit="10" d="M 0.000249469 10.856964 L 0.000249469 21.714425 L -4.555417 18.224843 L -4.555417 7.36812 Z M 0.000249469 10.856964 " transform="matrix(5.349622, 0, 0, -5.295898, 151.303353, 115.524716)"/>
<path fill-rule="nonzero" fill="rgb(29.411765%, 66.27451%, 13.333333%)" fill-opacity="0.3" stroke-width="0.19925" stroke-linecap="butt" stroke-linejoin="miter" stroke="rgb(50.196078%, 50.196078%, 50.196078%)" stroke-opacity="1" stroke-miterlimit="10" d="M 0.000249469 10.856964 L 10.857472 5.001164 L 6.301805 1.511582 L -4.555417 7.36812 Z M 0.000249469 10.856964 " transform="matrix(5.349622, 0, 0, -5.295898, 151.303353, 115.524716)"/>
<path fill-rule="nonzero" fill="rgb(29.411765%, 66.27451%, 13.333333%)" fill-opacity="0.3" stroke-width="0.19925" stroke-linecap="butt" stroke-linejoin="miter" stroke="rgb(50.196078%, 50.196078%, 50.196078%)" stroke-opacity="1" stroke-miterlimit="10" d="M -4.555417 7.36812 L -4.555417 18.224843 L 6.301805 12.369043 L 6.301805 1.511582 Z M -4.555417 7.36812 " transform="matrix(5.349622, 0, 0, -5.295898, 151.303353, 115.524716)"/>
<path fill-rule="nonzero" fill="rgb(29.411765%, 66.27451%, 13.333333%)" fill-opacity="0.3" stroke-width="0.19925" stroke-linecap="butt" stroke-linejoin="miter" stroke="rgb(50.196078%, 50.196078%, 50.196078%)" stroke-opacity="1" stroke-miterlimit="10" d="M 10.857472 5.001164 L 10.857472 15.858625 L 6.301805 12.369043 L 6.301805 1.511582 Z M 10.857472 5.001164 " transform="matrix(5.349622, 0, 0, -5.295898, 151.303353, 115.524716)"/>
<path fill-rule="nonzero" fill="rgb(29.411765%, 66.27451%, 13.333333%)" fill-opacity="0.3" stroke-width="0.19925" stroke-linecap="butt" stroke-linejoin="miter" stroke="rgb(50.196078%, 50.196078%, 50.196078%)" stroke-opacity="1" stroke-miterlimit="10" d="M 0.000249469 21.714425 L 10.857472 15.858625 L 6.301805 12.369043 L -4.555417 18.224843 Z M 0.000249469 21.714425 " transform="matrix(5.349622, 0, 0, -5.295898, 151.303353, 115.524716)"/>
<path fill-rule="nonzero" fill="rgb(0%, 0%, 0%)" fill-opacity="1" d="M 177.816406 44.542969 C 177.816406 46.589844 177.25 48.222656 176.144531 49.425781 C 175.015625 50.582031 173.488281 51.367188 171.546875 51.742188 L 171.546875 51.90625 C 173.992188 52.195312 175.808594 52.960938 176.980469 54.222656 C 178.191406 55.445312 178.820312 57.035156 178.820312 59.023438 C 178.820312 60.800781 178.402344 62.375 177.566406 63.738281 C 176.730469 65.125 175.433594 66.203125 173.71875 66.964844 C 171.984375 67.671875 169.789062 68.042969 167.117188 68.042969 C 165.484375 68.042969 163.980469 67.898438 162.601562 67.628906 C 161.265625 67.421875 159.96875 67.007812 158.757812 66.386719 L 158.757812 62.910156 C 160.03125 63.574219 161.390625 64.070312 162.851562 64.402344 C 164.359375 64.730469 165.777344 64.898438 167.117188 64.898438 C 169.832031 64.898438 171.816406 64.378906 173.050781 63.324219 C 174.261719 62.292969 174.890625 60.824219 174.890625 58.941406 C 174.890625 57.078125 174.136719 55.710938 172.632812 54.886719 C 171.128906 54.058594 169.039062 53.644531 166.363281 53.644531 L 163.4375 53.644531 L 163.4375 50.5 L 166.363281 50.5 C 168.871094 50.5 170.753906 49.984375 172.046875 48.925781 C 173.386719 47.894531 174.054688 46.507812 174.054688 44.789062 C 174.054688 43.363281 173.550781 42.265625 172.550781 41.480469 C 171.546875 40.652344 170.167969 40.238281 168.453125 40.238281 C 166.824219 40.238281 165.445312 40.488281 164.273438 40.984375 C 163.105469 41.4375 161.933594 42.019531 160.761719 42.722656 L 158.925781 40.238281 C 159.96875 39.371094 161.308594 38.625 162.9375 38.003906 C 164.546875 37.40625 166.386719 37.09375 168.453125 37.09375 C 171.628906 37.09375 173.96875 37.820312 175.476562 39.246094 C 177.019531 40.632812 177.816406 42.390625 177.816406 44.542969 Z M 156.835938 22.511719 "/>
<path fill-rule="nonzero" fill="rgb(49.019608%, 70.588235%, 10.588235%)" fill-opacity="0.3" stroke-width="0.19925" stroke-linecap="butt" stroke-linejoin="miter" stroke="rgb(50.196078%, 50.196078%, 50.196078%)" stroke-opacity="1" stroke-miterlimit="10" d="M -4.555417 7.36812 L -4.555417 18.224843 L 6.301805 12.369043 L 6.301805 1.511582 Z M -4.555417 7.36812 " transform="matrix(5.349622, 0, 0, -5.295898, 151.303353, 115.524716)"/>
<path fill-rule="nonzero" fill="rgb(49.019608%, 70.588235%, 10.588235%)" fill-opacity="0.3" stroke-width="0.19925" stroke-linecap="butt" stroke-linejoin="miter" stroke="rgb(50.196078%, 50.196078%, 50.196078%)" stroke-opacity="1" stroke-miterlimit="10" d="M -4.555417 7.36812 L -4.555417 18.224843 L -9.110354 14.735999 L -9.110354 3.878538 Z M -4.555417 7.36812 " transform="matrix(5.349622, 0, 0, -5.295898, 151.303353, 115.524716)"/>
<path fill-rule="nonzero" fill="rgb(49.019608%, 70.588235%, 10.588235%)" fill-opacity="0.3" stroke-width="0.19925" stroke-linecap="butt" stroke-linejoin="miter" stroke="rgb(50.196078%, 50.196078%, 50.196078%)" stroke-opacity="1" stroke-miterlimit="10" d="M -4.555417 7.36812 L 6.301805 1.511582 L 1.746868 -1.978 L -9.110354 3.878538 Z M -4.555417 7.36812 " transform="matrix(5.349622, 0, 0, -5.295898, 151.303353, 115.524716)"/>
<path fill-rule="nonzero" fill="rgb(49.019608%, 70.588235%, 10.588235%)" fill-opacity="0.3" stroke-width="0.19925" stroke-linecap="butt" stroke-linejoin="miter" stroke="rgb(50.196078%, 50.196078%, 50.196078%)" stroke-opacity="1" stroke-miterlimit="10" d="M -9.110354 3.878538 L -9.110354 14.735999 L 1.746868 8.879461 L 1.746868 -1.978 Z M -9.110354 3.878538 " transform="matrix(5.349622, 0, 0, -5.295898, 151.303353, 115.524716)"/>
<path fill-rule="nonzero" fill="rgb(49.019608%, 70.588235%, 10.588235%)" fill-opacity="0.3" stroke-width="0.19925" stroke-linecap="butt" stroke-linejoin="miter" stroke="rgb(50.196078%, 50.196078%, 50.196078%)" stroke-opacity="1" stroke-miterlimit="10" d="M 6.301805 1.511582 L 6.301805 12.369043 L 1.746868 8.879461 L 1.746868 -1.978 Z M 6.301805 1.511582 " transform="matrix(5.349622, 0, 0, -5.295898, 151.303353, 115.524716)"/>
<path fill-rule="nonzero" fill="rgb(49.019608%, 70.588235%, 10.588235%)" fill-opacity="0.3" stroke-width="0.19925" stroke-linecap="butt" stroke-linejoin="miter" stroke="rgb(50.196078%, 50.196078%, 50.196078%)" stroke-opacity="1" stroke-miterlimit="10" d="M -4.555417 18.224843 L 6.301805 12.369043 L 1.746868 8.879461 L -9.110354 14.735999 Z M -4.555417 18.224843 " transform="matrix(5.349622, 0, 0, -5.295898, 151.303353, 115.524716)"/>
<path fill-rule="nonzero" fill="rgb(0%, 0%, 0%)" fill-opacity="1" d="M 156.039062 79.238281 L 151.523438 79.238281 L 151.523438 86.105469 L 147.929688 86.105469 L 147.929688 79.238281 L 133.386719 79.238281 L 133.386719 76.09375 L 147.679688 55.820312 L 151.523438 55.820312 L 151.523438 75.929688 L 156.039062 75.929688 Z M 147.929688 66.410156 C 147.929688 64.984375 147.953125 63.765625 148.015625 62.769531 C 148.054688 61.738281 148.121094 60.742188 148.183594 59.792969 L 148.015625 59.792969 C 147.785156 60.289062 147.472656 60.867188 147.09375 61.53125 C 146.761719 62.148438 146.449219 62.667969 146.175781 63.101562 L 137.066406 75.929688 L 147.929688 75.929688 Z M 132.46875 40.988281 "/>
<path fill-rule="nonzero" fill="rgb(65.098039%, 74.509804%, 9.019608%)" fill-opacity="0.3" stroke-width="0.19925" stroke-linecap="butt" stroke-linejoin="miter" stroke="rgb(50.196078%, 50.196078%, 50.196078%)" stroke-opacity="1" stroke-miterlimit="10" d="M 10.857472 5.001164 L 10.857472 15.858625 L 21.714694 10.002087 L 21.714694 -0.854636 Z M 10.857472 5.001164 " transform="matrix(5.349622, 0, 0, -5.295898, 151.303353, 115.524716)"/>
<path fill-rule="nonzero" fill="rgb(65.098039%, 74.509804%, 9.019608%)" fill-opacity="0.3" stroke-width="0.19925" stroke-linecap="butt" stroke-linejoin="miter" stroke="rgb(50.196078%, 50.196078%, 50.196078%)" stroke-opacity="1" stroke-miterlimit="10" d="M 10.857472 5.001164 L 10.857472 15.858625 L 1.746868 8.879461 L 1.746868 -1.978 Z M 10.857472 5.001164 " transform="matrix(5.349622, 0, 0, -5.295898, 151.303353, 115.524716)"/>
<path fill-rule="nonzero" fill="rgb(65.098039%, 74.509804%, 9.019608%)" fill-opacity="0.3" stroke-width="0.19925" stroke-linecap="butt" stroke-linejoin="miter" stroke="rgb(50.196078%, 50.196078%, 50.196078%)" stroke-opacity="1" stroke-miterlimit="10" d="M 10.857472 5.001164 L 21.714694 -0.854636 L 12.604091 -7.8338 L 1.746868 -1.978 Z M 10.857472 5.001164 " transform="matrix(5.349622, 0, 0, -5.295898, 151.303353, 115.524716)"/>
<path fill-rule="nonzero" fill="rgb(65.098039%, 74.509804%, 9.019608%)" fill-opacity="0.3" stroke-width="0.19925" stroke-linecap="butt" stroke-linejoin="miter" stroke="rgb(50.196078%, 50.196078%, 50.196078%)" stroke-opacity="1" stroke-miterlimit="10" d="M 1.746868 -1.978 L 1.746868 8.879461 L 12.604091 3.023661 L 12.604091 -7.8338 Z M 1.746868 -1.978 " transform="matrix(5.349622, 0, 0, -5.295898, 151.303353, 115.524716)"/>
<path fill-rule="nonzero" fill="rgb(65.098039%, 74.509804%, 9.019608%)" fill-opacity="0.3" stroke-width="0.19925" stroke-linecap="butt" stroke-linejoin="miter" stroke="rgb(50.196078%, 50.196078%, 50.196078%)" stroke-opacity="1" stroke-miterlimit="10" d="M 21.714694 -0.854636 L 21.714694 10.002087 L 12.604091 3.023661 L 12.604091 -7.8338 Z M 21.714694 -0.854636 " transform="matrix(5.349622, 0, 0, -5.295898, 151.303353, 115.524716)"/>
<path fill-rule="nonzero" fill="rgb(65.098039%, 74.509804%, 9.019608%)" fill-opacity="0.3" stroke-width="0.19925" stroke-linecap="butt" stroke-linejoin="miter" stroke="rgb(50.196078%, 50.196078%, 50.196078%)" stroke-opacity="1" stroke-miterlimit="10" d="M 10.857472 15.858625 L 21.714694 10.002087 L 12.604091 3.023661 L 1.746868 8.879461 Z M 10.857472 15.858625 " transform="matrix(5.349622, 0, 0, -5.295898, 151.303353, 115.524716)"/>
<path fill-rule="nonzero" fill="rgb(0%, 0%, 0%)" fill-opacity="1" d="M 205.332031 105.238281 C 205.707031 106.292969 206.273438 107.265625 207.003906 108.132812 C 207.777344 108.960938 208.675781 109.621094 209.679688 110.117188 C 210.722656 110.574219 211.808594 110.78125 212.9375 110.78125 C 215.488281 110.78125 217.242188 109.789062 218.203125 107.800781 C 219.207031 105.816406 219.707031 103.417969 219.707031 100.601562 C 219.707031 99.402344 219.667969 98.367188 219.625 97.542969 C 219.625 96.714844 219.5 95.925781 219.289062 95.140625 C 218.957031 93.878906 218.371094 92.804688 217.535156 91.914062 C 216.742188 90.984375 215.738281 90.507812 214.527344 90.507812 C 213.355469 90.507812 212.3125 90.714844 211.433594 91.085938 C 210.597656 91.417969 209.886719 91.832031 209.34375 92.328125 C 208.777344 92.78125 208.296875 93.28125 207.921875 93.816406 C 207.523438 94.3125 207.273438 94.605469 207.171875 94.644531 L 206.5 94.644531 C 206.4375 94.644531 206.335938 94.605469 206.167969 94.480469 C 206.042969 94.375 206 94.273438 206 94.148438 L 206 76.523438 C 206 76.480469 206.042969 76.398438 206.167969 76.273438 C 206.273438 76.171875 206.375 76.109375 206.5 76.109375 L 206.667969 76.109375 C 209.050781 77.269531 211.621094 77.847656 214.359375 77.847656 C 216.972656 77.847656 219.5 77.269531 221.964844 76.109375 L 222.132812 76.109375 C 222.238281 76.109375 222.339844 76.171875 222.464844 76.273438 C 222.570312 76.335938 222.632812 76.417969 222.632812 76.523438 L 222.632812 77.019531 C 222.632812 77.183594 222.570312 77.269531 222.464844 77.269531 C 221.296875 78.882812 219.792969 80.121094 217.953125 80.992188 C 216.113281 81.882812 214.210938 82.316406 212.269531 82.316406 C 210.804688 82.316406 209.34375 82.128906 207.839844 81.734375 L 207.839844 91.75 C 209.050781 90.816406 210.117188 90.15625 211.015625 89.761719 C 211.957031 89.328125 213.148438 89.101562 214.609375 89.101562 C 216.554688 89.101562 218.308594 89.679688 219.875 90.839844 C 221.421875 91.957031 222.632812 93.402344 223.46875 95.222656 C 224.304688 97.003906 224.722656 98.824219 224.722656 100.6875 C 224.722656 102.796875 224.179688 104.742188 223.136719 106.5625 C 222.070312 108.339844 220.628906 109.765625 218.789062 110.863281 C 216.992188 111.898438 215.046875 112.4375 212.9375 112.4375 C 211.203125 112.4375 209.59375 111.980469 208.089844 111.113281 C 206.625 110.242188 205.5 109.042969 204.664062 107.554688 C 203.828125 106.023438 203.410156 104.386719 203.410156 102.671875 C 203.410156 101.90625 203.660156 101.265625 204.160156 100.769531 C 204.664062 100.273438 205.289062 100.023438 206.082031 100.023438 C 206.917969 100.023438 207.589844 100.273438 208.089844 100.769531 C 208.632812 101.265625 208.925781 101.90625 208.925781 102.671875 C 208.925781 103.457031 208.632812 104.121094 208.089844 104.65625 C 207.589844 105.152344 206.917969 105.402344 206.082031 105.402344 C 205.957031 105.402344 205.832031 105.402344 205.664062 105.402344 C 205.539062 105.359375 205.4375 105.300781 205.332031 105.238281 Z M 200.734375 74.082031 "/>
<path fill-rule="nonzero" fill="rgb(80.392157%, 78.431373%, 6.666667%)" fill-opacity="0.3" stroke-width="0.19925" stroke-linecap="butt" stroke-linejoin="miter" stroke="rgb(50.196078%, 50.196078%, 50.196078%)" stroke-opacity="1" stroke-miterlimit="10" d="M -9.110354 3.878538 L -9.110354 9.307269 L 12.604091 -2.40507 L 12.604091 -7.8338 Z M -9.110354 3.878538 " transform="matrix(5.349622, 0, 0, -5.295898, 151.303353, 115.524716)"/>
<path fill-rule="nonzero" fill="rgb(80.392157%, 78.431373%, 6.666667%)" fill-opacity="0.3" stroke-width="0.19925" stroke-linecap="butt" stroke-linejoin="miter" stroke="rgb(50.196078%, 50.196078%, 50.196078%)" stroke-opacity="1" stroke-miterlimit="10" d="M -9.110354 3.878538 L -9.110354 9.307269 L -13.666021 5.817687 L -13.666021 0.388956 Z M -9.110354 3.878538 " transform="matrix(5.349622, 0, 0, -5.295898, 151.303353, 115.524716)"/>
<path fill-rule="nonzero" fill="rgb(80.392157%, 78.431373%, 6.666667%)" fill-opacity="0.3" stroke-width="0.19925" stroke-linecap="butt" stroke-linejoin="miter" stroke="rgb(50.196078%, 50.196078%, 50.196078%)" stroke-opacity="1" stroke-miterlimit="10" d="M -9.110354 3.878538 L 12.604091 -7.8338 L 8.049154 -11.323382 L -13.666021 0.388956 Z M -9.110354 3.878538 " transform="matrix(5.349622, 0, 0, -5.295898, 151.303353, 115.524716)"/>
<path fill-rule="nonzero" fill="rgb(80.392157%, 78.431373%, 6.666667%)" fill-opacity="0.3" stroke-width="0.19925" stroke-linecap="butt" stroke-linejoin="miter" stroke="rgb(50.196078%, 50.196078%, 50.196078%)" stroke-opacity="1" stroke-miterlimit="10" d="M -13.666021 0.388956 L -13.666021 5.817687 L 8.049154 -5.894652 L 8.049154 -11.323382 Z M -13.666021 0.388956 " transform="matrix(5.349622, 0, 0, -5.295898, 151.303353, 115.524716)"/>
<path fill-rule="nonzero" fill="rgb(80.392157%, 78.431373%, 6.666667%)" fill-opacity="0.3" stroke-width="0.19925" stroke-linecap="butt" stroke-linejoin="miter" stroke="rgb(50.196078%, 50.196078%, 50.196078%)" stroke-opacity="1" stroke-miterlimit="10" d="M 12.604091 -7.8338 L 12.604091 -2.40507 L 8.049154 -5.894652 L 8.049154 -11.323382 Z M 12.604091 -7.8338 " transform="matrix(5.349622, 0, 0, -5.295898, 151.303353, 115.524716)"/>
<path fill-rule="nonzero" fill="rgb(80.392157%, 78.431373%, 6.666667%)" fill-opacity="0.3" stroke-width="0.19925" stroke-linecap="butt" stroke-linejoin="miter" stroke="rgb(50.196078%, 50.196078%, 50.196078%)" stroke-opacity="1" stroke-miterlimit="10" d="M -9.110354 9.307269 L 12.604091 -2.40507 L 8.049154 -5.894652 L -13.666021 5.817687 Z M -9.110354 9.307269 " transform="matrix(5.349622, 0, 0, -5.295898, 151.303353, 115.524716)"/>
<path fill-rule="nonzero" fill="rgb(0%, 0%, 0%)" fill-opacity="1" d="M 139.476562 121.558594 C 139.476562 119.40625 139.667969 117.296875 140.0625 115.1875 C 140.4375 113.097656 141.148438 111.195312 142.152344 109.476562 C 143.15625 107.78125 144.535156 106.417969 146.332031 105.421875 C 148.171875 104.429688 150.53125 103.933594 153.4375 103.933594 C 154.042969 103.933594 154.710938 103.976562 155.441406 104.015625 C 156.152344 104.078125 156.738281 104.160156 157.199219 104.265625 L 157.199219 107.492188 C 156.695312 107.328125 156.113281 107.203125 155.441406 107.078125 C 154.816406 106.976562 154.191406 106.914062 153.519531 106.914062 C 151.554688 106.914062 149.925781 107.242188 148.589844 107.90625 C 147.292969 108.566406 146.269531 109.476562 145.496094 110.636719 C 144.765625 111.753906 144.199219 113.035156 143.824219 114.527344 C 143.488281 115.972656 143.28125 117.503906 143.238281 119.160156 L 143.488281 119.160156 C 144.160156 118.167969 145.078125 117.339844 146.25 116.675781 C 147.417969 115.972656 148.882812 115.601562 150.679688 115.601562 C 153.355469 115.601562 155.484375 116.410156 157.113281 118 C 158.722656 119.613281 159.539062 121.871094 159.539062 124.785156 C 159.539062 127.929688 158.640625 130.414062 156.863281 132.234375 C 155.128906 134.011719 152.789062 134.882812 149.84375 134.882812 C 147.878906 134.882812 146.125 134.425781 144.578125 133.476562 C 143.007812 132.480469 141.753906 131.035156 140.816406 129.089844 C 139.917969 127.105469 139.476562 124.601562 139.476562 121.558594 Z M 149.757812 131.738281 C 151.597656 131.738281 153.039062 131.199219 154.105469 130.082031 C 155.214844 128.925781 155.777344 127.164062 155.777344 124.785156 C 155.777344 122.863281 155.277344 121.351562 154.273438 120.234375 C 153.3125 119.078125 151.871094 118.496094 149.925781 118.496094 C 148.589844 118.496094 147.417969 118.789062 146.414062 119.324219 C 145.414062 119.882812 144.617188 120.609375 144.074219 121.476562 C 143.511719 122.304688 143.238281 123.171875 143.238281 124.042969 C 143.238281 125.261719 143.488281 126.484375 143.992188 127.683594 C 144.492188 128.839844 145.203125 129.8125 146.164062 130.578125 C 147.105469 131.363281 148.296875 131.738281 149.757812 131.738281 Z M 137.136719 89.347656 "/>
<path fill-rule="nonzero" fill="rgb(95.686275%, 80%, 12.156863%)" fill-opacity="0.3" stroke-width="0.19925" stroke-linecap="butt" stroke-linejoin="miter" stroke="rgb(50.196078%, 50.196078%, 50.196078%)" stroke-opacity="1" stroke-miterlimit="10" d="M -13.666021 0.388956 L -13.666021 5.817687 L 8.049154 -5.894652 L 8.049154 -11.323382 Z M -13.666021 0.388956 " transform="matrix(5.349622, 0, 0, -5.295898, 151.303353, 115.524716)"/>
<path fill-rule="nonzero" fill="rgb(95.686275%, 80%, 12.156863%)" fill-opacity="0.3" stroke-width="0.19925" stroke-linecap="butt" stroke-linejoin="miter" stroke="rgb(50.196078%, 50.196078%, 50.196078%)" stroke-opacity="1" stroke-miterlimit="10" d="M -13.666021 0.388956 L -13.666021 5.817687 L -18.220958 2.328105 L -18.220958 -3.100626 Z M -13.666021 0.388956 " transform="matrix(5.349622, 0, 0, -5.295898, 151.303353, 115.524716)"/>
<path fill-rule="nonzero" fill="rgb(95.686275%, 80%, 12.156863%)" fill-opacity="0.3" stroke-width="0.19925" stroke-linecap="butt" stroke-linejoin="miter" stroke="rgb(50.196078%, 50.196078%, 50.196078%)" stroke-opacity="1" stroke-miterlimit="10" d="M -13.666021 0.388956 L 8.049154 -11.323382 L 3.493487 -14.812964 L -18.220958 -3.100626 Z M -13.666021 0.388956 " transform="matrix(5.349622, 0, 0, -5.295898, 151.303353, 115.524716)"/>
<path fill-rule="nonzero" fill="rgb(95.686275%, 80%, 12.156863%)" fill-opacity="0.3" stroke-width="0.19925" stroke-linecap="butt" stroke-linejoin="miter" stroke="rgb(50.196078%, 50.196078%, 50.196078%)" stroke-opacity="1" stroke-miterlimit="10" d="M -18.220958 -3.100626 L -18.220958 2.328105 L 3.493487 -9.384234 L 3.493487 -14.812964 Z M -18.220958 -3.100626 " transform="matrix(5.349622, 0, 0, -5.295898, 151.303353, 115.524716)"/>
<path fill-rule="nonzero" fill="rgb(95.686275%, 80%, 12.156863%)" fill-opacity="0.3" stroke-width="0.19925" stroke-linecap="butt" stroke-linejoin="miter" stroke="rgb(50.196078%, 50.196078%, 50.196078%)" stroke-opacity="1" stroke-miterlimit="10" d="M 8.049154 -11.323382 L 8.049154 -5.894652 L 3.493487 -9.384234 L 3.493487 -14.812964 Z M 8.049154 -11.323382 " transform="matrix(5.349622, 0, 0, -5.295898, 151.303353, 115.524716)"/>
<path fill-rule="nonzero" fill="rgb(95.686275%, 80%, 12.156863%)" fill-opacity="0.3" stroke-width="0.19925" stroke-linecap="butt" stroke-linejoin="miter" stroke="rgb(50.196078%, 50.196078%, 50.196078%)" stroke-opacity="1" stroke-miterlimit="10" d="M -13.666021 5.817687 L 8.049154 -5.894652 L 3.493487 -9.384234 L -18.220958 2.328105 Z M -13.666021 5.817687 " transform="matrix(5.349622, 0, 0, -5.295898, 151.303353, 115.524716)"/>
<path fill-rule="nonzero" fill="rgb(0%, 0%, 0%)" fill-opacity="1" d="M 118.539062 152.945312 L 131.074219 126.21875 L 114.609375 126.21875 L 114.609375 122.824219 L 135.089844 122.824219 L 135.089844 125.722656 L 122.71875 152.945312 Z M 112.769531 107.828125 "/>
<path fill-rule="nonzero" fill="rgb(99.215686%, 70.588235%, 31.764706%)" fill-opacity="0.3" stroke-width="0.19925" stroke-linecap="butt" stroke-linejoin="miter" stroke="rgb(50.196078%, 50.196078%, 50.196078%)" stroke-opacity="1" stroke-miterlimit="10" d="M -9.110354 9.307269 L -9.110354 14.735999 L 1.746868 8.879461 L 1.746868 3.450731 Z M -9.110354 9.307269 " transform="matrix(5.349622, 0, 0, -5.295898, 151.303353, 115.524716)"/>
<path fill-rule="nonzero" fill="rgb(99.215686%, 70.588235%, 31.764706%)" fill-opacity="0.3" stroke-width="0.19925" stroke-linecap="butt" stroke-linejoin="miter" stroke="rgb(50.196078%, 50.196078%, 50.196078%)" stroke-opacity="1" stroke-miterlimit="10" d="M -9.110354 9.307269 L -9.110354 14.735999 L -13.666021 11.246417 L -13.666021 5.817687 Z M -9.110354 9.307269 " transform="matrix(5.349622, 0, 0, -5.295898, 151.303353, 115.524716)"/>
<path fill-rule="nonzero" fill="rgb(99.215686%, 70.588235%, 31.764706%)" fill-opacity="0.3" stroke-width="0.19925" stroke-linecap="butt" stroke-linejoin="miter" stroke="rgb(50.196078%, 50.196078%, 50.196078%)" stroke-opacity="1" stroke-miterlimit="10" d="M -9.110354 9.307269 L 1.746868 3.450731 L -2.808799 -0.0388513 L -13.666021 5.817687 Z M -9.110354 9.307269 " transform="matrix(5.349622, 0, 0, -5.295898, 151.303353, 115.524716)"/>
<path fill-rule="nonzero" fill="rgb(99.215686%, 70.588235%, 31.764706%)" fill-opacity="0.3" stroke-width="0.19925" stroke-linecap="butt" stroke-linejoin="miter" stroke="rgb(50.196078%, 50.196078%, 50.196078%)" stroke-opacity="1" stroke-miterlimit="10" d="M -13.666021 5.817687 L -13.666021 11.246417 L -2.808799 5.389879 L -2.808799 -0.0388513 Z M -13.666021 5.817687 " transform="matrix(5.349622, 0, 0, -5.295898, 151.303353, 115.524716)"/>
<path fill-rule="nonzero" fill="rgb(99.215686%, 70.588235%, 31.764706%)" fill-opacity="0.3" stroke-width="0.19925" stroke-linecap="butt" stroke-linejoin="miter" stroke="rgb(50.196078%, 50.196078%, 50.196078%)" stroke-opacity="1" stroke-miterlimit="10" d="M 1.746868 3.450731 L 1.746868 8.879461 L -2.808799 5.389879 L -2.808799 -0.0388513 Z M 1.746868 3.450731 " transform="matrix(5.349622, 0, 0, -5.295898, 151.303353, 115.524716)"/>
<path fill-rule="nonzero" fill="rgb(99.215686%, 70.588235%, 31.764706%)" fill-opacity="0.3" stroke-width="0.19925" stroke-linecap="butt" stroke-linejoin="miter" stroke="rgb(50.196078%, 50.196078%, 50.196078%)" stroke-opacity="1" stroke-miterlimit="10" d="M -9.110354 14.735999 L 1.746868 8.879461 L -2.808799 5.389879 L -13.666021 11.246417 Z M -9.110354 14.735999 " transform="matrix(5.349622, 0, 0, -5.295898, 151.303353, 115.524716)"/>
<path fill-rule="nonzero" fill="rgb(0%, 0%, 0%)" fill-opacity="1" d="M 120.21875 59.675781 C 122.894531 59.675781 125.066406 60.316406 126.738281 61.578125 C 128.453125 62.800781 129.332031 64.558594 129.332031 66.875 C 129.332031 68.097656 129.082031 69.171875 128.578125 70.101562 C 128.078125 70.992188 127.367188 71.796875 126.488281 72.503906 C 125.589844 73.164062 124.609375 73.742188 123.5625 74.238281 C 124.839844 74.859375 125.988281 75.542969 126.992188 76.308594 C 127.992188 77.03125 128.789062 77.878906 129.414062 78.875 C 130.019531 79.867188 130.335938 81.066406 130.335938 82.433594 C 130.335938 84.976562 129.414062 86.984375 127.574219 88.472656 C 125.777344 89.921875 123.394531 90.625 120.386719 90.625 C 117.085938 90.625 114.558594 89.941406 112.78125 88.554688 C 111.046875 87.128906 110.191406 85.121094 110.191406 82.515625 C 110.191406 81.148438 110.460938 79.949219 111.023438 78.957031 C 111.632812 77.921875 112.40625 77.03125 113.367188 76.308594 C 114.367188 75.605469 115.394531 74.984375 116.457031 74.488281 C 114.996094 73.621094 113.742188 72.585938 112.695312 71.425781 C 111.695312 70.226562 111.191406 68.675781 111.191406 66.792969 C 111.191406 65.261719 111.570312 63.957031 112.363281 62.902344 C 113.136719 61.867188 114.203125 61.0625 115.539062 60.503906 C 116.917969 59.964844 118.484375 59.675781 120.21875 59.675781 Z M 120.21875 62.65625 C 118.652344 62.65625 117.378906 63.046875 116.375 63.8125 C 115.371094 64.539062 114.871094 65.613281 114.871094 67.039062 C 114.871094 68.035156 115.078125 68.902344 115.539062 69.605469 C 116.039062 70.328125 116.710938 70.929688 117.546875 71.425781 C 118.421875 71.921875 119.382812 72.398438 120.386719 72.832031 C 121.890625 72.234375 123.144531 71.488281 124.148438 70.597656 C 125.152344 69.730469 125.652344 68.53125 125.652344 67.039062 C 125.652344 65.613281 125.152344 64.539062 124.148438 63.8125 C 123.144531 63.046875 121.828125 62.65625 120.21875 62.65625 Z M 113.867188 82.597656 C 113.867188 84.046875 114.390625 85.246094 115.457031 86.238281 C 116.5 87.191406 118.128906 87.644531 120.304688 87.644531 C 122.351562 87.644531 123.917969 87.191406 124.984375 86.238281 C 126.09375 85.246094 126.65625 83.984375 126.65625 82.433594 C 126.65625 81.003906 126.070312 79.785156 124.902344 78.792969 C 123.773438 77.796875 122.246094 76.949219 120.304688 76.226562 L 119.636719 75.976562 C 117.734375 76.765625 116.292969 77.675781 115.289062 78.707031 C 114.328125 79.761719 113.867188 81.066406 113.867188 82.597656 Z M 108.101562 45.089844 "/>
<path fill-rule="nonzero" fill="rgb(99.607843%, 60%, 44.705882%)" fill-opacity="0.3" stroke-width="0.19925" stroke-linecap="butt" stroke-linejoin="miter" stroke="rgb(50.196078%, 50.196078%, 50.196078%)" stroke-opacity="1" stroke-miterlimit="10" d="M 1.746868 3.450731 L 1.746868 6.165096 L 12.604091 0.309296 L 12.604091 -2.40507 Z M 1.746868 3.450731 " transform="matrix(5.349622, 0, 0, -5.295898, 151.303353, 115.524716)"/>
<path fill-rule="nonzero" fill="rgb(99.607843%, 60%, 44.705882%)" fill-opacity="0.3" stroke-width="0.19925" stroke-linecap="butt" stroke-linejoin="miter" stroke="rgb(50.196078%, 50.196078%, 50.196078%)" stroke-opacity="1" stroke-miterlimit="10" d="M 1.746868 3.450731 L 1.746868 6.165096 L -0.5306 4.420674 L -0.5306 1.706308 Z M 1.746868 3.450731 " transform="matrix(5.349622, 0, 0, -5.295898, 151.303353, 115.524716)"/>
<path fill-rule="nonzero" fill="rgb(99.607843%, 60%, 44.705882%)" fill-opacity="0.3" stroke-width="0.19925" stroke-linecap="butt" stroke-linejoin="miter" stroke="rgb(50.196078%, 50.196078%, 50.196078%)" stroke-opacity="1" stroke-miterlimit="10" d="M 1.746868 3.450731 L 12.604091 -2.40507 L 10.326622 -4.150229 L -0.5306 1.706308 Z M 1.746868 3.450731 " transform="matrix(5.349622, 0, 0, -5.295898, 151.303353, 115.524716)"/>
<path fill-rule="nonzero" fill="rgb(99.607843%, 60%, 44.705882%)" fill-opacity="0.3" stroke-width="0.19925" stroke-linecap="butt" stroke-linejoin="miter" stroke="rgb(50.196078%, 50.196078%, 50.196078%)" stroke-opacity="1" stroke-miterlimit="10" d="M -0.5306 1.706308 L -0.5306 4.420674 L 10.326622 -1.435864 L 10.326622 -4.150229 Z M -0.5306 1.706308 " transform="matrix(5.349622, 0, 0, -5.295898, 151.303353, 115.524716)"/>
<path fill-rule="nonzero" fill="rgb(99.607843%, 60%, 44.705882%)" fill-opacity="0.3" stroke-width="0.19925" stroke-linecap="butt" stroke-linejoin="miter" stroke="rgb(50.196078%, 50.196078%, 50.196078%)" stroke-opacity="1" stroke-miterlimit="10" d="M 12.604091 -2.40507 L 12.604091 0.309296 L 10.326622 -1.435864 L 10.326622 -4.150229 Z M 12.604091 -2.40507 " transform="matrix(5.349622, 0, 0, -5.295898, 151.303353, 115.524716)"/>
<path fill-rule="nonzero" fill="rgb(99.607843%, 60%, 44.705882%)" fill-opacity="0.3" stroke-width="0.19925" stroke-linecap="butt" stroke-linejoin="miter" stroke="rgb(50.196078%, 50.196078%, 50.196078%)" stroke-opacity="1" stroke-miterlimit="10" d="M 1.746868 6.165096 L 12.604091 0.309296 L 10.326622 -1.435864 L -0.5306 4.420674 Z M 1.746868 6.165096 " transform="matrix(5.349622, 0, 0, -5.295898, 151.303353, 115.524716)"/>
<path fill-rule="nonzero" fill="rgb(0%, 0%, 0%)" fill-opacity="1" d="M 188.40625 107.933594 C 188.40625 109.257812 188.261719 110.582031 187.988281 111.90625 C 187.757812 113.230469 187.339844 114.429688 186.734375 115.464844 C 186.109375 116.519531 185.230469 117.367188 184.058594 118.03125 C 182.890625 118.648438 181.40625 118.941406 179.628906 118.941406 C 179.296875 118.941406 178.878906 118.898438 178.375 118.855469 C 177.917969 118.855469 177.5625 118.796875 177.289062 118.691406 L 177.289062 116.707031 C 177.957031 116.933594 178.730469 117.035156 179.628906 117.035156 C 180.84375 117.035156 181.84375 116.851562 182.640625 116.457031 C 183.476562 116.085938 184.101562 115.527344 184.5625 114.800781 C 185.0625 114.097656 185.417969 113.292969 185.648438 112.402344 C 185.859375 111.472656 185.984375 110.480469 185.984375 109.425781 L 185.898438 109.425781 C 185.503906 110.042969 184.917969 110.5625 184.144531 110.996094 C 183.414062 111.453125 182.472656 111.65625 181.300781 111.65625 C 179.671875 111.65625 178.375 111.160156 177.375 110.167969 C 176.371094 109.175781 175.867188 107.769531 175.867188 105.949219 C 175.867188 104.625 176.121094 103.507812 176.621094 102.554688 C 177.121094 101.625 177.8125 100.902344 178.710938 100.402344 C 179.652344 99.867188 180.738281 99.578125 181.972656 99.578125 C 183.140625 99.578125 184.1875 99.886719 185.148438 100.488281 C 186.148438 101.109375 186.921875 102.019531 187.488281 103.21875 C 188.09375 104.4375 188.40625 106.011719 188.40625 107.933594 Z M 181.972656 101.5625 C 180.84375 101.5625 179.921875 101.933594 179.210938 102.636719 C 178.542969 103.363281 178.210938 104.457031 178.210938 105.949219 C 178.210938 107.167969 178.480469 108.140625 179.046875 108.84375 C 179.652344 109.507812 180.570312 109.835938 181.804688 109.835938 C 182.679688 109.835938 183.433594 109.671875 184.058594 109.339844 C 184.667969 108.96875 185.148438 108.511719 185.480469 108.015625 C 185.816406 107.480469 185.984375 106.921875 185.984375 106.363281 C 185.984375 105.597656 185.835938 104.851562 185.566406 104.128906 C 185.273438 103.425781 184.832031 102.804688 184.226562 102.308594 C 183.601562 101.8125 182.847656 101.5625 181.972656 101.5625 Z M 174.53125 90.496094 "/>
<path fill-rule="nonzero" fill="rgb(99.215686%, 48.627451%, 55.294118%)" fill-opacity="0.3" stroke-width="0.19925" stroke-linecap="butt" stroke-linejoin="miter" stroke="rgb(50.196078%, 50.196078%, 50.196078%)" stroke-opacity="1" stroke-miterlimit="10" d="M -0.5306 1.706308 L -0.5306 4.420674 L 10.326622 -1.435864 L 10.326622 -4.150229 Z M -0.5306 1.706308 " transform="matrix(5.349622, 0, 0, -5.295898, 151.303353, 115.524716)"/>
<path fill-rule="nonzero" fill="rgb(99.215686%, 48.627451%, 55.294118%)" fill-opacity="0.3" stroke-width="0.19925" stroke-linecap="butt" stroke-linejoin="miter" stroke="rgb(50.196078%, 50.196078%, 50.196078%)" stroke-opacity="1" stroke-miterlimit="10" d="M -0.5306 1.706308 L -0.5306 4.420674 L -2.808799 2.675514 L -2.808799 -0.0388513 Z M -0.5306 1.706308 " transform="matrix(5.349622, 0, 0, -5.295898, 151.303353, 115.524716)"/>
<path fill-rule="nonzero" fill="rgb(99.215686%, 48.627451%, 55.294118%)" fill-opacity="0.3" stroke-width="0.19925" stroke-linecap="butt" stroke-linejoin="miter" stroke="rgb(50.196078%, 50.196078%, 50.196078%)" stroke-opacity="1" stroke-miterlimit="10" d="M -0.5306 1.706308 L 10.326622 -4.150229 L 8.049154 -5.894652 L -2.808799 -0.0388513 Z M -0.5306 1.706308 " transform="matrix(5.349622, 0, 0, -5.295898, 151.303353, 115.524716)"/>
<path fill-rule="nonzero" fill="rgb(99.215686%, 48.627451%, 55.294118%)" fill-opacity="0.3" stroke-width="0.19925" stroke-linecap="butt" stroke-linejoin="miter" stroke="rgb(50.196078%, 50.196078%, 50.196078%)" stroke-opacity="1" stroke-miterlimit="10" d="M -2.808799 -0.0388513 L -2.808799 2.675514 L 8.049154 -3.180286 L 8.049154 -5.894652 Z M -2.808799 -0.0388513 " transform="matrix(5.349622, 0, 0, -5.295898, 151.303353, 115.524716)"/>
<path fill-rule="nonzero" fill="rgb(99.215686%, 48.627451%, 55.294118%)" fill-opacity="0.3" stroke-width="0.19925" stroke-linecap="butt" stroke-linejoin="miter" stroke="rgb(50.196078%, 50.196078%, 50.196078%)" stroke-opacity="1" stroke-miterlimit="10" d="M 10.326622 -4.150229 L 10.326622 -1.435864 L 8.049154 -3.180286 L 8.049154 -5.894652 Z M 10.326622 -4.150229 " transform="matrix(5.349622, 0, 0, -5.295898, 151.303353, 115.524716)"/>
<path fill-rule="nonzero" fill="rgb(99.215686%, 48.627451%, 55.294118%)" fill-opacity="0.3" stroke-width="0.19925" stroke-linecap="butt" stroke-linejoin="miter" stroke="rgb(50.196078%, 50.196078%, 50.196078%)" stroke-opacity="1" stroke-miterlimit="10" d="M -0.5306 4.420674 L 10.326622 -1.435864 L 8.049154 -3.180286 L -2.808799 2.675514 Z M -0.5306 4.420674 " transform="matrix(5.349622, 0, 0, -5.295898, 151.303353, 115.524716)"/>
<path fill-rule="nonzero" fill="rgb(0%, 0%, 0%)" fill-opacity="1" d="M 162.722656 127.933594 L 160.464844 127.933594 L 160.464844 114.777344 C 160.464844 114.011719 160.464844 113.410156 160.464844 112.957031 C 160.464844 112.519531 160.488281 112.046875 160.550781 111.546875 C 160.257812 111.839844 160.007812 112.085938 159.796875 112.292969 C 159.566406 112.460938 159.253906 112.6875 158.878906 112.957031 L 156.871094 114.609375 L 155.617188 113.039062 L 160.800781 109.066406 L 162.722656 109.066406 Z M 182.492188 118.5 C 182.492188 120.484375 182.261719 122.222656 181.824219 123.710938 C 181.425781 125.160156 180.757812 126.257812 179.816406 127.023438 C 178.855469 127.808594 177.644531 128.179688 176.136719 128.179688 C 173.964844 128.179688 172.378906 127.332031 171.375 125.617188 C 170.371094 123.917969 169.871094 121.539062 169.871094 118.5 C 169.871094 116.472656 170.058594 114.734375 170.453125 113.285156 C 170.894531 111.796875 171.5625 110.699219 172.460938 109.976562 C 173.402344 109.210938 174.632812 108.816406 176.136719 108.816406 C 178.25 108.816406 179.835938 109.6875 180.902344 111.382812 C 181.949219 113.039062 182.492188 115.417969 182.492188 118.5 Z M 172.210938 118.5 C 172.210938 121.105469 172.480469 123.03125 173.046875 124.292969 C 173.652344 125.574219 174.675781 126.195312 176.136719 126.195312 C 177.519531 126.195312 178.519531 125.574219 179.148438 124.292969 C 179.753906 123.03125 180.066406 121.105469 180.066406 118.5 C 180.066406 115.914062 179.753906 113.988281 179.148438 112.707031 C 178.519531 111.445312 177.519531 110.804688 176.136719 110.804688 C 174.675781 110.804688 173.652344 111.445312 173.046875 112.707031 C 172.480469 113.988281 172.210938 115.914062 172.210938 118.5 Z M 153.277344 99.738281 "/>
<path fill-rule="nonzero" fill="rgb(98.039216%, 34.117647%, 65.490196%)" fill-opacity="0.3" stroke-width="0.19925" stroke-linecap="butt" stroke-linejoin="miter" stroke="rgb(50.196078%, 50.196078%, 50.196078%)" stroke-opacity="1" stroke-miterlimit="10" d="M 1.746868 6.165096 L 1.746868 8.879461 L 12.604091 3.023661 L 12.604091 0.309296 Z M 1.746868 6.165096 " transform="matrix(5.349622, 0, 0, -5.295898, 151.303353, 115.524716)"/>
<path fill-rule="nonzero" fill="rgb(98.039216%, 34.117647%, 65.490196%)" fill-opacity="0.3" stroke-width="0.19925" stroke-linecap="butt" stroke-linejoin="miter" stroke="rgb(50.196078%, 50.196078%, 50.196078%)" stroke-opacity="1" stroke-miterlimit="10" d="M 1.746868 6.165096 L 1.746868 8.879461 L -0.5306 7.135039 L -0.5306 4.420674 Z M 1.746868 6.165096 " transform="matrix(5.349622, 0, 0, -5.295898, 151.303353, 115.524716)"/>
<path fill-rule="nonzero" fill="rgb(98.039216%, 34.117647%, 65.490196%)" fill-opacity="0.3" stroke-width="0.19925" stroke-linecap="butt" stroke-linejoin="miter" stroke="rgb(50.196078%, 50.196078%, 50.196078%)" stroke-opacity="1" stroke-miterlimit="10" d="M 1.746868 6.165096 L 12.604091 0.309296 L 10.326622 -1.435864 L -0.5306 4.420674 Z M 1.746868 6.165096 " transform="matrix(5.349622, 0, 0, -5.295898, 151.303353, 115.524716)"/>
<path fill-rule="nonzero" fill="rgb(98.039216%, 34.117647%, 65.490196%)" fill-opacity="0.3" stroke-width="0.19925" stroke-linecap="butt" stroke-linejoin="miter" stroke="rgb(50.196078%, 50.196078%, 50.196078%)" stroke-opacity="1" stroke-miterlimit="10" d="M -0.5306 4.420674 L -0.5306 7.135039 L 10.326622 1.278501 L 10.326622 -1.435864 Z M -0.5306 4.420674 " transform="matrix(5.349622, 0, 0, -5.295898, 151.303353, 115.524716)"/>
<path fill-rule="nonzero" fill="rgb(98.039216%, 34.117647%, 65.490196%)" fill-opacity="0.3" stroke-width="0.19925" stroke-linecap="butt" stroke-linejoin="miter" stroke="rgb(50.196078%, 50.196078%, 50.196078%)" stroke-opacity="1" stroke-miterlimit="10" d="M 12.604091 0.309296 L 12.604091 3.023661 L 10.326622 1.278501 L 10.326622 -1.435864 Z M 12.604091 0.309296 " transform="matrix(5.349622, 0, 0, -5.295898, 151.303353, 115.524716)"/>
<path fill-rule="nonzero" fill="rgb(98.039216%, 34.117647%, 65.490196%)" fill-opacity="0.3" stroke-width="0.19925" stroke-linecap="butt" stroke-linejoin="miter" stroke="rgb(50.196078%, 50.196078%, 50.196078%)" stroke-opacity="1" stroke-miterlimit="10" d="M 1.746868 8.879461 L 12.604091 3.023661 L 10.326622 1.278501 L -0.5306 7.135039 Z M 1.746868 8.879461 " transform="matrix(5.349622, 0, 0, -5.295898, 151.303353, 115.524716)"/>
<path fill-rule="nonzero" fill="rgb(0%, 0%, 0%)" fill-opacity="1" d="M 174.910156 104.320312 L 172.652344 104.320312 L 172.652344 91.160156 C 172.652344 90.394531 172.652344 89.796875 172.652344 89.339844 C 172.652344 88.90625 172.671875 88.429688 172.734375 87.933594 C 172.445312 88.222656 172.191406 88.472656 171.984375 88.679688 C 171.753906 88.84375 171.441406 89.070312 171.0625 89.339844 L 169.058594 90.996094 L 167.804688 89.425781 L 172.988281 85.453125 L 174.910156 85.453125 Z M 190.164062 104.320312 L 187.90625 104.320312 L 187.90625 91.160156 C 187.90625 90.394531 187.90625 89.796875 187.90625 89.339844 C 187.90625 88.90625 187.929688 88.429688 187.992188 87.933594 C 187.699219 88.222656 187.449219 88.472656 187.238281 88.679688 C 187.007812 88.84375 186.695312 89.070312 186.320312 89.339844 L 184.3125 90.996094 L 183.058594 89.425781 L 188.242188 85.453125 L 190.164062 85.453125 Z M 165.464844 76.121094 "/>
<path fill-rule="nonzero" fill="rgb(95.294118%, 23.137255%, 52.156863%)" fill-opacity="0.3" stroke-width="0.19925" stroke-linecap="butt" stroke-linejoin="miter" stroke="rgb(50.196078%, 50.196078%, 50.196078%)" stroke-opacity="1" stroke-miterlimit="10" d="M -0.5306 4.420674 L -0.5306 7.135039 L 10.326622 1.278501 L 10.326622 -1.435864 Z M -0.5306 4.420674 " transform="matrix(5.349622, 0, 0, -5.295898, 151.303353, 115.524716)"/>
<path fill-rule="nonzero" fill="rgb(95.294118%, 23.137255%, 52.156863%)" fill-opacity="0.3" stroke-width="0.19925" stroke-linecap="butt" stroke-linejoin="miter" stroke="rgb(50.196078%, 50.196078%, 50.196078%)" stroke-opacity="1" stroke-miterlimit="10" d="M -0.5306 4.420674 L -0.5306 7.135039 L -2.808799 5.389879 L -2.808799 2.675514 Z M -0.5306 4.420674 " transform="matrix(5.349622, 0, 0, -5.295898, 151.303353, 115.524716)"/>
<path fill-rule="nonzero" fill="rgb(95.294118%, 23.137255%, 52.156863%)" fill-opacity="0.3" stroke-width="0.19925" stroke-linecap="butt" stroke-linejoin="miter" stroke="rgb(50.196078%, 50.196078%, 50.196078%)" stroke-opacity="1" stroke-miterlimit="10" d="M -0.5306 4.420674 L 10.326622 -1.435864 L 8.049154 -3.180286 L -2.808799 2.675514 Z M -0.5306 4.420674 " transform="matrix(5.349622, 0, 0, -5.295898, 151.303353, 115.524716)"/>
<path fill-rule="nonzero" fill="rgb(95.294118%, 23.137255%, 52.156863%)" fill-opacity="0.3" stroke-width="0.19925" stroke-linecap="butt" stroke-linejoin="miter" stroke="rgb(50.196078%, 50.196078%, 50.196078%)" stroke-opacity="1" stroke-miterlimit="10" d="M -2.808799 2.675514 L -2.808799 5.389879 L 8.049154 -0.465921 L 8.049154 -3.180286 Z M -2.808799 2.675514 " transform="matrix(5.349622, 0, 0, -5.295898, 151.303353, 115.524716)"/>
<path fill-rule="nonzero" fill="rgb(95.294118%, 23.137255%, 52.156863%)" fill-opacity="0.3" stroke-width="0.19925" stroke-linecap="butt" stroke-linejoin="miter" stroke="rgb(50.196078%, 50.196078%, 50.196078%)" stroke-opacity="1" stroke-miterlimit="10" d="M 10.326622 -1.435864 L 10.326622 1.278501 L 8.049154 -0.465921 L 8.049154 -3.180286 Z M 10.326622 -1.435864 " transform="matrix(5.349622, 0, 0, -5.295898, 151.303353, 115.524716)"/>
<path fill-rule="nonzero" fill="rgb(95.294118%, 23.137255%, 52.156863%)" fill-opacity="0.3" stroke-width="0.19925" stroke-linecap="butt" stroke-linejoin="miter" stroke="rgb(50.196078%, 50.196078%, 50.196078%)" stroke-opacity="1" stroke-miterlimit="10" d="M -0.5306 7.135039 L 10.326622 1.278501 L 8.049154 -0.465921 L -2.808799 5.389879 Z M -0.5306 7.135039 " transform="matrix(5.349622, 0, 0, -5.295898, 151.303353, 115.524716)"/>
<path fill-rule="nonzero" fill="rgb(0%, 0%, 0%)" fill-opacity="1" d="M 162.722656 113.554688 L 160.464844 113.554688 L 160.464844 100.398438 C 160.464844 99.632812 160.464844 99.03125 160.464844 98.578125 C 160.464844 98.144531 160.488281 97.667969 160.550781 97.171875 C 160.257812 97.460938 160.007812 97.707031 159.796875 97.914062 C 159.566406 98.082031 159.253906 98.308594 158.878906 98.578125 L 156.871094 100.230469 L 155.617188 98.660156 L 160.800781 94.6875 L 162.722656 94.6875 Z M 182.40625 113.554688 L 169.785156 113.554688 L 169.785156 111.652344 L 174.800781 106.605469 C 175.742188 105.671875 176.554688 104.84375 177.226562 104.121094 C 177.894531 103.355469 178.394531 102.632812 178.730469 101.96875 C 179.0625 101.265625 179.230469 100.460938 179.230469 99.570312 C 179.230469 98.535156 178.917969 97.75 178.3125 97.253906 C 177.683594 96.714844 176.890625 96.425781 175.886719 96.425781 C 174.925781 96.425781 174.089844 96.589844 173.378906 96.921875 C 172.710938 97.210938 172 97.644531 171.289062 98.246094 L 170.035156 96.675781 C 170.746094 96.074219 171.582031 95.558594 172.542969 95.101562 C 173.546875 94.667969 174.65625 94.441406 175.886719 94.441406 C 177.664062 94.441406 179.0625 94.894531 180.066406 95.765625 C 181.113281 96.652344 181.65625 97.894531 181.65625 99.488281 C 181.65625 100.480469 181.425781 101.433594 180.988281 102.300781 C 180.589844 103.128906 180.027344 103.957031 179.316406 104.785156 C 178.582031 105.609375 177.726562 106.5 176.722656 107.429688 L 172.796875 111.320312 L 172.796875 111.402344 L 182.40625 111.402344 Z M 153.277344 85.359375 "/>
<path fill-rule="nonzero" fill="rgb(90.588235%, 14.509804%, 28.235294%)" fill-opacity="0.3" stroke-width="0.19925" stroke-linecap="butt" stroke-linejoin="miter" stroke="rgb(50.196078%, 50.196078%, 50.196078%)" stroke-opacity="1" stroke-miterlimit="10" d="M -13.666021 5.817687 L -13.666021 11.246417 L 8.049154 -0.465921 L 8.049154 -5.894652 Z M -13.666021 5.817687 " transform="matrix(5.349622, 0, 0, -5.295898, 151.303353, 115.524716)"/>
<path fill-rule="nonzero" fill="rgb(90.588235%, 14.509804%, 28.235294%)" fill-opacity="0.3" stroke-width="0.19925" stroke-linecap="butt" stroke-linejoin="miter" stroke="rgb(50.196078%, 50.196078%, 50.196078%)" stroke-opacity="1" stroke-miterlimit="10" d="M -13.666021 5.817687 L -13.666021 11.246417 L -18.220958 7.756835 L -18.220958 2.328105 Z M -13.666021 5.817687 " transform="matrix(5.349622, 0, 0, -5.295898, 151.303353, 115.524716)"/>
<path fill-rule="nonzero" fill="rgb(90.588235%, 14.509804%, 28.235294%)" fill-opacity="0.3" stroke-width="0.19925" stroke-linecap="butt" stroke-linejoin="miter" stroke="rgb(50.196078%, 50.196078%, 50.196078%)" stroke-opacity="1" stroke-miterlimit="10" d="M -13.666021 5.817687 L 8.049154 -5.894652 L 3.493487 -9.384234 L -18.220958 2.328105 Z M -13.666021 5.817687 " transform="matrix(5.349622, 0, 0, -5.295898, 151.303353, 115.524716)"/>
<path fill-rule="nonzero" fill="rgb(90.588235%, 14.509804%, 28.235294%)" fill-opacity="0.3" stroke-width="0.19925" stroke-linecap="butt" stroke-linejoin="miter" stroke="rgb(50.196078%, 50.196078%, 50.196078%)" stroke-opacity="1" stroke-miterlimit="10" d="M -18.220958 2.328105 L -18.220958 7.756835 L 3.493487 -3.955503 L 3.493487 -9.384234 Z M -18.220958 2.328105 " transform="matrix(5.349622, 0, 0, -5.295898, 151.303353, 115.524716)"/>
<path fill-rule="nonzero" fill="rgb(90.588235%, 14.509804%, 28.235294%)" fill-opacity="0.3" stroke-width="0.19925" stroke-linecap="butt" stroke-linejoin="miter" stroke="rgb(50.196078%, 50.196078%, 50.196078%)" stroke-opacity="1" stroke-miterlimit="10" d="M 8.049154 -5.894652 L 8.049154 -0.465921 L 3.493487 -3.955503 L 3.493487 -9.384234 Z M 8.049154 -5.894652 " transform="matrix(5.349622, 0, 0, -5.295898, 151.303353, 115.524716)"/>
<path fill-rule="nonzero" fill="rgb(90.588235%, 14.509804%, 28.235294%)" fill-opacity="0.3" stroke-width="0.19925" stroke-linecap="butt" stroke-linejoin="miter" stroke="rgb(50.196078%, 50.196078%, 50.196078%)" stroke-opacity="1" stroke-miterlimit="10" d="M -13.666021 11.246417 L 8.049154 -0.465921 L 3.493487 -3.955503 L -18.220958 7.756835 Z M -13.666021 11.246417 " transform="matrix(5.349622, 0, 0, -5.295898, 151.303353, 115.524716)"/>
<path fill-rule="nonzero" fill="rgb(0%, 0%, 0%)" fill-opacity="1" d="M 116.574219 124.199219 L 112.894531 124.199219 L 112.894531 103.179688 C 112.894531 101.980469 112.894531 101.007812 112.894531 100.285156 C 112.9375 99.519531 113 98.753906 113.0625 97.96875 C 112.605469 98.421875 112.1875 98.796875 111.808594 99.125 C 111.476562 99.417969 111.015625 99.789062 110.472656 100.285156 L 107.210938 102.851562 L 105.207031 100.367188 L 113.480469 94.078125 L 116.574219 94.078125 Z M 146.8125 101.113281 C 146.8125 103.160156 146.246094 104.792969 145.140625 105.996094 C 144.011719 107.152344 142.488281 107.9375 140.542969 108.3125 L 140.542969 108.476562 C 142.988281 108.765625 144.804688 109.53125 145.976562 110.792969 C 147.1875 112.015625 147.816406 113.609375 147.816406 115.59375 C 147.816406 117.371094 147.398438 118.945312 146.5625 120.308594 C 145.726562 121.695312 144.429688 122.773438 142.714844 123.539062 C 140.980469 124.242188 138.789062 124.613281 136.113281 124.613281 C 134.484375 124.613281 132.976562 124.46875 131.597656 124.199219 C 130.261719 123.992188 128.964844 123.578125 127.753906 122.957031 L 127.753906 119.484375 C 129.027344 120.144531 130.386719 120.640625 131.851562 120.972656 C 133.355469 121.304688 134.777344 121.46875 136.113281 121.46875 C 138.828125 121.46875 140.816406 120.953125 142.046875 119.894531 C 143.257812 118.863281 143.886719 117.394531 143.886719 115.511719 C 143.886719 113.648438 143.132812 112.285156 141.628906 111.457031 C 140.125 110.628906 138.035156 110.214844 135.359375 110.214844 L 132.433594 110.214844 L 132.433594 107.070312 L 135.359375 107.070312 C 137.867188 107.070312 139.75 106.554688 141.042969 105.5 C 142.382812 104.464844 143.050781 103.078125 143.050781 101.359375 C 143.050781 99.933594 142.550781 98.835938 141.546875 98.050781 C 140.542969 97.222656 139.164062 96.808594 137.449219 96.808594 C 135.820312 96.808594 134.441406 97.058594 133.269531 97.554688 C 132.101562 98.007812 130.929688 98.589844 129.761719 99.292969 L 127.921875 96.808594 C 128.964844 95.941406 130.304688 95.195312 131.933594 94.574219 C 133.542969 93.976562 135.382812 93.664062 137.449219 93.664062 C 140.625 93.664062 142.96875 94.390625 144.472656 95.816406 C 146.019531 97.203125 146.8125 98.960938 146.8125 101.113281 Z M 101.445312 79.082031 "/>
</svg>
