<?xml version="1.0" encoding="UTF-8" standalone="no"?>
<!-- Created with Inkscape (http://www.inkscape.org/) -->

<svg
   version="1.1"
   id="svg1"
   width="66.795998"
   height="63.445332"
   viewBox="0 0 66.795998 63.445332"
   xmlns="http://www.w3.org/2000/svg"
   xmlns:svg="http://www.w3.org/2000/svg">
  <defs
     id="defs1" />
  <g
     id="g1">
    <path
       id="path1"
       d="M 0,0 V 10.85733 L 21.71469,-0.8549 v -10.85735 z"
       style="fill:#440154;fill-opacity:0.3;fill-rule:nonzero;stroke:#808080;stroke-width:0.19925;stroke-linecap:butt;stroke-linejoin:miter;stroke-miterlimit:10;stroke-dasharray:none;stroke-opacity:1"
       transform="matrix(1.3333333,0,0,-1.3333333,37.710667,29.085333)" />
    <path
       id="path2"
       d="M 0,0 V 10.85733 L -9.11053,3.87834 V -6.97899 Z"
       style="fill:#440154;fill-opacity:0.3;fill-rule:nonzero;stroke:#808080;stroke-width:0.19925;stroke-linecap:butt;stroke-linejoin:miter;stroke-miterlimit:10;stroke-dasharray:none;stroke-opacity:1"
       transform="matrix(1.3333333,0,0,-1.3333333,37.710667,29.085333)" />
    <path
       id="path3"
       d="m 0,0 21.71469,-11.71225 -9.11053,-6.979 -21.71469,11.71226 z"
       style="fill:#440154;fill-opacity:0.3;fill-rule:nonzero;stroke:#808080;stroke-width:0.19925;stroke-linecap:butt;stroke-linejoin:miter;stroke-miterlimit:10;stroke-dasharray:none;stroke-opacity:1"
       transform="matrix(1.3333333,0,0,-1.3333333,37.710667,29.085333)" />
    <path
       id="path4"
       d="M -9.11053,-6.97899 V 3.87834 L 12.60416,-7.83391 v -10.85734 z"
       style="fill:#440154;fill-opacity:0.3;fill-rule:nonzero;stroke:#808080;stroke-width:0.19925;stroke-linecap:butt;stroke-linejoin:miter;stroke-miterlimit:10;stroke-dasharray:none;stroke-opacity:1"
       transform="matrix(1.3333333,0,0,-1.3333333,37.710667,29.085333)" />
    <path
       id="path5"
       d="M 21.71469,-11.71225 V -0.8549 l -9.11053,-6.97901 v -10.85734 z"
       style="fill:#440154;fill-opacity:0.3;fill-rule:nonzero;stroke:#808080;stroke-width:0.19925;stroke-linecap:butt;stroke-linejoin:miter;stroke-miterlimit:10;stroke-dasharray:none;stroke-opacity:1"
       transform="matrix(1.3333333,0,0,-1.3333333,37.710667,29.085333)" />
    <path
       id="path6"
       d="M 0,10.85733 21.71469,-0.8549 12.60416,-7.83391 -9.11053,3.87834 Z"
       style="fill:#440154;fill-opacity:0.3;fill-rule:nonzero;stroke:#808080;stroke-width:0.19925;stroke-linecap:butt;stroke-linejoin:miter;stroke-miterlimit:10;stroke-dasharray:none;stroke-opacity:1"
       transform="matrix(1.3333333,0,0,-1.3333333,37.710667,29.085333)" />
    <path
       id="path7"
       d="m 4.5827578,-3.1861172 c 0,-0.796875 -0.046875,-1.59375 -0.3984375,-2.3320312 -0.4570312,-0.9609375 -1.2773437,-1.1132813 -1.6875,-1.1132813 -0.5976562,0 -1.3359375,0.2578125 -1.73437499,1.1835938 -0.328125,0.6914062 -0.375,1.4648437 -0.375,2.2617187 0,0.75 0.046875,1.640625 0.4453125,2.40234376 0.43359379,0.80859375 1.16015629,1.0078125 1.65234379,1.0078125 0.5390625,0 1.2890625,-0.2109375 1.734375,-1.16015625 C 4.5358828,-1.6275234 4.5827578,-2.4009609 4.5827578,-3.1861172 Z M 2.4851016,0.00138281 c -0.3867188,0 -0.984375,-0.24609375 -1.1601563,-1.20703121 -0.1054687,-0.5976563 -0.1054687,-1.5117188 -0.1054687,-2.0976563 0,-0.6445312 0,-1.3007812 0.082031,-1.8398437 0.1875,-1.1835938 0.9257813,-1.265625 1.1835938,-1.265625 0.328125,0 0.984375,0.1757812 1.171875,1.1601562 0.09375,0.5625 0.09375,1.3125 0.09375,1.9453125 0,0.75 0,1.4179688 -0.1054688,2.0625 -0.1523437,0.93750001 -0.7148437,1.24218751 -1.160156,1.24218751 z m 0,0"
       style="fill:#000000;fill-opacity:1;fill-rule:nonzero;stroke:none"
       aria-label="0"
       transform="matrix(1.3333333,0,0,1.3333333,42.792,38.588)" />
    <path
       id="path8"
       d="m -9.11053,-6.97899 v 5.42867 l 21.71469,-11.71225 v -5.42868 z"
       style="fill:#481a6c;fill-opacity:0.3;fill-rule:nonzero;stroke:#808080;stroke-width:0.19925;stroke-linecap:butt;stroke-linejoin:miter;stroke-miterlimit:10;stroke-dasharray:none;stroke-opacity:1"
       transform="matrix(1.3333333,0,0,-1.3333333,37.710667,29.085333)" />
    <path
       id="path9"
       d="m -9.11053,-6.97899 v 5.42867 l -9.11055,-6.97901 V -13.958 Z"
       style="fill:#481a6c;fill-opacity:0.3;fill-rule:nonzero;stroke:#808080;stroke-width:0.19925;stroke-linecap:butt;stroke-linejoin:miter;stroke-miterlimit:10;stroke-dasharray:none;stroke-opacity:1"
       transform="matrix(1.3333333,0,0,-1.3333333,37.710667,29.085333)" />
    <path
       id="path10"
       d="M -9.11053,-6.97899 12.60416,-18.69125 3.4936,-25.67026 -18.22108,-13.958 Z"
       style="fill:#481a6c;fill-opacity:0.3;fill-rule:nonzero;stroke:#808080;stroke-width:0.19925;stroke-linecap:butt;stroke-linejoin:miter;stroke-miterlimit:10;stroke-dasharray:none;stroke-opacity:1"
       transform="matrix(1.3333333,0,0,-1.3333333,37.710667,29.085333)" />
    <path
       id="path11"
       d="m -18.22108,-13.958 v 5.42867 L 3.4936,-20.24158 v -5.42868 z"
       style="fill:#481a6c;fill-opacity:0.3;fill-rule:nonzero;stroke:#808080;stroke-width:0.19925;stroke-linecap:butt;stroke-linejoin:miter;stroke-miterlimit:10;stroke-dasharray:none;stroke-opacity:1"
       transform="matrix(1.3333333,0,0,-1.3333333,37.710667,29.085333)" />
    <path
       id="path12"
       d="m 12.60416,-18.69125 v 5.42868 L 3.4936,-20.24158 v -5.42868 z"
       style="fill:#481a6c;fill-opacity:0.3;fill-rule:nonzero;stroke:#808080;stroke-width:0.19925;stroke-linecap:butt;stroke-linejoin:miter;stroke-miterlimit:10;stroke-dasharray:none;stroke-opacity:1"
       transform="matrix(1.3333333,0,0,-1.3333333,37.710667,29.085333)" />
    <path
       id="path13"
       d="M -9.11053,-1.55032 12.60416,-13.26257 3.4936,-20.24158 -18.22108,-8.52933 Z"
       style="fill:#481a6c;fill-opacity:0.3;fill-rule:nonzero;stroke:#808080;stroke-width:0.19925;stroke-linecap:butt;stroke-linejoin:miter;stroke-miterlimit:10;stroke-dasharray:none;stroke-opacity:1"
       transform="matrix(1.3333333,0,0,-1.3333333,37.710667,29.085333)" />
    <path
       id="path14"
       d="m 2.5082109,-5.0750312 c 0,-0.2226563 -0.023437,-0.2226563 -0.234375,-0.2226563 -0.328125,0.3164063 -0.75,0.5039063 -1.51171871,0.5039063 V -4.52425 c 0.22265625,0 0.64453121,0 1.11328121,-0.2226562 v 4.0898437 c 0,0.29296875 -0.023437,0.3984375 -0.7851562,0.3984375 H 0.80899219 V -8.125e-4 C 1.1371172,-0.02425 1.8285234,-0.02425 2.1800859,-0.02425 c 0.3632813,0 1.0546875,0 1.3828125,0.0234375 V -0.258625 h -0.28125 c -0.75,0 -0.7734375,-0.10546875 -0.7734375,-0.3984375 z m 0,0"
       style="fill:#000000;fill-opacity:1;fill-rule:nonzero;stroke:none"
       aria-label="1"
       transform="matrix(1.3333333,0,0,1.3333333,31.144,50.657333)" />
    <path
       id="path15"
       d="M -9.11053,-1.55032 V 3.87834 L 12.60416,-7.83391 v -5.42866 z"
       style="fill:#46317e;fill-opacity:0.3;fill-rule:nonzero;stroke:#808080;stroke-width:0.19925;stroke-linecap:butt;stroke-linejoin:miter;stroke-miterlimit:10;stroke-dasharray:none;stroke-opacity:1"
       transform="matrix(1.3333333,0,0,-1.3333333,37.710667,29.085333)" />
    <path
       id="path16"
       d="m -9.11053,-1.55032 v 5.42866 l -9.11055,-6.97899 v -5.42868 z"
       style="fill:#46317e;fill-opacity:0.3;fill-rule:nonzero;stroke:#808080;stroke-width:0.19925;stroke-linecap:butt;stroke-linejoin:miter;stroke-miterlimit:10;stroke-dasharray:none;stroke-opacity:1"
       transform="matrix(1.3333333,0,0,-1.3333333,37.710667,29.085333)" />
    <path
       id="path17"
       d="M -9.11053,-1.55032 12.60416,-13.26257 3.4936,-20.24158 -18.22108,-8.52933 Z"
       style="fill:#46317e;fill-opacity:0.3;fill-rule:nonzero;stroke:#808080;stroke-width:0.19925;stroke-linecap:butt;stroke-linejoin:miter;stroke-miterlimit:10;stroke-dasharray:none;stroke-opacity:1"
       transform="matrix(1.3333333,0,0,-1.3333333,37.710667,29.085333)" />
    <path
       id="path18"
       d="m -18.22108,-8.52933 v 5.42868 L 3.4936,-14.81291 v -5.42867 z"
       style="fill:#46317e;fill-opacity:0.3;fill-rule:nonzero;stroke:#808080;stroke-width:0.19925;stroke-linecap:butt;stroke-linejoin:miter;stroke-miterlimit:10;stroke-dasharray:none;stroke-opacity:1"
       transform="matrix(1.3333333,0,0,-1.3333333,37.710667,29.085333)" />
    <path
       id="path19"
       d="m 12.60416,-13.26257 v 5.42866 l -9.11056,-6.979 v -5.42867 z"
       style="fill:#46317e;fill-opacity:0.3;fill-rule:nonzero;stroke:#808080;stroke-width:0.19925;stroke-linecap:butt;stroke-linejoin:miter;stroke-miterlimit:10;stroke-dasharray:none;stroke-opacity:1"
       transform="matrix(1.3333333,0,0,-1.3333333,37.710667,29.085333)" />
    <path
       id="path20"
       d="M -9.11053,3.87834 12.60416,-7.83391 3.4936,-14.81291 -18.22108,-3.10065 Z"
       style="fill:#46317e;fill-opacity:0.3;fill-rule:nonzero;stroke:#808080;stroke-width:0.19925;stroke-linecap:butt;stroke-linejoin:miter;stroke-miterlimit:10;stroke-dasharray:none;stroke-opacity:1"
       transform="matrix(1.3333333,0,0,-1.3333333,37.710667,29.085333)" />
    <path
       id="path21"
       d="m 2.2503984,-1.6294297 c 0.1289063,-0.1171875 0.4570313,-0.375 0.5859375,-0.4921875 0.4921875,-0.4570312 0.9609375,-0.890625 0.9609375,-1.6171875 0,-0.9492187 -0.796875,-1.5585937 -1.7929687,-1.5585937 -0.9492188,0 -1.58203126,0.7265625 -1.58203126,1.4296875 0,0.3984375 0.31640625,0.4453125 0.421875,0.4453125 0.16406246,0 0.41015626,-0.1171875 0.41015626,-0.421875 0,-0.4101563 -0.39843751,-0.4101563 -0.49218751,-0.4101563 0.234375,-0.5859375 0.77343751,-0.7851562 1.16015621,-0.7851562 0.7382813,0 1.125,0.6328125 1.125,1.3007812 0,0.8320313 -0.5859375,1.4296875 -1.5234375,2.4023438 l -1.00781246,1.03124996 c -0.09375,0.09375 -0.09375,0.10546875 -0.09375,0.3046875025 H 3.5746172 L 3.7972734,-1.4302109 H 3.5511797 c -0.023437,0.1640625 -0.082031,0.56249996 -0.1757813,0.71484371 -0.046875,0.0585938 -0.65625,0.0585938 -0.7851562,0.0585938 H 1.1722734 Z m 0,0"
       style="fill:#000000;fill-opacity:1;fill-rule:nonzero;stroke:none"
       aria-label="2"
       transform="matrix(1.3333333,0,0,1.3333333,31.144,43.418667)" />
    <path
       id="path22"
       d="M 0,10.85733 V 21.71469 L 10.85733,15.85858 V 5.00122 Z"
       style="fill:#3f4788;fill-opacity:0.3;fill-rule:nonzero;stroke:#808080;stroke-width:0.19925;stroke-linecap:butt;stroke-linejoin:miter;stroke-miterlimit:10;stroke-dasharray:none;stroke-opacity:1"
       transform="matrix(1.3333333,0,0,-1.3333333,37.710667,29.085333)" />
    <path
       id="path23"
       d="M 0,10.85733 V 21.71469 L -4.55527,18.2252 V 7.36784 Z"
       style="fill:#3f4788;fill-opacity:0.3;fill-rule:nonzero;stroke:#808080;stroke-width:0.19925;stroke-linecap:butt;stroke-linejoin:miter;stroke-miterlimit:10;stroke-dasharray:none;stroke-opacity:1"
       transform="matrix(1.3333333,0,0,-1.3333333,37.710667,29.085333)" />
    <path
       id="path24"
       d="M 0,10.85733 10.85733,5.00122 6.30206,1.51172 -4.55527,7.36784 Z"
       style="fill:#3f4788;fill-opacity:0.3;fill-rule:nonzero;stroke:#808080;stroke-width:0.19925;stroke-linecap:butt;stroke-linejoin:miter;stroke-miterlimit:10;stroke-dasharray:none;stroke-opacity:1"
       transform="matrix(1.3333333,0,0,-1.3333333,37.710667,29.085333)" />
    <path
       id="path25"
       d="M -4.55527,7.36784 V 18.2252 L 6.30206,12.36908 V 1.51172 Z"
       style="fill:#3f4788;fill-opacity:0.3;fill-rule:nonzero;stroke:#808080;stroke-width:0.19925;stroke-linecap:butt;stroke-linejoin:miter;stroke-miterlimit:10;stroke-dasharray:none;stroke-opacity:1"
       transform="matrix(1.3333333,0,0,-1.3333333,37.710667,29.085333)" />
    <path
       id="path26"
       d="M 10.85733,5.00122 V 15.85858 L 6.30206,12.36908 V 1.51172 Z"
       style="fill:#3f4788;fill-opacity:0.3;fill-rule:nonzero;stroke:#808080;stroke-width:0.19925;stroke-linecap:butt;stroke-linejoin:miter;stroke-miterlimit:10;stroke-dasharray:none;stroke-opacity:1"
       transform="matrix(1.3333333,0,0,-1.3333333,37.710667,29.085333)" />
    <path
       id="path27"
       d="M 0,21.71469 10.85733,15.85858 6.30206,12.36908 -4.55527,18.2252 Z"
       style="fill:#3f4788;fill-opacity:0.3;fill-rule:nonzero;stroke:#808080;stroke-width:0.19925;stroke-linecap:butt;stroke-linejoin:miter;stroke-miterlimit:10;stroke-dasharray:none;stroke-opacity:1"
       transform="matrix(1.3333333,0,0,-1.3333333,37.710667,29.085333)" />
    <path
       id="path28"
       d="m 2.0160078,-2.6596484 c 0.6328125,0 1.03125,0.4570312 1.03125,1.3007812 0,0.99609376 -0.5742187,1.28906251 -0.9960937,1.28906251 -0.4335938,0 -1.03125,-0.1640625 -1.31250004,-0.5859375 0.29296874,0 0.49218754,-0.17578125 0.49218754,-0.44531251 0,-0.2578125 -0.1875,-0.4335937 -0.44531254,-0.4335937 -0.2109375,0 -0.43359375,0.1289062 -0.43359375,0.4570312 0,0.75000001 0.80859379,1.24218751 1.72265629,1.24218751 1.0546875,0 1.7929687,-0.7265625 1.7929687,-1.52343751 0,-0.6679687 -0.515625,-1.265625 -1.3359375,-1.4414062 0.6328125,-0.2226563 1.1015625,-0.7734375 1.1015625,-1.40625 0,-0.6328125 -0.7148437,-1.0898438 -1.546875,-1.0898438 -0.8554687,0 -1.49999999,0.4570313 -1.49999999,1.0664063 0,0.2929687 0.19921875,0.421875 0.41015625,0.421875 0.24609374,0 0.41015624,-0.1757813 0.41015624,-0.4101563 0,-0.2929687 -0.2578125,-0.3984375 -0.43359374,-0.4101562 0.33984374,-0.4335938 0.94921874,-0.46875 1.08984374,-0.46875 0.2109375,0 0.8085938,0.070312 0.8085938,0.890625 0,0.5625 -0.2226563,0.890625 -0.3398438,1.0195312 -0.234375,0.2460938 -0.421875,0.2578125 -0.9023437,0.2929688 -0.1523438,0.011719 -0.2226563,0.023437 -0.2226563,0.1171875 0,0.1171875 0.070312,0.1171875 0.2109375,0.1171875 z m 0,0"
       style="fill:#000000;fill-opacity:1;fill-rule:nonzero;stroke:none"
       aria-label="3"
       transform="matrix(1.3333333,0,0,1.3333333,39.089333,17.026667)" />
    <path
       id="path29"
       d="M -4.55527,7.36784 V 18.2252 L 6.30206,12.36908 V 1.51172 Z"
       style="fill:#365b8c;fill-opacity:0.3;fill-rule:nonzero;stroke:#808080;stroke-width:0.19925;stroke-linecap:butt;stroke-linejoin:miter;stroke-miterlimit:10;stroke-dasharray:none;stroke-opacity:1"
       transform="matrix(1.3333333,0,0,-1.3333333,37.710667,29.085333)" />
    <path
       id="path30"
       d="M -4.55527,7.36784 V 18.2252 L -9.11053,14.7357 V 3.87834 Z"
       style="fill:#365b8c;fill-opacity:0.3;fill-rule:nonzero;stroke:#808080;stroke-width:0.19925;stroke-linecap:butt;stroke-linejoin:miter;stroke-miterlimit:10;stroke-dasharray:none;stroke-opacity:1"
       transform="matrix(1.3333333,0,0,-1.3333333,37.710667,29.085333)" />
    <path
       id="path31"
       d="M -4.55527,7.36784 6.30206,1.51172 1.7468,-1.97777 -9.11053,3.87834 Z"
       style="fill:#365b8c;fill-opacity:0.3;fill-rule:nonzero;stroke:#808080;stroke-width:0.19925;stroke-linecap:butt;stroke-linejoin:miter;stroke-miterlimit:10;stroke-dasharray:none;stroke-opacity:1"
       transform="matrix(1.3333333,0,0,-1.3333333,37.710667,29.085333)" />
    <path
       id="path32"
       d="M -9.11053,3.87834 V 14.7357 L 1.7468,8.87958 V -1.97777 Z"
       style="fill:#365b8c;fill-opacity:0.3;fill-rule:nonzero;stroke:#808080;stroke-width:0.19925;stroke-linecap:butt;stroke-linejoin:miter;stroke-miterlimit:10;stroke-dasharray:none;stroke-opacity:1"
       transform="matrix(1.3333333,0,0,-1.3333333,37.710667,29.085333)" />
    <path
       id="path33"
       d="M 6.30206,1.51172 V 12.36908 L 1.7468,8.87958 V -1.97777 Z"
       style="fill:#365b8c;fill-opacity:0.3;fill-rule:nonzero;stroke:#808080;stroke-width:0.19925;stroke-linecap:butt;stroke-linejoin:miter;stroke-miterlimit:10;stroke-dasharray:none;stroke-opacity:1"
       transform="matrix(1.3333333,0,0,-1.3333333,37.710667,29.085333)" />
    <path
       id="path34"
       d="M -4.55527,18.2252 6.30206,12.36908 1.7468,8.87958 -9.11053,14.7357 Z"
       style="fill:#365b8c;fill-opacity:0.3;fill-rule:nonzero;stroke:#808080;stroke-width:0.19925;stroke-linecap:butt;stroke-linejoin:miter;stroke-miterlimit:10;stroke-dasharray:none;stroke-opacity:1"
       transform="matrix(1.3333333,0,0,-1.3333333,37.710667,29.085333)" />
    <path
       id="path35"
       d="m 3.1403438,-5.1554844 c 0,-0.1640625 0,-0.2226562 -0.1640625,-0.2226562 -0.1054688,0 -0.1171875,0.011719 -0.1992188,0.1171875 l -2.54296875,3.6914062 v 0.2578125 H 2.4840938 v 0.66796878 c 0,0.29296875 -0.023437,0.38671875 -0.6328125,0.38671875 h -0.1875 V 7.65625e-4 C 2.3434688,-0.02267187 2.3551875,-0.02267187 2.8122188,-0.02267187 c 0.4570312,0 0.46875,0 1.1484375,0.023437495 V -0.25704687 h -0.1875 c -0.609375,0 -0.6328125,-0.09375 -0.6328125,-0.38671875 V -1.3117344 h 0.84375 v -0.2578125 h -0.84375 z m -0.5976563,0.6445313 v 2.9414062 H 0.51534375 Z m 0,0"
       style="fill:#000000;fill-opacity:1;fill-rule:nonzero;stroke:none"
       aria-label="4"
       transform="matrix(1.3333333,0,0,1.3333333,33.016,21.678667)" />
    <path
       id="path36"
       d="M 10.85733,5.00122 V 15.85858 L 21.71469,10.00244 V -0.8549 Z"
       style="fill:#2e6d8e;fill-opacity:0.3;fill-rule:nonzero;stroke:#808080;stroke-width:0.19925;stroke-linecap:butt;stroke-linejoin:miter;stroke-miterlimit:10;stroke-dasharray:none;stroke-opacity:1"
       transform="matrix(1.3333333,0,0,-1.3333333,37.710667,29.085333)" />
    <path
       id="path37"
       d="M 10.85733,5.00122 V 15.85858 L 1.7468,8.87958 V -1.97777 Z"
       style="fill:#2e6d8e;fill-opacity:0.3;fill-rule:nonzero;stroke:#808080;stroke-width:0.19925;stroke-linecap:butt;stroke-linejoin:miter;stroke-miterlimit:10;stroke-dasharray:none;stroke-opacity:1"
       transform="matrix(1.3333333,0,0,-1.3333333,37.710667,29.085333)" />
    <path
       id="path38"
       d="M 10.85733,5.00122 21.71469,-0.8549 12.60416,-7.83391 1.7468,-1.97777 Z"
       style="fill:#2e6d8e;fill-opacity:0.3;fill-rule:nonzero;stroke:#808080;stroke-width:0.19925;stroke-linecap:butt;stroke-linejoin:miter;stroke-miterlimit:10;stroke-dasharray:none;stroke-opacity:1"
       transform="matrix(1.3333333,0,0,-1.3333333,37.710667,29.085333)" />
    <path
       id="path39"
       d="M 1.7468,-1.97777 V 8.87958 L 12.60416,3.02344 V -7.83391 Z"
       style="fill:#2e6d8e;fill-opacity:0.3;fill-rule:nonzero;stroke:#808080;stroke-width:0.19925;stroke-linecap:butt;stroke-linejoin:miter;stroke-miterlimit:10;stroke-dasharray:none;stroke-opacity:1"
       transform="matrix(1.3333333,0,0,-1.3333333,37.710667,29.085333)" />
    <path
       id="path40"
       d="m 21.71469,-0.8549 v 10.85734 l -9.11053,-6.979 V -7.83391 Z"
       style="fill:#2e6d8e;fill-opacity:0.3;fill-rule:nonzero;stroke:#808080;stroke-width:0.19925;stroke-linecap:butt;stroke-linejoin:miter;stroke-miterlimit:10;stroke-dasharray:none;stroke-opacity:1"
       transform="matrix(1.3333333,0,0,-1.3333333,37.710667,29.085333)" />
    <path
       id="path41"
       d="M 10.85733,15.85858 21.71469,10.00244 12.60416,3.02344 1.7468,8.87958 Z"
       style="fill:#2e6d8e;fill-opacity:0.3;fill-rule:nonzero;stroke:#808080;stroke-width:0.19925;stroke-linecap:butt;stroke-linejoin:miter;stroke-miterlimit:10;stroke-dasharray:none;stroke-opacity:1"
       transform="matrix(1.3333333,0,0,-1.3333333,37.710667,29.085333)" />
    <path
       id="path42"
       d="m 4.477,-2.0041875 c 0,-1.1835937 -0.8203125,-2.1796875 -1.8984375,-2.1796875 -0.4804687,0 -0.9023437,0.1640625 -1.265625,0.5039063 v -1.9335938 c 0.1992188,0.058594 0.5273438,0.1289063 0.84375,0.1289063 1.2304688,0 1.9335938,-0.9140625 1.9335938,-1.0429688 0,-0.058594 -0.035156,-0.1054687 -0.1054688,-0.1054687 -0.011719,0 -0.035156,0 -0.082031,0.023437 -0.1992188,0.09375 -0.6796875,0.2929687 -1.3476563,0.2929687 -0.3984375,0 -0.8554687,-0.070312 -1.3242187,-0.28125 C 1.148875,-6.621375 1.1254375,-6.621375 1.102,-6.621375 c -0.09375,0 -0.09375,0.082031 -0.09375,0.234375 v 2.953125 c 0,0.1757813 0,0.2578125 0.140625,0.2578125 0.070312,0 0.082031,-0.035156 0.1289063,-0.09375 C 1.38325,-3.4221562 1.75825,-3.9612187 2.555125,-3.9612187 c 0.5273438,0 0.7734375,0.4570312 0.8554688,0.6328125 0.1523437,0.375 0.1757812,0.7617187 0.1757812,1.2539062 0,0.3515625 0,0.9492188 -0.234375,1.37109375 C 3.1059063,-0.3166875 2.742625,-0.058875 2.2855938,-0.058875 c -0.7265625,0 -1.3007813,-0.52734375 -1.4648438,-1.1132812 0.0234375,0.011719 0.0585938,0.011719 0.1640625,0.011719 0.328125,0 0.5039063,-0.2460937 0.5039063,-0.4804687 0,-0.2460938 -0.1757813,-0.4921875 -0.5039063,-0.4921875 -0.140625,0 -0.48046875,0.070312 -0.48046875,0.5273437 0,0.85546875 0.67968755,1.828125 1.79296875,1.828125 1.1601563,0 2.1796875,-0.9609375 2.1796875,-2.2265628 z m 0,0"
       style="fill:#000000;fill-opacity:1;fill-rule:nonzero;stroke:none"
       aria-label="5"
       transform="matrix(1.3333333,0,0,1.3333333,50.030667,28.016)" />
    <path
       id="path43"
       d="M -9.11053,3.87834 V 9.307 L 12.60416,-2.40523 v -5.42868 z"
       style="fill:#277e8e;fill-opacity:0.3;fill-rule:nonzero;stroke:#808080;stroke-width:0.19925;stroke-linecap:butt;stroke-linejoin:miter;stroke-miterlimit:10;stroke-dasharray:none;stroke-opacity:1"
       transform="matrix(1.3333333,0,0,-1.3333333,37.710667,29.085333)" />
    <path
       id="path44"
       d="M -9.11053,3.87834 V 9.307 L -13.66582,5.81752 V 0.38884 Z"
       style="fill:#277e8e;fill-opacity:0.3;fill-rule:nonzero;stroke:#808080;stroke-width:0.19925;stroke-linecap:butt;stroke-linejoin:miter;stroke-miterlimit:10;stroke-dasharray:none;stroke-opacity:1"
       transform="matrix(1.3333333,0,0,-1.3333333,37.710667,29.085333)" />
    <path
       id="path45"
       d="M -9.11053,3.87834 12.60416,-7.83391 8.04887,-11.3234 -13.66582,0.38884 Z"
       style="fill:#277e8e;fill-opacity:0.3;fill-rule:nonzero;stroke:#808080;stroke-width:0.19925;stroke-linecap:butt;stroke-linejoin:miter;stroke-miterlimit:10;stroke-dasharray:none;stroke-opacity:1"
       transform="matrix(1.3333333,0,0,-1.3333333,37.710667,29.085333)" />
    <path
       id="path46"
       d="M -13.66582,0.38884 V 5.81752 L 8.04887,-5.89473 v -5.42867 z"
       style="fill:#277e8e;fill-opacity:0.3;fill-rule:nonzero;stroke:#808080;stroke-width:0.19925;stroke-linecap:butt;stroke-linejoin:miter;stroke-miterlimit:10;stroke-dasharray:none;stroke-opacity:1"
       transform="matrix(1.3333333,0,0,-1.3333333,37.710667,29.085333)" />
    <path
       id="path47"
       d="m 12.60416,-7.83391 v 5.42868 l -4.55529,-3.4895 v -5.42867 z"
       style="fill:#277e8e;fill-opacity:0.3;fill-rule:nonzero;stroke:#808080;stroke-width:0.19925;stroke-linecap:butt;stroke-linejoin:miter;stroke-miterlimit:10;stroke-dasharray:none;stroke-opacity:1"
       transform="matrix(1.3333333,0,0,-1.3333333,37.710667,29.085333)" />
    <path
       id="path48"
       d="M -9.11053,9.307 12.60416,-2.40523 8.04887,-5.89473 -13.66582,5.81752 Z"
       style="fill:#277e8e;fill-opacity:0.3;fill-rule:nonzero;stroke:#808080;stroke-width:0.19925;stroke-linecap:butt;stroke-linejoin:miter;stroke-miterlimit:10;stroke-dasharray:none;stroke-opacity:1"
       transform="matrix(1.3333333,0,0,-1.3333333,37.710667,29.085333)" />
    <path
       id="path49"
       d="m 1.1013281,-2.6361172 c 0,-0.6679687 0.058594,-1.2421875 0.3398438,-1.734375 0.234375,-0.3984375 0.6445312,-0.7265625 1.1484375,-0.7265625 0.1640625,0 0.5273437,0.035156 0.7148437,0.3046875 -0.3632812,0.023437 -0.3984375,0.2929688 -0.3984375,0.375 0,0.2460938 0.1875,0.375 0.375,0.375 0.140625,0 0.375,-0.082031 0.375,-0.3867187 0,-0.4804688 -0.3515625,-0.8671875 -1.078125,-0.8671875 -1.1015625,0 -2.22656247,1.0546875 -2.22656247,2.765625 0,2.16796871 1.00781247,2.69531246 1.78124997,2.69531246 0.375,0 0.796875,-0.10546875 1.1484375,-0.4453125 0.3164063,-0.3046875 0.5859375,-0.64453125 0.5859375,-1.33593746 0,-1.0429688 -0.7851562,-1.78125 -1.6640625,-1.78125 -0.5742187,0 -0.9257812,0.375 -1.1015625,0.7617187 z m 1.03125,2.56640626 c -0.421875,0 -0.6914062,-0.29296875 -0.8085937,-0.515625 -0.1875,-0.36328125 -0.1992188,-0.90234376 -0.1992188,-1.20703126 0,-0.7851562 0.4335938,-1.3828125 1.0429688,-1.3828125 0.3984375,0 0.6328125,0.2109375 0.7851562,0.4921875 0.1757813,0.2929688 0.1757813,0.65625 0.1757813,1.0546875 0,0.4101563 0,0.76171876 -0.1640625,1.04296876 -0.2109375,0.375 -0.4921875,0.515625 -0.8320313,0.515625 z m 0,0"
       style="fill:#000000;fill-opacity:1;fill-rule:nonzero;stroke:none"
       aria-label="6"
       transform="matrix(1.3333333,0,0,1.3333333,34.18,33.854667)" />
    <path
       id="path50"
       d="M -13.66582,0.38884 V 5.81752 L 8.04887,-5.89473 v -5.42867 z"
       style="fill:#20908c;fill-opacity:0.3;fill-rule:nonzero;stroke:#808080;stroke-width:0.19925;stroke-linecap:butt;stroke-linejoin:miter;stroke-miterlimit:10;stroke-dasharray:none;stroke-opacity:1"
       transform="matrix(1.3333333,0,0,-1.3333333,37.710667,29.085333)" />
    <path
       id="path51"
       d="M -13.66582,0.38884 V 5.81752 L -18.22108,2.328 v -5.42865 z"
       style="fill:#20908c;fill-opacity:0.3;fill-rule:nonzero;stroke:#808080;stroke-width:0.19925;stroke-linecap:butt;stroke-linejoin:miter;stroke-miterlimit:10;stroke-dasharray:none;stroke-opacity:1"
       transform="matrix(1.3333333,0,0,-1.3333333,37.710667,29.085333)" />
    <path
       id="path52"
       d="M -13.66582,0.38884 8.04887,-11.3234 3.4936,-14.81291 -18.22108,-3.10065 Z"
       style="fill:#20908c;fill-opacity:0.3;fill-rule:nonzero;stroke:#808080;stroke-width:0.19925;stroke-linecap:butt;stroke-linejoin:miter;stroke-miterlimit:10;stroke-dasharray:none;stroke-opacity:1"
       transform="matrix(1.3333333,0,0,-1.3333333,37.710667,29.085333)" />
    <path
       id="path53"
       d="M -18.22108,-3.10065 V 2.328 L 3.4936,-9.38423 v -5.42868 z"
       style="fill:#20908c;fill-opacity:0.3;fill-rule:nonzero;stroke:#808080;stroke-width:0.19925;stroke-linecap:butt;stroke-linejoin:miter;stroke-miterlimit:10;stroke-dasharray:none;stroke-opacity:1"
       transform="matrix(1.3333333,0,0,-1.3333333,37.710667,29.085333)" />
    <path
       id="path54"
       d="m 8.04887,-11.3234 v 5.42867 L 3.4936,-9.38423 v -5.42868 z"
       style="fill:#20908c;fill-opacity:0.3;fill-rule:nonzero;stroke:#808080;stroke-width:0.19925;stroke-linecap:butt;stroke-linejoin:miter;stroke-miterlimit:10;stroke-dasharray:none;stroke-opacity:1"
       transform="matrix(1.3333333,0,0,-1.3333333,37.710667,29.085333)" />
    <path
       id="path55"
       d="M -13.66582,5.81752 8.04887,-5.89473 3.4936,-9.38423 -18.22108,2.328 Z"
       style="fill:#20908c;fill-opacity:0.3;fill-rule:nonzero;stroke:#808080;stroke-width:0.19925;stroke-linecap:butt;stroke-linejoin:miter;stroke-miterlimit:10;stroke-dasharray:none;stroke-opacity:1"
       transform="matrix(1.3333333,0,0,-1.3333333,37.710667,29.085333)" />
    <path
       id="path56"
       d="m 4.0303516,-4.8507031 c 0.070312,-0.09375 0.070312,-0.1054688 0.070312,-0.28125 H 2.0733203 c -0.1992187,0 -0.4453125,-0.011719 -0.6445312,-0.023437 -0.4101563,-0.035156 -0.421875,-0.1054688 -0.44531254,-0.234375 H 0.73738281 l -0.26953125,1.6875 h 0.24609375 c 0.0234375,-0.1171875 0.10546875,-0.6679688 0.22265625,-0.7382813 0.0820312,-0.035156 0.67968754,-0.035156 0.79687504,-0.035156 h 1.6875 l -0.8203125,1.1015625 c -0.9023438,1.2070312 -1.0898438,2.46093748 -1.0898438,3.09374998 0,0.0820312 0,0.4453125 0.3632813,0.4453125 0.375,0 0.375,-0.3515625 0.375,-0.4453125 v -0.38671875 c 0,-1.14843753 0.1992187,-2.08593753 0.5859375,-2.60156253 z m 0,0"
       style="fill:#000000;fill-opacity:1;fill-rule:nonzero;stroke:none"
       aria-label="7"
       transform="matrix(1.3333333,0,0,1.3333333,28.106667,38.506667)" />
    <path
       id="path57"
       d="m -9.11053,9.307 v 5.4287 L 1.7468,8.87958 v -5.4287 z"
       style="fill:#1fa187;fill-opacity:0.3;fill-rule:nonzero;stroke:#808080;stroke-width:0.19925;stroke-linecap:butt;stroke-linejoin:miter;stroke-miterlimit:10;stroke-dasharray:none;stroke-opacity:1"
       transform="matrix(1.3333333,0,0,-1.3333333,37.710667,29.085333)" />
    <path
       id="path58"
       d="m -9.11053,9.307 v 5.4287 l -4.55529,-3.4895 V 5.81752 Z"
       style="fill:#1fa187;fill-opacity:0.3;fill-rule:nonzero;stroke:#808080;stroke-width:0.19925;stroke-linecap:butt;stroke-linejoin:miter;stroke-miterlimit:10;stroke-dasharray:none;stroke-opacity:1"
       transform="matrix(1.3333333,0,0,-1.3333333,37.710667,29.085333)" />
    <path
       id="path59"
       d="M -9.11053,9.307 1.7468,3.45088 -2.80847,-0.03859 -13.66582,5.81752 Z"
       style="fill:#1fa187;fill-opacity:0.3;fill-rule:nonzero;stroke:#808080;stroke-width:0.19925;stroke-linecap:butt;stroke-linejoin:miter;stroke-miterlimit:10;stroke-dasharray:none;stroke-opacity:1"
       transform="matrix(1.3333333,0,0,-1.3333333,37.710667,29.085333)" />
    <path
       id="path60"
       d="M -13.66582,5.81752 V 11.2462 L -2.80847,5.39008 v -5.42867 z"
       style="fill:#1fa187;fill-opacity:0.3;fill-rule:nonzero;stroke:#808080;stroke-width:0.19925;stroke-linecap:butt;stroke-linejoin:miter;stroke-miterlimit:10;stroke-dasharray:none;stroke-opacity:1"
       transform="matrix(1.3333333,0,0,-1.3333333,37.710667,29.085333)" />
    <path
       id="path61"
       d="m 1.7468,3.45088 v 5.4287 l -4.55527,-3.4895 v -5.42867 z"
       style="fill:#1fa187;fill-opacity:0.3;fill-rule:nonzero;stroke:#808080;stroke-width:0.19925;stroke-linecap:butt;stroke-linejoin:miter;stroke-miterlimit:10;stroke-dasharray:none;stroke-opacity:1"
       transform="matrix(1.3333333,0,0,-1.3333333,37.710667,29.085333)" />
    <path
       id="path62"
       d="M -9.11053,14.7357 1.7468,8.87958 -2.80847,5.39008 -13.66582,11.2462 Z"
       style="fill:#1fa187;fill-opacity:0.3;fill-rule:nonzero;stroke:#808080;stroke-width:0.19925;stroke-linecap:butt;stroke-linejoin:miter;stroke-miterlimit:10;stroke-dasharray:none;stroke-opacity:1"
       transform="matrix(1.3333333,0,0,-1.3333333,37.710667,29.085333)" />
    <path
       id="path63"
       d="m 2.6474922,-2.8718906 c 0.4453125,-0.2226563 0.984375,-0.6210938 0.984375,-1.2421875 0,-0.75 -0.7734375,-1.1835938 -1.5117188,-1.1835938 -0.84375,0 -1.53515621,0.5742188 -1.53515621,1.3242188 0,0.3046875 0.10546875,0.5742187 0.3046875,0.796875 0.14062501,0.1757812 0.16406251,0.1875 0.66796871,0.5039062 -0.99609371,0.4335938 -1.20703121,1.0195313 -1.20703121,1.4648438 0,0.86718748 0.87890621,1.37109373 1.75781251,1.37109373 0.9726562,0 1.7578125,-0.65625 1.7578125,-1.50000003 0,-0.5039062 -0.2695313,-0.84375 -0.3984375,-0.9726562 -0.1289063,-0.1289063 -0.140625,-0.140625 -0.8203125,-0.5625 z m -1.2421875,-0.75 c -0.2226563,-0.140625 -0.42187501,-0.375 -0.42187501,-0.6445313 0,-0.5039062 0.55078121,-0.8320312 1.12500001,-0.8320312 0.6210937,0 1.125,0.4335937 1.125,0.984375 0,0.46875 -0.3632813,0.8554687 -0.8320313,1.0898437 z m 0.3984375,1.0898437 c 0.023437,0.011719 0.9375,0.5742188 1.0664062,0.65625 0.1289063,0.070312 0.5507813,0.328125 0.5507813,0.8085938 0,0.60937498 -0.6445313,0.99609373 -1.3007813,0.99609373 -0.7148437,0 -1.31249996,-0.4921875 -1.31249996,-1.13671873 0,-0.5976563 0.44531246,-1.0664063 0.99609376,-1.3242188 z m 0,0"
       style="fill:#000000;fill-opacity:1;fill-rule:nonzero;stroke:none"
       aria-label="8"
       transform="matrix(1.3333333,0,0,1.3333333,26.942667,22.712)" />
    <path
       id="path64"
       d="M 1.7468,3.45088 V 6.16524 L 12.60416,0.3091 v -2.71433 z"
       style="fill:#2cb17d;fill-opacity:0.3;fill-rule:nonzero;stroke:#808080;stroke-width:0.19925;stroke-linecap:butt;stroke-linejoin:miter;stroke-miterlimit:10;stroke-dasharray:none;stroke-opacity:1"
       transform="matrix(1.3333333,0,0,-1.3333333,37.710667,29.085333)" />
    <path
       id="path65"
       d="M 1.7468,3.45088 V 6.16524 L -0.53082,4.42049 V 1.70615 Z"
       style="fill:#2cb17d;fill-opacity:0.3;fill-rule:nonzero;stroke:#808080;stroke-width:0.19925;stroke-linecap:butt;stroke-linejoin:miter;stroke-miterlimit:10;stroke-dasharray:none;stroke-opacity:1"
       transform="matrix(1.3333333,0,0,-1.3333333,37.710667,29.085333)" />
    <path
       id="path66"
       d="M 1.7468,3.45088 12.60416,-2.40523 10.3265,-4.14998 -0.53082,1.70615 Z"
       style="fill:#2cb17d;fill-opacity:0.3;fill-rule:nonzero;stroke:#808080;stroke-width:0.19925;stroke-linecap:butt;stroke-linejoin:miter;stroke-miterlimit:10;stroke-dasharray:none;stroke-opacity:1"
       transform="matrix(1.3333333,0,0,-1.3333333,37.710667,29.085333)" />
    <path
       id="path67"
       d="M -0.53082,1.70615 V 4.42049 L 10.3265,-1.43564 v -2.71434 z"
       style="fill:#2cb17d;fill-opacity:0.3;fill-rule:nonzero;stroke:#808080;stroke-width:0.19925;stroke-linecap:butt;stroke-linejoin:miter;stroke-miterlimit:10;stroke-dasharray:none;stroke-opacity:1"
       transform="matrix(1.3333333,0,0,-1.3333333,37.710667,29.085333)" />
    <path
       id="path68"
       d="M 12.60416,-2.40523 V 0.3091 L 10.3265,-1.43564 v -2.71434 z"
       style="fill:#2cb17d;fill-opacity:0.3;fill-rule:nonzero;stroke:#808080;stroke-width:0.19925;stroke-linecap:butt;stroke-linejoin:miter;stroke-miterlimit:10;stroke-dasharray:none;stroke-opacity:1"
       transform="matrix(1.3333333,0,0,-1.3333333,37.710667,29.085333)" />
    <path
       id="path69"
       d="M 1.7468,6.16524 12.60416,0.3091 10.3265,-1.43564 -0.53082,4.42049 Z"
       style="fill:#2cb17d;fill-opacity:0.3;fill-rule:nonzero;stroke:#808080;stroke-width:0.19925;stroke-linecap:butt;stroke-linejoin:miter;stroke-miterlimit:10;stroke-dasharray:none;stroke-opacity:1"
       transform="matrix(1.3333333,0,0,-1.3333333,37.710667,29.085333)" />
    <path
       id="path70"
       d="m 2.4609375,-1.5819219 c 0,0.3164063 -0.023437,0.69140628 -0.1875,0.98437503 -0.1640625,0.29296875 -0.4570312,0.50390625 -0.8671875,0.50390625 -0.046875,0 -0.3515625,0 -0.52734375,-0.1171875 0.12890625,-0.0351563 0.19921875,-0.12890625 0.19921875,-0.2578125 0,-0.1640625 -0.1171875,-0.26953125 -0.2578125,-0.26953125 -0.09375,0 -0.26953125,0.046875 -0.26953125,0.28125 0,0.5625 0.73828125,0.5625 0.86718755,0.5625 0.84375,0 1.5703125,-0.703125 1.5703125,-1.73437503 0,-1.2070312 -0.5859375,-1.6875 -1.2773438,-1.6875 -0.4921875,0 -0.73828125,0.1757813 -0.9375,0.3398438 -0.3046875,0.2578125 -0.375,0.5273437 -0.375,0.7851562 0,0.28125 0.0820313,0.5390625 0.3515625,0.7734375 0.234375,0.2109375 0.46875,0.3398438 0.890625,0.3398438 0.1992188,0 0.5625,-0.070312 0.8203125,-0.5039063 z m -0.8085937,0.328125 c -0.1992188,0 -0.3867188,-0.035156 -0.5742188,-0.2578125 -0.15234375,-0.1875 -0.15234375,-0.3867187 -0.15234375,-0.6796875 0,-0.3632812 0.0117188,-0.5039062 0.19921875,-0.703125 0.082031,-0.09375 0.234375,-0.234375 0.5859375,-0.234375 0.7382813,0 0.7382813,0.8203125 0.7382813,1.03125 0,0.421875 -0.2929688,0.84375 -0.796875,0.84375 z m 0,0"
       style="fill:#000000;fill-opacity:1;fill-rule:nonzero;stroke:none"
       aria-label="9"
       transform="matrix(1.3333333,0,0,1.3333333,43.5,29.882667)" />
    <path
       id="path71"
       d="M -0.53082,1.70615 V 4.42049 L 10.3265,-1.43564 v -2.71434 z"
       style="fill:#49c16d;fill-opacity:0.3;fill-rule:nonzero;stroke:#808080;stroke-width:0.19925;stroke-linecap:butt;stroke-linejoin:miter;stroke-miterlimit:10;stroke-dasharray:none;stroke-opacity:1"
       transform="matrix(1.3333333,0,0,-1.3333333,37.710667,29.085333)" />
    <path
       id="path72"
       d="M -0.53082,1.70615 V 4.42049 L -2.80847,2.67574 v -2.71433 z"
       style="fill:#49c16d;fill-opacity:0.3;fill-rule:nonzero;stroke:#808080;stroke-width:0.19925;stroke-linecap:butt;stroke-linejoin:miter;stroke-miterlimit:10;stroke-dasharray:none;stroke-opacity:1"
       transform="matrix(1.3333333,0,0,-1.3333333,37.710667,29.085333)" />
    <path
       id="path73"
       d="M -0.53082,1.70615 10.3265,-4.14998 8.04887,-5.89473 -2.80847,-0.03859 Z"
       style="fill:#49c16d;fill-opacity:0.3;fill-rule:nonzero;stroke:#808080;stroke-width:0.19925;stroke-linecap:butt;stroke-linejoin:miter;stroke-miterlimit:10;stroke-dasharray:none;stroke-opacity:1"
       transform="matrix(1.3333333,0,0,-1.3333333,37.710667,29.085333)" />
    <path
       id="path74"
       d="M -2.80847,-0.03859 V 2.67574 L 8.04887,-3.18039 v -2.71434 z"
       style="fill:#49c16d;fill-opacity:0.3;fill-rule:nonzero;stroke:#808080;stroke-width:0.19925;stroke-linecap:butt;stroke-linejoin:miter;stroke-miterlimit:10;stroke-dasharray:none;stroke-opacity:1"
       transform="matrix(1.3333333,0,0,-1.3333333,37.710667,29.085333)" />
    <path
       id="path75"
       d="m 10.3265,-4.14998 v 2.71434 L 8.04887,-3.18039 v -2.71434 z"
       style="fill:#49c16d;fill-opacity:0.3;fill-rule:nonzero;stroke:#808080;stroke-width:0.19925;stroke-linecap:butt;stroke-linejoin:miter;stroke-miterlimit:10;stroke-dasharray:none;stroke-opacity:1"
       transform="matrix(1.3333333,0,0,-1.3333333,37.710667,29.085333)" />
    <path
       id="path76"
       d="M -0.53082,4.42049 10.3265,-1.43564 8.04887,-3.18039 -2.80847,2.67574 Z"
       style="fill:#49c16d;fill-opacity:0.3;fill-rule:nonzero;stroke:#808080;stroke-width:0.19925;stroke-linecap:butt;stroke-linejoin:miter;stroke-miterlimit:10;stroke-dasharray:none;stroke-opacity:1"
       transform="matrix(1.3333333,0,0,-1.3333333,37.710667,29.085333)" />
    <path
       id="path77"
       d="m 1.9808125,-3.1628594 c 0,-0.1523437 -0.011719,-0.1523437 -0.1757812,-0.1523437 -0.3515625,0.3164062 -0.9023438,0.3164062 -1.00781255,0.3164062 H 0.7151875 v 0.2226563 h 0.0820313 c 0.1171875,0 0.4335937,-0.011719 0.7265626,-0.140625 v 2.48437498 c 0,0.1640625 0,0.2109375 -0.52734385,0.2109375 h -0.2460938 v 0.22265625 c 0.26953125,-0.0234375 0.71484375,-0.0234375 1.00781255,-0.0234375 0.28125,0 0.7265625,0 0.9960937,0.0234375 V -0.22145312 H 2.5081563 c -0.5273438,0 -0.5273438,-0.046875 -0.5273438,-0.2109375 z m 4.3974609,1.5703125 c 0,-0.3632812 0,-1.7226562 -1.2890625,-1.7226562 -1.3007812,0 -1.3007812,1.359375 -1.3007812,1.7226562 0,0.3632813 0,1.69921878 1.3007812,1.69921878 1.2890625,0 1.2890625,-1.33593748 1.2890625,-1.69921878 z m -1.2890625,1.53515628 c -0.1875,0 -0.609375,-0.05859375 -0.7382812,-0.5625 -0.058594,-0.26953125 -0.070312,-0.62109378 -0.070312,-1.03124998 0,-0.375 0,-0.7148438 0.082031,-0.9960938 0.1289063,-0.421875 0.5039063,-0.5039062 0.7265625,-0.5039062 0.3632813,0 0.6210938,0.1875 0.7265625,0.5390625 0.070312,0.2578125 0.070312,0.6679687 0.070312,0.9609375 0,0.3398437 0,0.73828123 -0.070312,1.04296873 -0.1289062,0.48046875 -0.5273437,0.55078125 -0.7265628,0.55078125 z m 0,0"
       style="fill:#000000;fill-opacity:1;fill-rule:nonzero;stroke:none"
       aria-label="10"
       transform="matrix(1.3333333,0,0,1.3333333,38.202667,32.209333)" />
    <path
       id="path78"
       d="M 1.7468,6.16524 V 8.87958 L 12.60416,3.02344 V 0.3091 Z"
       style="fill:#72cf55;fill-opacity:0.3;fill-rule:nonzero;stroke:#808080;stroke-width:0.19925;stroke-linecap:butt;stroke-linejoin:miter;stroke-miterlimit:10;stroke-dasharray:none;stroke-opacity:1"
       transform="matrix(1.3333333,0,0,-1.3333333,37.710667,29.085333)" />
    <path
       id="path79"
       d="M 1.7468,6.16524 V 8.87958 L -0.53082,7.13483 V 4.42049 Z"
       style="fill:#72cf55;fill-opacity:0.3;fill-rule:nonzero;stroke:#808080;stroke-width:0.19925;stroke-linecap:butt;stroke-linejoin:miter;stroke-miterlimit:10;stroke-dasharray:none;stroke-opacity:1"
       transform="matrix(1.3333333,0,0,-1.3333333,37.710667,29.085333)" />
    <path
       id="path80"
       d="M 1.7468,6.16524 12.60416,0.3091 10.3265,-1.43564 -0.53082,4.42049 Z"
       style="fill:#72cf55;fill-opacity:0.3;fill-rule:nonzero;stroke:#808080;stroke-width:0.19925;stroke-linecap:butt;stroke-linejoin:miter;stroke-miterlimit:10;stroke-dasharray:none;stroke-opacity:1"
       transform="matrix(1.3333333,0,0,-1.3333333,37.710667,29.085333)" />
    <path
       id="path81"
       d="M -0.53082,4.42049 V 7.13483 L 10.3265,1.27869 v -2.71433 z"
       style="fill:#72cf55;fill-opacity:0.3;fill-rule:nonzero;stroke:#808080;stroke-width:0.19925;stroke-linecap:butt;stroke-linejoin:miter;stroke-miterlimit:10;stroke-dasharray:none;stroke-opacity:1"
       transform="matrix(1.3333333,0,0,-1.3333333,37.710667,29.085333)" />
    <path
       id="path82"
       d="M 12.60416,0.3091 V 3.02344 L 10.3265,1.27869 v -2.71433 z"
       style="fill:#72cf55;fill-opacity:0.3;fill-rule:nonzero;stroke:#808080;stroke-width:0.19925;stroke-linecap:butt;stroke-linejoin:miter;stroke-miterlimit:10;stroke-dasharray:none;stroke-opacity:1"
       transform="matrix(1.3333333,0,0,-1.3333333,37.710667,29.085333)" />
    <path
       id="path83"
       d="M 1.7468,8.87958 12.60416,3.02344 10.3265,1.27869 -0.53082,7.13483 Z"
       style="fill:#72cf55;fill-opacity:0.3;fill-rule:nonzero;stroke:#808080;stroke-width:0.19925;stroke-linecap:butt;stroke-linejoin:miter;stroke-miterlimit:10;stroke-dasharray:none;stroke-opacity:1"
       transform="matrix(1.3333333,0,0,-1.3333333,37.710667,29.085333)" />
    <path
       id="path84"
       d="m 1.9791797,-3.1628437 c 0,-0.1523438 -0.011719,-0.1523438 -0.1757813,-0.1523438 -0.3515625,0.3164063 -0.90234371,0.3164063 -1.00781246,0.3164063 h -0.0820313 v 0.2226562 h 0.0820313 c 0.1171875,0 0.43359376,-0.011719 0.72656246,-0.140625 v 2.484375 c 0,0.1640625 0,0.2109375 -0.52734371,0.2109375 H 0.74871094 v 0.22265625 c 0.26953126,-0.0234375 0.71484376,-0.0234375 1.00781246,-0.0234375 0.28125,0 0.7265625,0 0.9960938,0.0234375 V -0.2214375 H 2.5065234 c -0.5273437,0 -0.5273437,-0.046875 -0.5273437,-0.2109375 z m 3.3925781,0 c 0,-0.1523438 -0.011719,-0.1523438 -0.1757812,-0.1523438 -0.3515625,0.3164063 -0.9023438,0.3164063 -1.0078125,0.3164063 h -0.082031 v 0.2226562 h 0.082031 c 0.1171875,0 0.4335937,-0.011719 0.7265625,-0.140625 v 2.484375 c 0,0.1640625 0,0.2109375 -0.5273438,0.2109375 H 4.1412891 v 0.22265625 c 0.2695312,-0.0234375 0.7148437,-0.0234375 1.0078125,-0.0234375 0.28125,0 0.7265625,0 0.9960937,0.0234375 V -0.2214375 H 5.8991016 c -0.5273438,0 -0.5273438,-0.046875 -0.5273438,-0.2109375 z m 0,0"
       style="fill:#000000;fill-opacity:1;fill-rule:nonzero;stroke:none"
       aria-label="11"
       transform="matrix(1.3333333,0,0,1.3333333,41.24,26.264)" />
    <path
       id="path85"
       d="M -0.53082,4.42049 V 7.13483 L 10.3265,1.27869 v -2.71433 z"
       style="fill:#9fd938;fill-opacity:0.3;fill-rule:nonzero;stroke:#808080;stroke-width:0.19925;stroke-linecap:butt;stroke-linejoin:miter;stroke-miterlimit:10;stroke-dasharray:none;stroke-opacity:1"
       transform="matrix(1.3333333,0,0,-1.3333333,37.710667,29.085333)" />
    <path
       id="path86"
       d="M -0.53082,4.42049 V 7.13483 L -2.80847,5.39008 V 2.67574 Z"
       style="fill:#9fd938;fill-opacity:0.3;fill-rule:nonzero;stroke:#808080;stroke-width:0.19925;stroke-linecap:butt;stroke-linejoin:miter;stroke-miterlimit:10;stroke-dasharray:none;stroke-opacity:1"
       transform="matrix(1.3333333,0,0,-1.3333333,37.710667,29.085333)" />
    <path
       id="path87"
       d="M -0.53082,4.42049 10.3265,-1.43564 8.04887,-3.18039 -2.80847,2.67574 Z"
       style="fill:#9fd938;fill-opacity:0.3;fill-rule:nonzero;stroke:#808080;stroke-width:0.19925;stroke-linecap:butt;stroke-linejoin:miter;stroke-miterlimit:10;stroke-dasharray:none;stroke-opacity:1"
       transform="matrix(1.3333333,0,0,-1.3333333,37.710667,29.085333)" />
    <path
       id="path88"
       d="M -2.80847,2.67574 V 5.39008 L 8.04887,-0.46603 v -2.71436 z"
       style="fill:#9fd938;fill-opacity:0.3;fill-rule:nonzero;stroke:#808080;stroke-width:0.19925;stroke-linecap:butt;stroke-linejoin:miter;stroke-miterlimit:10;stroke-dasharray:none;stroke-opacity:1"
       transform="matrix(1.3333333,0,0,-1.3333333,37.710667,29.085333)" />
    <path
       id="path89"
       d="M 10.3265,-1.43564 V 1.27869 L 8.04887,-0.46603 v -2.71436 z"
       style="fill:#9fd938;fill-opacity:0.3;fill-rule:nonzero;stroke:#808080;stroke-width:0.19925;stroke-linecap:butt;stroke-linejoin:miter;stroke-miterlimit:10;stroke-dasharray:none;stroke-opacity:1"
       transform="matrix(1.3333333,0,0,-1.3333333,37.710667,29.085333)" />
    <path
       id="path90"
       d="M -0.53082,7.13483 10.3265,1.27869 8.04887,-0.46603 -2.80847,5.39008 Z"
       style="fill:#9fd938;fill-opacity:0.3;fill-rule:nonzero;stroke:#808080;stroke-width:0.19925;stroke-linecap:butt;stroke-linejoin:miter;stroke-miterlimit:10;stroke-dasharray:none;stroke-opacity:1"
       transform="matrix(1.3333333,0,0,-1.3333333,37.710667,29.085333)" />
    <path
       id="path91"
       d="m 1.9808125,-3.1636797 c 0,-0.1523437 -0.011719,-0.1523437 -0.1757812,-0.1523437 -0.3515625,0.3164062 -0.9023438,0.3164062 -1.00781255,0.3164062 H 0.7151875 v 0.2226563 h 0.0820313 c 0.1171875,0 0.4335937,-0.011719 0.7265626,-0.140625 v 2.48437496 c 0,0.1640625 0,0.2109375 -0.52734385,0.2109375 H 0.75034375 V 3.828125e-4 C 1.019875,-0.02305469 1.4651875,-0.02305469 1.7581563,-0.02305469 c 0.28125,0 0.7265625,0 0.9960937,0.0234375025 V -0.22227344 H 2.5081563 c -0.5273438,0 -0.5273438,-0.046875 -0.5273438,-0.2109375 z m 4.3388672,2.20312501 H 6.1087422 c -0.011719,0.09375 -0.058594,0.3984375 -0.140625,0.45703125 -0.035156,0.0234375 -0.4570313,0.0234375 -0.5273438,0.0234375 h -0.984375 c 0.328125,-0.24609375 0.703125,-0.515625 0.9960938,-0.71484376 0.4570312,-0.3164062 0.8671875,-0.5976562 0.8671875,-1.125 0,-0.6445312 -0.5976563,-0.9960937 -1.3125,-0.9960937 -0.6679688,0 -1.1601563,0.3867187 -1.1601563,0.8789062 0,0.2578125 0.2109375,0.3046875 0.28125,0.3046875 0.140625,0 0.2929688,-0.09375 0.2929688,-0.2929687 0,-0.1875 -0.1289063,-0.28125 -0.28125,-0.2929688 0.140625,-0.234375 0.4335937,-0.375 0.7617187,-0.375 0.4804688,0 0.890625,0.28125 0.890625,0.7734375 0,0.421875 -0.2929687,0.7382813 -0.6796875,1.0546875 l -1.2070312,1.03125001 c -0.046875,0.046875 -0.058594,0.046875 -0.058594,0.0820313 V 3.828125e-4 H 6.155617 Z m 0,0"
       style="fill:#000000;fill-opacity:1;fill-rule:nonzero;stroke:none"
       aria-label="12"
       transform="matrix(1.3333333,0,0,1.3333333,38.202667,28.589333)" />
    <path
       id="path92"
       d="M -13.66582,5.81752 V 11.2462 L 8.04887,-0.46603 v -5.4287 z"
       style="fill:#cfe11c;fill-opacity:0.3;fill-rule:nonzero;stroke:#808080;stroke-width:0.19925;stroke-linecap:butt;stroke-linejoin:miter;stroke-miterlimit:10;stroke-dasharray:none;stroke-opacity:1"
       transform="matrix(1.3333333,0,0,-1.3333333,37.710667,29.085333)" />
    <path
       id="path93"
       d="M -13.66582,5.81752 V 11.2462 L -18.22108,7.7567 V 2.328 Z"
       style="fill:#cfe11c;fill-opacity:0.3;fill-rule:nonzero;stroke:#808080;stroke-width:0.19925;stroke-linecap:butt;stroke-linejoin:miter;stroke-miterlimit:10;stroke-dasharray:none;stroke-opacity:1"
       transform="matrix(1.3333333,0,0,-1.3333333,37.710667,29.085333)" />
    <path
       id="path94"
       d="M -13.66582,5.81752 8.04887,-5.89473 3.4936,-9.38423 -18.22108,2.328 Z"
       style="fill:#cfe11c;fill-opacity:0.3;fill-rule:nonzero;stroke:#808080;stroke-width:0.19925;stroke-linecap:butt;stroke-linejoin:miter;stroke-miterlimit:10;stroke-dasharray:none;stroke-opacity:1"
       transform="matrix(1.3333333,0,0,-1.3333333,37.710667,29.085333)" />
    <path
       id="path95"
       d="M -18.22108,2.328 V 7.7567 L 3.4936,-3.95555 v -5.42868 z"
       style="fill:#cfe11c;fill-opacity:0.3;fill-rule:nonzero;stroke:#808080;stroke-width:0.19925;stroke-linecap:butt;stroke-linejoin:miter;stroke-miterlimit:10;stroke-dasharray:none;stroke-opacity:1"
       transform="matrix(1.3333333,0,0,-1.3333333,37.710667,29.085333)" />
    <path
       id="path96"
       d="m 8.04887,-5.89473 v 5.4287 L 3.4936,-3.95555 v -5.42868 z"
       style="fill:#cfe11c;fill-opacity:0.3;fill-rule:nonzero;stroke:#808080;stroke-width:0.19925;stroke-linecap:butt;stroke-linejoin:miter;stroke-miterlimit:10;stroke-dasharray:none;stroke-opacity:1"
       transform="matrix(1.3333333,0,0,-1.3333333,37.710667,29.085333)" />
    <path
       id="path97"
       d="M -13.66582,11.2462 8.04887,-0.46603 3.4936,-3.95555 -18.22108,7.7567 Z"
       style="fill:#cfe11c;fill-opacity:0.3;fill-rule:nonzero;stroke:#808080;stroke-width:0.19925;stroke-linecap:butt;stroke-linejoin:miter;stroke-miterlimit:10;stroke-dasharray:none;stroke-opacity:1"
       transform="matrix(1.3333333,0,0,-1.3333333,37.710667,29.085333)" />
    <path
       id="path98"
       d="m 2.5086797,-5.0740703 c 0,-0.2226563 -0.023437,-0.2226563 -0.234375,-0.2226563 -0.328125,0.3164063 -0.75,0.5039063 -1.51171876,0.5039063 v 0.2695312 c 0.22265625,0 0.64453126,0 1.11328126,-0.2226562 v 4.08984374 c 0,0.29296875 -0.023437,0.3984375 -0.7851563,0.3984375 H 0.80946094 V 1.484375e-4 C 1.1375859,-0.02328906 1.8289922,-0.02328906 2.1805547,-0.02328906 c 0.3632812,0 1.0546875,0 1.3828125,0.0234374975 V -0.25766406 h -0.28125 c -0.75,0 -0.7734375,-0.10546875 -0.7734375,-0.3984375 z m 3.7412109,2.4140625 c 0.6328125,0 1.03125,0.4570312 1.03125,1.3007812 0,0.99609379 -0.5742187,1.28906254 -0.9960937,1.28906254 -0.4335938,0 -1.03125,-0.1640625 -1.3125,-0.5859375 0.2929687,0 0.4921875,-0.17578125 0.4921875,-0.44531254 0,-0.2578125 -0.1875,-0.4335937 -0.4453125,-0.4335937 -0.2109375,0 -0.4335938,0.1289062 -0.4335938,0.4570312 0,0.75000004 0.8085938,1.24218754 1.7226563,1.24218754 1.0546875,0 1.7929687,-0.7265625 1.7929687,-1.52343754 0,-0.6679687 -0.515625,-1.265625 -1.3359375,-1.4414062 0.6328125,-0.2226563 1.1015625,-0.7734375 1.1015625,-1.40625 0,-0.6328125 -0.7148437,-1.0898438 -1.546875,-1.0898438 -0.8554687,0 -1.5,0.4570313 -1.5,1.0664063 0,0.2929687 0.1992188,0.421875 0.4101563,0.421875 0.2460937,0 0.4101562,-0.1757813 0.4101562,-0.4101563 0,-0.2929687 -0.2578125,-0.3984375 -0.4335937,-0.4101562 0.3398437,-0.4335938 0.9492187,-0.46875 1.0898437,-0.46875 0.2109375,0 0.8085938,0.070312 0.8085938,0.890625 0,0.5625 -0.2226563,0.890625 -0.3398438,1.0195312 -0.234375,0.2460938 -0.421875,0.2578125 -0.9023437,0.2929688 -0.1523438,0.011719 -0.2226563,0.023437 -0.2226563,0.1171875 0,0.1171875 0.070312,0.1171875 0.2109375,0.1171875 z m 0,0"
       style="fill:#000000;fill-opacity:1;fill-rule:nonzero;stroke:none"
       aria-label="13"
       transform="matrix(1.3333333,0,0,1.3333333,25.284,31.269333)" />
  </g>
</svg>
