<?xml version="1.0" encoding="UTF-8"?>
<svg xmlns="http://www.w3.org/2000/svg" xmlns:xlink="http://www.w3.org/1999/xlink" width="268" height="252" viewBox="0 0 268 252" version="1.1">
<g id="surface1">
<path style="fill-rule:nonzero;fill:rgb(26.666668%,0.392157%,32.941177%);fill-opacity:0.301961;stroke-width:0.19925;stroke-linecap:butt;stroke-linejoin:miter;stroke:rgb(50.196081%,50.196081%,50.196081%);stroke-opacity:1;stroke-miterlimit:10;" d="M 0.000248737 0.000241329 L 0.000248737 10.856964 L 21.714693 -0.854636 L 21.714693 -11.712097 Z M 0.000248737 0.000241329 " transform="matrix(5.349622,0,0,-5.295898,151.303357,115.524716)"/>
<path style="fill-rule:nonzero;fill:rgb(26.666668%,0.392157%,32.941177%);fill-opacity:0.301961;stroke-width:0.19925;stroke-linecap:butt;stroke-linejoin:miter;stroke:rgb(50.196081%,50.196081%,50.196081%);stroke-opacity:1;stroke-miterlimit:10;" d="M 0.000248737 0.000241329 L 0.000248737 10.856964 L -9.110355 3.878538 L -9.110355 -6.978923 Z M 0.000248737 0.000241329 " transform="matrix(5.349622,0,0,-5.295898,151.303357,115.524716)"/>
<path style="fill-rule:nonzero;fill:rgb(26.666668%,0.392157%,32.941177%);fill-opacity:0.301961;stroke-width:0.19925;stroke-linecap:butt;stroke-linejoin:miter;stroke:rgb(50.196081%,50.196081%,50.196081%);stroke-opacity:1;stroke-miterlimit:10;" d="M 0.000248737 0.000241329 L 21.714693 -11.712097 L 12.60409 -18.691261 L -9.110355 -6.978923 Z M 0.000248737 0.000241329 " transform="matrix(5.349622,0,0,-5.295898,151.303357,115.524716)"/>
<path style="fill-rule:nonzero;fill:rgb(26.666668%,0.392157%,32.941177%);fill-opacity:0.301961;stroke-width:0.19925;stroke-linecap:butt;stroke-linejoin:miter;stroke:rgb(50.196081%,50.196081%,50.196081%);stroke-opacity:1;stroke-miterlimit:10;" d="M -9.110355 -6.978923 L -9.110355 3.878538 L 12.60409 -7.8338 L 12.60409 -18.691261 Z M -9.110355 -6.978923 " transform="matrix(5.349622,0,0,-5.295898,151.303357,115.524716)"/>
<path style="fill-rule:nonzero;fill:rgb(26.666668%,0.392157%,32.941177%);fill-opacity:0.301961;stroke-width:0.19925;stroke-linecap:butt;stroke-linejoin:miter;stroke:rgb(50.196081%,50.196081%,50.196081%);stroke-opacity:1;stroke-miterlimit:10;" d="M 21.714693 -11.712097 L 21.714693 -0.854636 L 12.60409 -7.8338 L 12.60409 -18.691261 Z M 21.714693 -11.712097 " transform="matrix(5.349622,0,0,-5.295898,151.303357,115.524716)"/>
<path style="fill-rule:nonzero;fill:rgb(26.666668%,0.392157%,32.941177%);fill-opacity:0.301961;stroke-width:0.19925;stroke-linecap:butt;stroke-linejoin:miter;stroke:rgb(50.196081%,50.196081%,50.196081%);stroke-opacity:1;stroke-miterlimit:10;" d="M 0.000248737 10.856964 L 21.714693 -0.854636 L 12.60409 -7.8338 L -9.110355 3.878538 Z M 0.000248737 10.856964 " transform="matrix(5.349622,0,0,-5.295898,151.303357,115.524716)"/>
<path style=" stroke:none;fill-rule:nonzero;fill:rgb(0%,0%,0%);fill-opacity:1;" d="M 196.207031 136.394531 C 196.207031 132.175781 195.957031 127.953125 194.074219 124.046875 C 191.628906 118.957031 187.242188 118.148438 185.046875 118.148438 C 181.851562 118.148438 177.902344 119.515625 175.769531 124.417969 C 174.015625 128.078125 173.761719 132.175781 173.761719 136.394531 C 173.761719 140.367188 174.015625 145.082031 176.144531 149.117188 C 178.464844 153.398438 182.351562 154.453125 184.984375 154.453125 C 187.867188 154.453125 191.882812 153.339844 194.261719 148.3125 C 195.957031 144.648438 196.207031 140.554688 196.207031 136.394531 Z M 184.984375 153.277344 C 182.917969 153.277344 179.71875 151.972656 178.777344 146.882812 C 178.214844 143.71875 178.214844 138.878906 178.214844 135.773438 C 178.214844 132.359375 178.214844 128.886719 178.652344 126.03125 C 179.65625 119.761719 183.605469 119.328125 184.984375 119.328125 C 186.742188 119.328125 190.25 120.257812 191.253906 125.472656 C 191.753906 128.453125 191.753906 132.421875 191.753906 135.773438 C 191.753906 139.746094 191.753906 143.285156 191.191406 146.699219 C 190.375 151.664062 187.367188 153.277344 184.984375 153.277344 Z M 184.984375 153.277344 "/>
<path style="fill-rule:nonzero;fill:rgb(28.235295%,10.196079%,42.352942%);fill-opacity:0.301961;stroke-width:0.19925;stroke-linecap:butt;stroke-linejoin:miter;stroke:rgb(50.196081%,50.196081%,50.196081%);stroke-opacity:1;stroke-miterlimit:10;" d="M -9.110355 -6.978923 L -9.110355 -1.550192 L 12.60409 -13.26253 L 12.60409 -18.691261 Z M -9.110355 -6.978923 " transform="matrix(5.349622,0,0,-5.295898,151.303357,115.524716)"/>
<path style="fill-rule:nonzero;fill:rgb(28.235295%,10.196079%,42.352942%);fill-opacity:0.301961;stroke-width:0.19925;stroke-linecap:butt;stroke-linejoin:miter;stroke:rgb(50.196081%,50.196081%,50.196081%);stroke-opacity:1;stroke-miterlimit:10;" d="M -9.110355 -6.978923 L -9.110355 -1.550192 L -18.220958 -8.529356 L -18.220958 -13.958086 Z M -9.110355 -6.978923 " transform="matrix(5.349622,0,0,-5.295898,151.303357,115.524716)"/>
<path style="fill-rule:nonzero;fill:rgb(28.235295%,10.196079%,42.352942%);fill-opacity:0.301961;stroke-width:0.19925;stroke-linecap:butt;stroke-linejoin:miter;stroke:rgb(50.196081%,50.196081%,50.196081%);stroke-opacity:1;stroke-miterlimit:10;" d="M -9.110355 -6.978923 L 12.60409 -18.691261 L 3.493486 -25.670425 L -18.220958 -13.958086 Z M -9.110355 -6.978923 " transform="matrix(5.349622,0,0,-5.295898,151.303357,115.524716)"/>
<path style="fill-rule:nonzero;fill:rgb(28.235295%,10.196079%,42.352942%);fill-opacity:0.301961;stroke-width:0.19925;stroke-linecap:butt;stroke-linejoin:miter;stroke:rgb(50.196081%,50.196081%,50.196081%);stroke-opacity:1;stroke-miterlimit:10;" d="M -18.220958 -13.958086 L -18.220958 -8.529356 L 3.493486 -20.241694 L 3.493486 -25.670425 Z M -18.220958 -13.958086 " transform="matrix(5.349622,0,0,-5.295898,151.303357,115.524716)"/>
<path style="fill-rule:nonzero;fill:rgb(28.235295%,10.196079%,42.352942%);fill-opacity:0.301961;stroke-width:0.19925;stroke-linecap:butt;stroke-linejoin:miter;stroke:rgb(50.196081%,50.196081%,50.196081%);stroke-opacity:1;stroke-miterlimit:10;" d="M 12.60409 -18.691261 L 12.60409 -13.26253 L 3.493486 -20.241694 L 3.493486 -25.670425 Z M 12.60409 -18.691261 " transform="matrix(5.349622,0,0,-5.295898,151.303357,115.524716)"/>
<path style="fill-rule:nonzero;fill:rgb(28.235295%,10.196079%,42.352942%);fill-opacity:0.301961;stroke-width:0.19925;stroke-linecap:butt;stroke-linejoin:miter;stroke:rgb(50.196081%,50.196081%,50.196081%);stroke-opacity:1;stroke-miterlimit:10;" d="M -9.110355 -1.550192 L 12.60409 -13.26253 L 3.493486 -20.241694 L -18.220958 -8.529356 Z M -9.110355 -1.550192 " transform="matrix(5.349622,0,0,-5.295898,151.303357,115.524716)"/>
<path style=" stroke:none;fill-rule:nonzero;fill:rgb(0%,0%,0%);fill-opacity:1;" d="M 138.375 174.332031 C 138.375 173.152344 138.25 173.152344 137.121094 173.152344 C 135.367188 174.828125 133.109375 175.820312 129.035156 175.820312 L 129.035156 177.246094 C 130.226562 177.246094 132.480469 177.246094 134.988281 176.066406 L 134.988281 197.726562 C 134.988281 199.277344 134.863281 199.835938 130.789062 199.835938 L 129.285156 199.835938 L 129.285156 201.203125 C 131.039062 201.078125 134.738281 201.078125 136.617188 201.078125 C 138.5625 201.078125 142.261719 201.078125 144.015625 201.203125 L 144.015625 199.835938 L 142.511719 199.835938 C 138.5 199.835938 138.375 199.277344 138.375 197.726562 Z M 138.375 174.332031 "/>
<path style="fill-rule:nonzero;fill:rgb(27.450982%,19.215687%,49.411765%);fill-opacity:0.301961;stroke-width:0.19925;stroke-linecap:butt;stroke-linejoin:miter;stroke:rgb(50.196081%,50.196081%,50.196081%);stroke-opacity:1;stroke-miterlimit:10;" d="M -9.110355 -1.550192 L -9.110355 3.878538 L 12.60409 -7.8338 L 12.60409 -13.26253 Z M -9.110355 -1.550192 " transform="matrix(5.349622,0,0,-5.295898,151.303357,115.524716)"/>
<path style="fill-rule:nonzero;fill:rgb(27.450982%,19.215687%,49.411765%);fill-opacity:0.301961;stroke-width:0.19925;stroke-linecap:butt;stroke-linejoin:miter;stroke:rgb(50.196081%,50.196081%,50.196081%);stroke-opacity:1;stroke-miterlimit:10;" d="M -9.110355 -1.550192 L -9.110355 3.878538 L -18.220958 -3.100626 L -18.220958 -8.529356 Z M -9.110355 -1.550192 " transform="matrix(5.349622,0,0,-5.295898,151.303357,115.524716)"/>
<path style="fill-rule:nonzero;fill:rgb(27.450982%,19.215687%,49.411765%);fill-opacity:0.301961;stroke-width:0.19925;stroke-linecap:butt;stroke-linejoin:miter;stroke:rgb(50.196081%,50.196081%,50.196081%);stroke-opacity:1;stroke-miterlimit:10;" d="M -9.110355 -1.550192 L 12.60409 -13.26253 L 3.493486 -20.241694 L -18.220958 -8.529356 Z M -9.110355 -1.550192 " transform="matrix(5.349622,0,0,-5.295898,151.303357,115.524716)"/>
<path style="fill-rule:nonzero;fill:rgb(27.450982%,19.215687%,49.411765%);fill-opacity:0.301961;stroke-width:0.19925;stroke-linecap:butt;stroke-linejoin:miter;stroke:rgb(50.196081%,50.196081%,50.196081%);stroke-opacity:1;stroke-miterlimit:10;" d="M -18.220958 -8.529356 L -18.220958 -3.100626 L 3.493486 -14.812964 L 3.493486 -20.241694 Z M -18.220958 -8.529356 " transform="matrix(5.349622,0,0,-5.295898,151.303357,115.524716)"/>
<path style="fill-rule:nonzero;fill:rgb(27.450982%,19.215687%,49.411765%);fill-opacity:0.301961;stroke-width:0.19925;stroke-linecap:butt;stroke-linejoin:miter;stroke:rgb(50.196081%,50.196081%,50.196081%);stroke-opacity:1;stroke-miterlimit:10;" d="M 12.60409 -13.26253 L 12.60409 -7.8338 L 3.493486 -14.812964 L 3.493486 -20.241694 Z M 12.60409 -13.26253 " transform="matrix(5.349622,0,0,-5.295898,151.303357,115.524716)"/>
<path style="fill-rule:nonzero;fill:rgb(27.450982%,19.215687%,49.411765%);fill-opacity:0.301961;stroke-width:0.19925;stroke-linecap:butt;stroke-linejoin:miter;stroke:rgb(50.196081%,50.196081%,50.196081%);stroke-opacity:1;stroke-miterlimit:10;" d="M -9.110355 3.878538 L 12.60409 -7.8338 L 3.493486 -14.812964 L -18.220958 -3.100626 Z M -9.110355 3.878538 " transform="matrix(5.349622,0,0,-5.295898,151.303357,115.524716)"/>
<path style=" stroke:none;fill-rule:nonzero;fill:rgb(0%,0%,0%);fill-opacity:1;" d="M 136.996094 163.828125 C 137.683594 163.207031 139.441406 161.839844 140.128906 161.21875 C 142.761719 158.800781 145.269531 156.503906 145.269531 152.65625 C 145.269531 147.628906 141.007812 144.402344 135.679688 144.402344 C 130.601562 144.402344 127.214844 148.25 127.214844 151.972656 C 127.214844 154.082031 128.90625 154.332031 129.472656 154.332031 C 130.351562 154.332031 131.667969 153.710938 131.667969 152.097656 C 131.667969 149.925781 129.535156 149.925781 129.035156 149.925781 C 130.289062 146.820312 133.171875 145.765625 135.238281 145.765625 C 139.1875 145.765625 141.257812 149.117188 141.257812 152.65625 C 141.257812 157.0625 138.125 160.226562 133.109375 165.378906 L 127.71875 170.839844 C 127.214844 171.335938 127.214844 171.398438 127.214844 172.453125 L 144.078125 172.453125 L 145.269531 164.882812 L 143.953125 164.882812 C 143.828125 165.75 143.515625 167.859375 143.011719 168.667969 C 142.761719 168.976562 139.503906 168.976562 138.8125 168.976562 L 131.226562 168.976562 Z M 136.996094 163.828125 "/>
<path style="fill-rule:nonzero;fill:rgb(24.705882%,27.843139%,53.333336%);fill-opacity:0.301961;stroke-width:0.19925;stroke-linecap:butt;stroke-linejoin:miter;stroke:rgb(50.196081%,50.196081%,50.196081%);stroke-opacity:1;stroke-miterlimit:10;" d="M 0.000248737 10.856964 L 0.000248737 21.714425 L 10.857471 15.858625 L 10.857471 5.001164 Z M 0.000248737 10.856964 " transform="matrix(5.349622,0,0,-5.295898,151.303357,115.524716)"/>
<path style="fill-rule:nonzero;fill:rgb(24.705882%,27.843139%,53.333336%);fill-opacity:0.301961;stroke-width:0.19925;stroke-linecap:butt;stroke-linejoin:miter;stroke:rgb(50.196081%,50.196081%,50.196081%);stroke-opacity:1;stroke-miterlimit:10;" d="M 0.000248737 10.856964 L 0.000248737 21.714425 L -4.555418 18.224843 L -4.555418 7.36812 Z M 0.000248737 10.856964 " transform="matrix(5.349622,0,0,-5.295898,151.303357,115.524716)"/>
<path style="fill-rule:nonzero;fill:rgb(24.705882%,27.843139%,53.333336%);fill-opacity:0.301961;stroke-width:0.19925;stroke-linecap:butt;stroke-linejoin:miter;stroke:rgb(50.196081%,50.196081%,50.196081%);stroke-opacity:1;stroke-miterlimit:10;" d="M 0.000248737 10.856964 L 10.857471 5.001164 L 6.301804 1.511582 L -4.555418 7.36812 Z M 0.000248737 10.856964 " transform="matrix(5.349622,0,0,-5.295898,151.303357,115.524716)"/>
<path style="fill-rule:nonzero;fill:rgb(24.705882%,27.843139%,53.333336%);fill-opacity:0.301961;stroke-width:0.19925;stroke-linecap:butt;stroke-linejoin:miter;stroke:rgb(50.196081%,50.196081%,50.196081%);stroke-opacity:1;stroke-miterlimit:10;" d="M -4.555418 7.36812 L -4.555418 18.224843 L 6.301804 12.369043 L 6.301804 1.511582 Z M -4.555418 7.36812 " transform="matrix(5.349622,0,0,-5.295898,151.303357,115.524716)"/>
<path style="fill-rule:nonzero;fill:rgb(24.705882%,27.843139%,53.333336%);fill-opacity:0.301961;stroke-width:0.19925;stroke-linecap:butt;stroke-linejoin:miter;stroke:rgb(50.196081%,50.196081%,50.196081%);stroke-opacity:1;stroke-miterlimit:10;" d="M 10.857471 5.001164 L 10.857471 15.858625 L 6.301804 12.369043 L 6.301804 1.511582 Z M 10.857471 5.001164 " transform="matrix(5.349622,0,0,-5.295898,151.303357,115.524716)"/>
<path style="fill-rule:nonzero;fill:rgb(24.705882%,27.843139%,53.333336%);fill-opacity:0.301961;stroke-width:0.19925;stroke-linecap:butt;stroke-linejoin:miter;stroke:rgb(50.196081%,50.196081%,50.196081%);stroke-opacity:1;stroke-miterlimit:10;" d="M 0.000248737 21.714425 L 10.857471 15.858625 L 6.301804 12.369043 L -4.555418 18.224843 Z M 0.000248737 21.714425 " transform="matrix(5.349622,0,0,-5.295898,151.303357,115.524716)"/>
<path style=" stroke:none;fill-rule:nonzero;fill:rgb(0%,0%,0%);fill-opacity:1;" d="M 167.621094 53.542969 C 171.003906 53.542969 173.136719 55.964844 173.136719 60.433594 C 173.136719 65.707031 170.066406 67.257812 167.808594 67.257812 C 165.488281 67.257812 162.292969 66.390625 160.785156 64.15625 C 162.355469 64.15625 163.417969 63.226562 163.417969 61.796875 C 163.417969 60.433594 162.417969 59.5 161.039062 59.5 C 159.910156 59.5 158.71875 60.183594 158.71875 61.921875 C 158.71875 65.894531 163.042969 68.5 167.933594 68.5 C 173.574219 68.5 177.523438 64.652344 177.523438 60.433594 C 177.523438 56.894531 174.765625 53.730469 170.378906 52.796875 C 173.761719 51.621094 176.269531 48.703125 176.269531 45.351562 C 176.269531 42 172.445312 39.578125 167.996094 39.578125 C 163.417969 39.578125 159.972656 42 159.972656 45.226562 C 159.972656 46.777344 161.039062 47.460938 162.164062 47.460938 C 163.480469 47.460938 164.359375 46.53125 164.359375 45.289062 C 164.359375 43.738281 162.980469 43.179688 162.039062 43.117188 C 163.859375 40.820312 167.117188 40.632812 167.871094 40.632812 C 169 40.632812 172.195312 41.007812 172.195312 45.351562 C 172.195312 48.332031 171.003906 50.066406 170.378906 50.75 C 169.125 52.054688 168.121094 52.117188 165.550781 52.300781 C 164.734375 52.363281 164.359375 52.425781 164.359375 52.921875 C 164.359375 53.542969 164.734375 53.542969 165.488281 53.542969 Z M 167.621094 53.542969 "/>
<path style="fill-rule:nonzero;fill:rgb(21.176471%,35.686275%,54.901963%);fill-opacity:0.301961;stroke-width:0.19925;stroke-linecap:butt;stroke-linejoin:miter;stroke:rgb(50.196081%,50.196081%,50.196081%);stroke-opacity:1;stroke-miterlimit:10;" d="M -4.555418 7.36812 L -4.555418 18.224843 L 6.301804 12.369043 L 6.301804 1.511582 Z M -4.555418 7.36812 " transform="matrix(5.349622,0,0,-5.295898,151.303357,115.524716)"/>
<path style="fill-rule:nonzero;fill:rgb(21.176471%,35.686275%,54.901963%);fill-opacity:0.301961;stroke-width:0.19925;stroke-linecap:butt;stroke-linejoin:miter;stroke:rgb(50.196081%,50.196081%,50.196081%);stroke-opacity:1;stroke-miterlimit:10;" d="M -4.555418 7.36812 L -4.555418 18.224843 L -9.110355 14.735999 L -9.110355 3.878538 Z M -4.555418 7.36812 " transform="matrix(5.349622,0,0,-5.295898,151.303357,115.524716)"/>
<path style="fill-rule:nonzero;fill:rgb(21.176471%,35.686275%,54.901963%);fill-opacity:0.301961;stroke-width:0.19925;stroke-linecap:butt;stroke-linejoin:miter;stroke:rgb(50.196081%,50.196081%,50.196081%);stroke-opacity:1;stroke-miterlimit:10;" d="M -4.555418 7.36812 L 6.301804 1.511582 L 1.746868 -1.978 L -9.110355 3.878538 Z M -4.555418 7.36812 " transform="matrix(5.349622,0,0,-5.295898,151.303357,115.524716)"/>
<path style="fill-rule:nonzero;fill:rgb(21.176471%,35.686275%,54.901963%);fill-opacity:0.301961;stroke-width:0.19925;stroke-linecap:butt;stroke-linejoin:miter;stroke:rgb(50.196081%,50.196081%,50.196081%);stroke-opacity:1;stroke-miterlimit:10;" d="M -9.110355 3.878538 L -9.110355 14.735999 L 1.746868 8.879461 L 1.746868 -1.978 Z M -9.110355 3.878538 " transform="matrix(5.349622,0,0,-5.295898,151.303357,115.524716)"/>
<path style="fill-rule:nonzero;fill:rgb(21.176471%,35.686275%,54.901963%);fill-opacity:0.301961;stroke-width:0.19925;stroke-linecap:butt;stroke-linejoin:miter;stroke:rgb(50.196081%,50.196081%,50.196081%);stroke-opacity:1;stroke-miterlimit:10;" d="M 6.301804 1.511582 L 6.301804 12.369043 L 1.746868 8.879461 L 1.746868 -1.978 Z M 6.301804 1.511582 " transform="matrix(5.349622,0,0,-5.295898,151.303357,115.524716)"/>
<path style="fill-rule:nonzero;fill:rgb(21.176471%,35.686275%,54.901963%);fill-opacity:0.301961;stroke-width:0.19925;stroke-linecap:butt;stroke-linejoin:miter;stroke:rgb(50.196081%,50.196081%,50.196081%);stroke-opacity:1;stroke-miterlimit:10;" d="M -4.555418 18.224843 L 6.301804 12.369043 L 1.746868 8.879461 L -9.110355 14.735999 Z M -4.555418 18.224843 " transform="matrix(5.349622,0,0,-5.295898,151.303357,115.524716)"/>
<path style=" stroke:none;fill-rule:nonzero;fill:rgb(0%,0%,0%);fill-opacity:1;" d="M 149.265625 58.804688 C 149.265625 57.933594 149.265625 57.625 148.390625 57.625 C 147.824219 57.625 147.761719 57.6875 147.324219 58.246094 L 133.71875 77.792969 L 133.71875 79.160156 L 145.757812 79.160156 L 145.757812 82.695312 C 145.757812 84.25 145.632812 84.746094 142.371094 84.746094 L 141.367188 84.746094 L 141.367188 86.109375 C 145.003906 85.984375 145.066406 85.984375 147.511719 85.984375 C 149.957031 85.984375 150.019531 85.984375 153.65625 86.109375 L 153.65625 84.746094 L 152.652344 84.746094 C 149.390625 84.746094 149.265625 84.25 149.265625 82.695312 L 149.265625 79.160156 L 153.78125 79.160156 L 153.78125 77.792969 L 149.265625 77.792969 Z M 146.070312 62.214844 L 146.070312 77.792969 L 135.222656 77.792969 Z M 146.070312 62.214844 "/>
<path style="fill-rule:nonzero;fill:rgb(18.039216%,42.745098%,55.686277%);fill-opacity:0.301961;stroke-width:0.19925;stroke-linecap:butt;stroke-linejoin:miter;stroke:rgb(50.196081%,50.196081%,50.196081%);stroke-opacity:1;stroke-miterlimit:10;" d="M 10.857471 5.001164 L 10.857471 15.858625 L 21.714693 10.002087 L 21.714693 -0.854636 Z M 10.857471 5.001164 " transform="matrix(5.349622,0,0,-5.295898,151.303357,115.524716)"/>
<path style="fill-rule:nonzero;fill:rgb(18.039216%,42.745098%,55.686277%);fill-opacity:0.301961;stroke-width:0.19925;stroke-linecap:butt;stroke-linejoin:miter;stroke:rgb(50.196081%,50.196081%,50.196081%);stroke-opacity:1;stroke-miterlimit:10;" d="M 10.857471 5.001164 L 10.857471 15.858625 L 1.746868 8.879461 L 1.746868 -1.978 Z M 10.857471 5.001164 " transform="matrix(5.349622,0,0,-5.295898,151.303357,115.524716)"/>
<path style="fill-rule:nonzero;fill:rgb(18.039216%,42.745098%,55.686277%);fill-opacity:0.301961;stroke-width:0.19925;stroke-linecap:butt;stroke-linejoin:miter;stroke:rgb(50.196081%,50.196081%,50.196081%);stroke-opacity:1;stroke-miterlimit:10;" d="M 10.857471 5.001164 L 21.714693 -0.854636 L 12.60409 -7.8338 L 1.746868 -1.978 Z M 10.857471 5.001164 " transform="matrix(5.349622,0,0,-5.295898,151.303357,115.524716)"/>
<path style="fill-rule:nonzero;fill:rgb(18.039216%,42.745098%,55.686277%);fill-opacity:0.301961;stroke-width:0.19925;stroke-linecap:butt;stroke-linejoin:miter;stroke:rgb(50.196081%,50.196081%,50.196081%);stroke-opacity:1;stroke-miterlimit:10;" d="M 1.746868 -1.978 L 1.746868 8.879461 L 12.60409 3.023661 L 12.60409 -7.8338 Z M 1.746868 -1.978 " transform="matrix(5.349622,0,0,-5.295898,151.303357,115.524716)"/>
<path style="fill-rule:nonzero;fill:rgb(18.039216%,42.745098%,55.686277%);fill-opacity:0.301961;stroke-width:0.19925;stroke-linecap:butt;stroke-linejoin:miter;stroke:rgb(50.196081%,50.196081%,50.196081%);stroke-opacity:1;stroke-miterlimit:10;" d="M 21.714693 -0.854636 L 21.714693 10.002087 L 12.60409 3.023661 L 12.60409 -7.8338 Z M 21.714693 -0.854636 " transform="matrix(5.349622,0,0,-5.295898,151.303357,115.524716)"/>
<path style="fill-rule:nonzero;fill:rgb(18.039216%,42.745098%,55.686277%);fill-opacity:0.301961;stroke-width:0.19925;stroke-linecap:butt;stroke-linejoin:miter;stroke:rgb(50.196081%,50.196081%,50.196081%);stroke-opacity:1;stroke-miterlimit:10;" d="M 10.857471 15.858625 L 21.714693 10.002087 L 12.60409 3.023661 L 1.746868 8.879461 Z M 10.857471 15.858625 " transform="matrix(5.349622,0,0,-5.295898,151.303357,115.524716)"/>
<path style=" stroke:none;fill-rule:nonzero;fill:rgb(0%,0%,0%);fill-opacity:1;" d="M 224.683594 100.664062 C 224.683594 94.394531 220.296875 89.121094 214.527344 89.121094 C 211.957031 89.121094 209.699219 89.988281 207.757812 91.789062 L 207.757812 81.546875 C 208.824219 81.859375 210.578125 82.230469 212.269531 82.230469 C 218.855469 82.230469 222.617188 77.390625 222.617188 76.707031 C 222.617188 76.398438 222.425781 76.148438 222.050781 76.148438 C 221.988281 76.148438 221.863281 76.148438 221.613281 76.273438 C 220.546875 76.769531 217.976562 77.824219 214.402344 77.824219 C 212.269531 77.824219 209.828125 77.453125 207.320312 76.335938 C 206.878906 76.210938 206.753906 76.210938 206.628906 76.210938 C 206.128906 76.210938 206.128906 76.644531 206.128906 77.453125 L 206.128906 93.09375 C 206.128906 94.023438 206.128906 94.457031 206.878906 94.457031 C 207.257812 94.457031 207.320312 94.269531 207.570312 93.960938 C 208.132812 93.152344 210.140625 90.300781 214.402344 90.300781 C 217.222656 90.300781 218.539062 92.71875 218.980469 93.652344 C 219.792969 95.636719 219.917969 97.683594 219.917969 100.292969 C 219.917969 102.152344 219.917969 105.316406 218.664062 107.550781 C 217.347656 109.601562 215.40625 110.964844 212.960938 110.964844 C 209.074219 110.964844 206.003906 108.171875 205.125 105.070312 C 205.25 105.132812 205.4375 105.132812 206.003906 105.132812 C 207.757812 105.132812 208.699219 103.828125 208.699219 102.585938 C 208.699219 101.285156 207.757812 99.980469 206.003906 99.980469 C 205.25 99.980469 203.433594 100.351562 203.433594 102.773438 C 203.433594 107.304688 207.066406 112.457031 213.023438 112.457031 C 219.230469 112.457031 224.683594 107.367188 224.683594 100.664062 Z M 224.683594 100.664062 "/>
<path style="fill-rule:nonzero;fill:rgb(15.294118%,49.411765%,55.686277%);fill-opacity:0.301961;stroke-width:0.19925;stroke-linecap:butt;stroke-linejoin:miter;stroke:rgb(50.196081%,50.196081%,50.196081%);stroke-opacity:1;stroke-miterlimit:10;" d="M -9.110355 3.878538 L -9.110355 9.307268 L 12.60409 -2.40507 L 12.60409 -7.8338 Z M -9.110355 3.878538 " transform="matrix(5.349622,0,0,-5.295898,151.303357,115.524716)"/>
<path style="fill-rule:nonzero;fill:rgb(15.294118%,49.411765%,55.686277%);fill-opacity:0.301961;stroke-width:0.19925;stroke-linecap:butt;stroke-linejoin:miter;stroke:rgb(50.196081%,50.196081%,50.196081%);stroke-opacity:1;stroke-miterlimit:10;" d="M -9.110355 3.878538 L -9.110355 9.307268 L -13.666022 5.817686 L -13.666022 0.388956 Z M -9.110355 3.878538 " transform="matrix(5.349622,0,0,-5.295898,151.303357,115.524716)"/>
<path style="fill-rule:nonzero;fill:rgb(15.294118%,49.411765%,55.686277%);fill-opacity:0.301961;stroke-width:0.19925;stroke-linecap:butt;stroke-linejoin:miter;stroke:rgb(50.196081%,50.196081%,50.196081%);stroke-opacity:1;stroke-miterlimit:10;" d="M -9.110355 3.878538 L 12.60409 -7.8338 L 8.049153 -11.323382 L -13.666022 0.388956 Z M -9.110355 3.878538 " transform="matrix(5.349622,0,0,-5.295898,151.303357,115.524716)"/>
<path style="fill-rule:nonzero;fill:rgb(15.294118%,49.411765%,55.686277%);fill-opacity:0.301961;stroke-width:0.19925;stroke-linecap:butt;stroke-linejoin:miter;stroke:rgb(50.196081%,50.196081%,50.196081%);stroke-opacity:1;stroke-miterlimit:10;" d="M -13.666022 0.388956 L -13.666022 5.817686 L 8.049153 -5.894652 L 8.049153 -11.323382 Z M -13.666022 0.388956 " transform="matrix(5.349622,0,0,-5.295898,151.303357,115.524716)"/>
<path style="fill-rule:nonzero;fill:rgb(15.294118%,49.411765%,55.686277%);fill-opacity:0.301961;stroke-width:0.19925;stroke-linecap:butt;stroke-linejoin:miter;stroke:rgb(50.196081%,50.196081%,50.196081%);stroke-opacity:1;stroke-miterlimit:10;" d="M 12.60409 -7.8338 L 12.60409 -2.40507 L 8.049153 -5.894652 L 8.049153 -11.323382 Z M 12.60409 -7.8338 " transform="matrix(5.349622,0,0,-5.295898,151.303357,115.524716)"/>
<path style="fill-rule:nonzero;fill:rgb(15.294118%,49.411765%,55.686277%);fill-opacity:0.301961;stroke-width:0.19925;stroke-linecap:butt;stroke-linejoin:miter;stroke:rgb(50.196081%,50.196081%,50.196081%);stroke-opacity:1;stroke-miterlimit:10;" d="M -9.110355 9.307268 L 12.60409 -2.40507 L 8.049153 -5.894652 L -13.666022 5.817686 Z M -9.110355 9.307268 " transform="matrix(5.349622,0,0,-5.295898,151.303357,115.524716)"/>
<path style=" stroke:none;fill-rule:nonzero;fill:rgb(0%,0%,0%);fill-opacity:1;" d="M 143.027344 120.507812 C 143.027344 116.96875 143.34375 113.929688 144.847656 111.324219 C 146.101562 109.210938 148.296875 107.476562 150.992188 107.476562 C 151.867188 107.476562 153.8125 107.660156 154.816406 109.089844 C 152.871094 109.210938 152.683594 110.640625 152.683594 111.074219 C 152.683594 112.378906 153.6875 113.058594 154.691406 113.058594 C 155.441406 113.058594 156.695312 112.625 156.695312 111.011719 C 156.695312 108.46875 154.816406 106.417969 150.929688 106.417969 C 145.035156 106.417969 139.015625 112.003906 139.015625 121.066406 C 139.015625 132.546875 144.410156 135.339844 148.546875 135.339844 C 150.550781 135.339844 152.808594 134.78125 154.691406 132.980469 C 156.382812 131.367188 157.824219 129.570312 157.824219 125.90625 C 157.824219 120.382812 153.625 116.472656 148.921875 116.472656 C 145.851562 116.472656 143.96875 118.460938 143.027344 120.507812 Z M 148.546875 134.097656 C 146.289062 134.097656 144.847656 132.546875 144.21875 131.367188 C 143.21875 129.445312 143.15625 126.589844 143.15625 124.976562 C 143.15625 120.816406 145.472656 117.652344 148.734375 117.652344 C 150.867188 117.652344 152.121094 118.769531 152.933594 120.257812 C 153.875 121.8125 153.875 123.734375 153.875 125.84375 C 153.875 128.015625 153.875 129.878906 152.996094 131.367188 C 151.867188 133.355469 150.363281 134.097656 148.546875 134.097656 Z M 148.546875 134.097656 "/>
<path style="fill-rule:nonzero;fill:rgb(12.54902%,56.470591%,54.901963%);fill-opacity:0.301961;stroke-width:0.19925;stroke-linecap:butt;stroke-linejoin:miter;stroke:rgb(50.196081%,50.196081%,50.196081%);stroke-opacity:1;stroke-miterlimit:10;" d="M -13.666022 0.388956 L -13.666022 5.817686 L 8.049153 -5.894652 L 8.049153 -11.323382 Z M -13.666022 0.388956 " transform="matrix(5.349622,0,0,-5.295898,151.303357,115.524716)"/>
<path style="fill-rule:nonzero;fill:rgb(12.54902%,56.470591%,54.901963%);fill-opacity:0.301961;stroke-width:0.19925;stroke-linecap:butt;stroke-linejoin:miter;stroke:rgb(50.196081%,50.196081%,50.196081%);stroke-opacity:1;stroke-miterlimit:10;" d="M -13.666022 0.388956 L -13.666022 5.817686 L -18.220958 2.328104 L -18.220958 -3.100626 Z M -13.666022 0.388956 " transform="matrix(5.349622,0,0,-5.295898,151.303357,115.524716)"/>
<path style="fill-rule:nonzero;fill:rgb(12.54902%,56.470591%,54.901963%);fill-opacity:0.301961;stroke-width:0.19925;stroke-linecap:butt;stroke-linejoin:miter;stroke:rgb(50.196081%,50.196081%,50.196081%);stroke-opacity:1;stroke-miterlimit:10;" d="M -13.666022 0.388956 L 8.049153 -11.323382 L 3.493486 -14.812964 L -18.220958 -3.100626 Z M -13.666022 0.388956 " transform="matrix(5.349622,0,0,-5.295898,151.303357,115.524716)"/>
<path style="fill-rule:nonzero;fill:rgb(12.54902%,56.470591%,54.901963%);fill-opacity:0.301961;stroke-width:0.19925;stroke-linecap:butt;stroke-linejoin:miter;stroke:rgb(50.196081%,50.196081%,50.196081%);stroke-opacity:1;stroke-miterlimit:10;" d="M -18.220958 -3.100626 L -18.220958 2.328104 L 3.493486 -9.384234 L 3.493486 -14.812964 Z M -18.220958 -3.100626 " transform="matrix(5.349622,0,0,-5.295898,151.303357,115.524716)"/>
<path style="fill-rule:nonzero;fill:rgb(12.54902%,56.470591%,54.901963%);fill-opacity:0.301961;stroke-width:0.19925;stroke-linecap:butt;stroke-linejoin:miter;stroke:rgb(50.196081%,50.196081%,50.196081%);stroke-opacity:1;stroke-miterlimit:10;" d="M 8.049153 -11.323382 L 8.049153 -5.894652 L 3.493486 -9.384234 L 3.493486 -14.812964 Z M 8.049153 -11.323382 " transform="matrix(5.349622,0,0,-5.295898,151.303357,115.524716)"/>
<path style="fill-rule:nonzero;fill:rgb(12.54902%,56.470591%,54.901963%);fill-opacity:0.301961;stroke-width:0.19925;stroke-linecap:butt;stroke-linejoin:miter;stroke:rgb(50.196081%,50.196081%,50.196081%);stroke-opacity:1;stroke-miterlimit:10;" d="M -13.666022 5.817686 L 8.049153 -5.894652 L 3.493486 -9.384234 L -18.220958 2.328104 Z M -13.666022 5.817686 " transform="matrix(5.349622,0,0,-5.295898,151.303357,115.524716)"/>
<path style=" stroke:none;fill-rule:nonzero;fill:rgb(0%,0%,0%);fill-opacity:1;" d="M 134.332031 127.257812 C 134.707031 126.761719 134.707031 126.699219 134.707031 125.765625 L 123.863281 125.765625 C 122.796875 125.765625 121.480469 125.707031 120.414062 125.644531 C 118.21875 125.457031 118.15625 125.085938 118.03125 124.402344 L 116.714844 124.402344 L 115.273438 133.339844 L 116.589844 133.339844 C 116.714844 132.71875 117.152344 129.800781 117.78125 129.429688 C 118.21875 129.242188 121.417969 129.242188 122.042969 129.242188 L 131.070312 129.242188 L 126.683594 135.078125 C 121.855469 141.46875 120.851562 148.109375 120.851562 151.460938 C 120.851562 151.894531 120.851562 153.820312 122.796875 153.820312 C 124.800781 153.820312 124.800781 151.957031 124.800781 151.460938 L 124.800781 149.414062 C 124.800781 143.332031 125.867188 138.367188 127.9375 135.636719 Z M 134.332031 127.257812 "/>
<path style="fill-rule:nonzero;fill:rgb(12.156863%,63.137257%,52.941179%);fill-opacity:0.301961;stroke-width:0.19925;stroke-linecap:butt;stroke-linejoin:miter;stroke:rgb(50.196081%,50.196081%,50.196081%);stroke-opacity:1;stroke-miterlimit:10;" d="M -9.110355 9.307268 L -9.110355 14.735999 L 1.746868 8.879461 L 1.746868 3.450731 Z M -9.110355 9.307268 " transform="matrix(5.349622,0,0,-5.295898,151.303357,115.524716)"/>
<path style="fill-rule:nonzero;fill:rgb(12.156863%,63.137257%,52.941179%);fill-opacity:0.301961;stroke-width:0.19925;stroke-linecap:butt;stroke-linejoin:miter;stroke:rgb(50.196081%,50.196081%,50.196081%);stroke-opacity:1;stroke-miterlimit:10;" d="M -9.110355 9.307268 L -9.110355 14.735999 L -13.666022 11.246417 L -13.666022 5.817686 Z M -9.110355 9.307268 " transform="matrix(5.349622,0,0,-5.295898,151.303357,115.524716)"/>
<path style="fill-rule:nonzero;fill:rgb(12.156863%,63.137257%,52.941179%);fill-opacity:0.301961;stroke-width:0.19925;stroke-linecap:butt;stroke-linejoin:miter;stroke:rgb(50.196081%,50.196081%,50.196081%);stroke-opacity:1;stroke-miterlimit:10;" d="M -9.110355 9.307268 L 1.746868 3.450731 L -2.808799 -0.0388514 L -13.666022 5.817686 Z M -9.110355 9.307268 " transform="matrix(5.349622,0,0,-5.295898,151.303357,115.524716)"/>
<path style="fill-rule:nonzero;fill:rgb(12.156863%,63.137257%,52.941179%);fill-opacity:0.301961;stroke-width:0.19925;stroke-linecap:butt;stroke-linejoin:miter;stroke:rgb(50.196081%,50.196081%,50.196081%);stroke-opacity:1;stroke-miterlimit:10;" d="M -13.666022 5.817686 L -13.666022 11.246417 L -2.808799 5.389879 L -2.808799 -0.0388514 Z M -13.666022 5.817686 " transform="matrix(5.349622,0,0,-5.295898,151.303357,115.524716)"/>
<path style="fill-rule:nonzero;fill:rgb(12.156863%,63.137257%,52.941179%);fill-opacity:0.301961;stroke-width:0.19925;stroke-linecap:butt;stroke-linejoin:miter;stroke:rgb(50.196081%,50.196081%,50.196081%);stroke-opacity:1;stroke-miterlimit:10;" d="M 1.746868 3.450731 L 1.746868 8.879461 L -2.808799 5.389879 L -2.808799 -0.0388514 Z M 1.746868 3.450731 " transform="matrix(5.349622,0,0,-5.295898,151.303357,115.524716)"/>
<path style="fill-rule:nonzero;fill:rgb(12.156863%,63.137257%,52.941179%);fill-opacity:0.301961;stroke-width:0.19925;stroke-linecap:butt;stroke-linejoin:miter;stroke:rgb(50.196081%,50.196081%,50.196081%);stroke-opacity:1;stroke-miterlimit:10;" d="M -9.110355 14.735999 L 1.746868 8.879461 L -2.808799 5.389879 L -13.666022 11.246417 Z M -9.110355 14.735999 " transform="matrix(5.349622,0,0,-5.295898,151.303357,115.524716)"/>
<path style=" stroke:none;fill-rule:nonzero;fill:rgb(0%,0%,0%);fill-opacity:1;" d="M 122.261719 75 C 124.644531 73.820312 127.527344 71.710938 127.527344 68.421875 C 127.527344 64.449219 123.390625 62.15625 119.441406 62.15625 C 114.929688 62.15625 111.230469 65.195312 111.230469 69.167969 C 111.230469 70.78125 111.792969 72.207031 112.859375 73.386719 C 113.613281 74.320312 113.738281 74.378906 116.433594 76.054688 C 111.105469 78.351562 109.976562 81.457031 109.976562 83.8125 C 109.976562 88.40625 114.675781 91.074219 119.378906 91.074219 C 124.582031 91.074219 128.78125 87.597656 128.78125 83.132812 C 128.78125 80.460938 127.339844 78.664062 126.652344 77.980469 C 125.960938 77.296875 125.898438 77.234375 122.261719 75 Z M 115.617188 71.027344 C 114.425781 70.285156 113.359375 69.042969 113.359375 67.617188 C 113.359375 64.945312 116.308594 63.210938 119.378906 63.210938 C 122.703125 63.210938 125.398438 65.503906 125.398438 68.421875 C 125.398438 70.90625 123.453125 72.953125 120.945312 74.195312 Z M 117.75 76.800781 C 117.875 76.863281 122.765625 79.84375 123.453125 80.277344 C 124.144531 80.648438 126.402344 82.015625 126.402344 84.558594 C 126.402344 87.785156 122.953125 89.832031 119.441406 89.832031 C 115.617188 89.832031 112.421875 87.226562 112.421875 83.8125 C 112.421875 80.648438 114.800781 78.167969 117.75 76.800781 Z M 117.75 76.800781 "/>
<path style="fill-rule:nonzero;fill:rgb(17.254902%,69.411767%,49.019608%);fill-opacity:0.301961;stroke-width:0.19925;stroke-linecap:butt;stroke-linejoin:miter;stroke:rgb(50.196081%,50.196081%,50.196081%);stroke-opacity:1;stroke-miterlimit:10;" d="M 1.746868 3.450731 L 1.746868 6.165096 L 12.60409 0.309295 L 12.60409 -2.40507 Z M 1.746868 3.450731 " transform="matrix(5.349622,0,0,-5.295898,151.303357,115.524716)"/>
<path style="fill-rule:nonzero;fill:rgb(17.254902%,69.411767%,49.019608%);fill-opacity:0.301961;stroke-width:0.19925;stroke-linecap:butt;stroke-linejoin:miter;stroke:rgb(50.196081%,50.196081%,50.196081%);stroke-opacity:1;stroke-miterlimit:10;" d="M 1.746868 3.450731 L 1.746868 6.165096 L -0.530601 4.420674 L -0.530601 1.706308 Z M 1.746868 3.450731 " transform="matrix(5.349622,0,0,-5.295898,151.303357,115.524716)"/>
<path style="fill-rule:nonzero;fill:rgb(17.254902%,69.411767%,49.019608%);fill-opacity:0.301961;stroke-width:0.19925;stroke-linecap:butt;stroke-linejoin:miter;stroke:rgb(50.196081%,50.196081%,50.196081%);stroke-opacity:1;stroke-miterlimit:10;" d="M 1.746868 3.450731 L 12.60409 -2.40507 L 10.326622 -4.15023 L -0.530601 1.706308 Z M 1.746868 3.450731 " transform="matrix(5.349622,0,0,-5.295898,151.303357,115.524716)"/>
<path style="fill-rule:nonzero;fill:rgb(17.254902%,69.411767%,49.019608%);fill-opacity:0.301961;stroke-width:0.19925;stroke-linecap:butt;stroke-linejoin:miter;stroke:rgb(50.196081%,50.196081%,50.196081%);stroke-opacity:1;stroke-miterlimit:10;" d="M -0.530601 1.706308 L -0.530601 4.420674 L 10.326622 -1.435864 L 10.326622 -4.15023 Z M -0.530601 1.706308 " transform="matrix(5.349622,0,0,-5.295898,151.303357,115.524716)"/>
<path style="fill-rule:nonzero;fill:rgb(17.254902%,69.411767%,49.019608%);fill-opacity:0.301961;stroke-width:0.19925;stroke-linecap:butt;stroke-linejoin:miter;stroke:rgb(50.196081%,50.196081%,50.196081%);stroke-opacity:1;stroke-miterlimit:10;" d="M 12.60409 -2.40507 L 12.60409 0.309295 L 10.326622 -1.435864 L 10.326622 -4.15023 Z M 12.60409 -2.40507 " transform="matrix(5.349622,0,0,-5.295898,151.303357,115.524716)"/>
<path style="fill-rule:nonzero;fill:rgb(17.254902%,69.411767%,49.019608%);fill-opacity:0.301961;stroke-width:0.19925;stroke-linecap:butt;stroke-linejoin:miter;stroke:rgb(50.196081%,50.196081%,50.196081%);stroke-opacity:1;stroke-miterlimit:10;" d="M 1.746868 6.165096 L 12.60409 0.309295 L 10.326622 -1.435864 L -0.530601 4.420674 Z M 1.746868 6.165096 " transform="matrix(5.349622,0,0,-5.295898,151.303357,115.524716)"/>
<path style=" stroke:none;fill-rule:nonzero;fill:rgb(0%,0%,0%);fill-opacity:1;" d="M 187.695312 110.3125 C 187.695312 111.988281 187.570312 113.976562 186.695312 115.527344 C 185.816406 117.078125 184.25 118.195312 182.054688 118.195312 C 181.804688 118.195312 180.171875 118.195312 179.234375 117.574219 C 179.921875 117.390625 180.300781 116.890625 180.300781 116.210938 C 180.300781 115.339844 179.671875 114.78125 178.917969 114.78125 C 178.417969 114.78125 177.476562 115.03125 177.476562 116.273438 C 177.476562 119.25 181.425781 119.25 182.117188 119.25 C 186.628906 119.25 190.519531 115.527344 190.519531 110.066406 C 190.519531 103.671875 187.382812 101.128906 183.683594 101.128906 C 181.050781 101.128906 179.734375 102.058594 178.667969 102.929688 C 177.039062 104.292969 176.664062 105.722656 176.664062 107.085938 C 176.664062 108.578125 177.101562 109.941406 178.542969 111.183594 C 179.796875 112.300781 181.050781 112.984375 183.308594 112.984375 C 184.375 112.984375 186.316406 112.609375 187.695312 110.3125 Z M 183.371094 112.050781 C 182.304688 112.050781 181.300781 111.867188 180.300781 110.6875 C 179.484375 109.691406 179.484375 108.636719 179.484375 107.085938 C 179.484375 105.164062 179.546875 104.417969 180.550781 103.363281 C 180.988281 102.867188 181.804688 102.121094 183.683594 102.121094 C 187.632812 102.121094 187.632812 106.464844 187.632812 107.582031 C 187.632812 109.816406 186.066406 112.050781 183.371094 112.050781 Z M 183.371094 112.050781 "/>
<path style="fill-rule:nonzero;fill:rgb(28.627452%,75.686276%,42.745098%);fill-opacity:0.301961;stroke-width:0.19925;stroke-linecap:butt;stroke-linejoin:miter;stroke:rgb(50.196081%,50.196081%,50.196081%);stroke-opacity:1;stroke-miterlimit:10;" d="M -0.530601 1.706308 L -0.530601 4.420674 L 10.326622 -1.435864 L 10.326622 -4.15023 Z M -0.530601 1.706308 " transform="matrix(5.349622,0,0,-5.295898,151.303357,115.524716)"/>
<path style="fill-rule:nonzero;fill:rgb(28.627452%,75.686276%,42.745098%);fill-opacity:0.301961;stroke-width:0.19925;stroke-linecap:butt;stroke-linejoin:miter;stroke:rgb(50.196081%,50.196081%,50.196081%);stroke-opacity:1;stroke-miterlimit:10;" d="M -0.530601 1.706308 L -0.530601 4.420674 L -2.808799 2.675514 L -2.808799 -0.0388514 Z M -0.530601 1.706308 " transform="matrix(5.349622,0,0,-5.295898,151.303357,115.524716)"/>
<path style="fill-rule:nonzero;fill:rgb(28.627452%,75.686276%,42.745098%);fill-opacity:0.301961;stroke-width:0.19925;stroke-linecap:butt;stroke-linejoin:miter;stroke:rgb(50.196081%,50.196081%,50.196081%);stroke-opacity:1;stroke-miterlimit:10;" d="M -0.530601 1.706308 L 10.326622 -4.15023 L 8.049153 -5.894652 L -2.808799 -0.0388514 Z M -0.530601 1.706308 " transform="matrix(5.349622,0,0,-5.295898,151.303357,115.524716)"/>
<path style="fill-rule:nonzero;fill:rgb(28.627452%,75.686276%,42.745098%);fill-opacity:0.301961;stroke-width:0.19925;stroke-linecap:butt;stroke-linejoin:miter;stroke:rgb(50.196081%,50.196081%,50.196081%);stroke-opacity:1;stroke-miterlimit:10;" d="M -2.808799 -0.0388514 L -2.808799 2.675514 L 8.049153 -3.180287 L 8.049153 -5.894652 Z M -2.808799 -0.0388514 " transform="matrix(5.349622,0,0,-5.295898,151.303357,115.524716)"/>
<path style="fill-rule:nonzero;fill:rgb(28.627452%,75.686276%,42.745098%);fill-opacity:0.301961;stroke-width:0.19925;stroke-linecap:butt;stroke-linejoin:miter;stroke:rgb(50.196081%,50.196081%,50.196081%);stroke-opacity:1;stroke-miterlimit:10;" d="M 10.326622 -4.15023 L 10.326622 -1.435864 L 8.049153 -3.180287 L 8.049153 -5.894652 Z M 10.326622 -4.15023 " transform="matrix(5.349622,0,0,-5.295898,151.303357,115.524716)"/>
<path style="fill-rule:nonzero;fill:rgb(28.627452%,75.686276%,42.745098%);fill-opacity:0.301961;stroke-width:0.19925;stroke-linecap:butt;stroke-linejoin:miter;stroke:rgb(50.196081%,50.196081%,50.196081%);stroke-opacity:1;stroke-miterlimit:10;" d="M -0.530601 4.420674 L 10.326622 -1.435864 L 8.049153 -3.180287 L -2.808799 2.675514 Z M -0.530601 4.420674 " transform="matrix(5.349622,0,0,-5.295898,151.303357,115.524716)"/>
<path style=" stroke:none;fill-rule:nonzero;fill:rgb(0%,0%,0%);fill-opacity:1;" d="M 163.875 111.183594 C 163.875 110.375 163.8125 110.375 162.933594 110.375 C 161.054688 112.050781 158.105469 112.050781 157.542969 112.050781 L 157.101562 112.050781 L 157.101562 113.230469 L 157.542969 113.230469 C 158.167969 113.230469 159.863281 113.167969 161.429688 112.484375 L 161.429688 125.644531 C 161.429688 126.511719 161.429688 126.761719 158.609375 126.761719 L 157.292969 126.761719 L 157.292969 127.9375 C 158.734375 127.816406 161.117188 127.816406 162.683594 127.816406 C 164.1875 127.816406 166.570312 127.816406 168.011719 127.9375 L 168.011719 126.761719 L 166.695312 126.761719 C 163.875 126.761719 163.875 126.511719 163.875 125.644531 Z M 187.398438 119.5 C 187.398438 117.574219 187.398438 110.375 180.503906 110.375 C 173.542969 110.375 173.542969 117.574219 173.542969 119.5 C 173.542969 121.421875 173.542969 128.496094 180.503906 128.496094 C 187.398438 128.496094 187.398438 121.421875 187.398438 119.5 Z M 180.503906 127.628906 C 179.5 127.628906 177.242188 127.320312 176.554688 124.648438 C 176.238281 123.222656 176.175781 121.359375 176.175781 119.1875 C 176.175781 117.203125 176.175781 115.402344 176.617188 113.914062 C 177.304688 111.679688 179.3125 111.246094 180.503906 111.246094 C 182.445312 111.246094 183.824219 112.238281 184.390625 114.101562 C 184.765625 115.464844 184.765625 117.636719 184.765625 119.1875 C 184.765625 120.988281 184.765625 123.097656 184.390625 124.710938 C 183.699219 127.257812 181.570312 127.628906 180.503906 127.628906 Z M 180.503906 127.628906 "/>
<path style="fill-rule:nonzero;fill:rgb(44.705883%,81.176472%,33.333334%);fill-opacity:0.301961;stroke-width:0.19925;stroke-linecap:butt;stroke-linejoin:miter;stroke:rgb(50.196081%,50.196081%,50.196081%);stroke-opacity:1;stroke-miterlimit:10;" d="M 1.746868 6.165096 L 1.746868 8.879461 L 12.60409 3.023661 L 12.60409 0.309295 Z M 1.746868 6.165096 " transform="matrix(5.349622,0,0,-5.295898,151.303357,115.524716)"/>
<path style="fill-rule:nonzero;fill:rgb(44.705883%,81.176472%,33.333334%);fill-opacity:0.301961;stroke-width:0.19925;stroke-linecap:butt;stroke-linejoin:miter;stroke:rgb(50.196081%,50.196081%,50.196081%);stroke-opacity:1;stroke-miterlimit:10;" d="M 1.746868 6.165096 L 1.746868 8.879461 L -0.530601 7.135039 L -0.530601 4.420674 Z M 1.746868 6.165096 " transform="matrix(5.349622,0,0,-5.295898,151.303357,115.524716)"/>
<path style="fill-rule:nonzero;fill:rgb(44.705883%,81.176472%,33.333334%);fill-opacity:0.301961;stroke-width:0.19925;stroke-linecap:butt;stroke-linejoin:miter;stroke:rgb(50.196081%,50.196081%,50.196081%);stroke-opacity:1;stroke-miterlimit:10;" d="M 1.746868 6.165096 L 12.60409 0.309295 L 10.326622 -1.435864 L -0.530601 4.420674 Z M 1.746868 6.165096 " transform="matrix(5.349622,0,0,-5.295898,151.303357,115.524716)"/>
<path style="fill-rule:nonzero;fill:rgb(44.705883%,81.176472%,33.333334%);fill-opacity:0.301961;stroke-width:0.19925;stroke-linecap:butt;stroke-linejoin:miter;stroke:rgb(50.196081%,50.196081%,50.196081%);stroke-opacity:1;stroke-miterlimit:10;" d="M -0.530601 4.420674 L -0.530601 7.135039 L 10.326622 1.278501 L 10.326622 -1.435864 Z M -0.530601 4.420674 " transform="matrix(5.349622,0,0,-5.295898,151.303357,115.524716)"/>
<path style="fill-rule:nonzero;fill:rgb(44.705883%,81.176472%,33.333334%);fill-opacity:0.301961;stroke-width:0.19925;stroke-linecap:butt;stroke-linejoin:miter;stroke:rgb(50.196081%,50.196081%,50.196081%);stroke-opacity:1;stroke-miterlimit:10;" d="M 12.60409 0.309295 L 12.60409 3.023661 L 10.326622 1.278501 L 10.326622 -1.435864 Z M 12.60409 0.309295 " transform="matrix(5.349622,0,0,-5.295898,151.303357,115.524716)"/>
<path style="fill-rule:nonzero;fill:rgb(44.705883%,81.176472%,33.333334%);fill-opacity:0.301961;stroke-width:0.19925;stroke-linecap:butt;stroke-linejoin:miter;stroke:rgb(50.196081%,50.196081%,50.196081%);stroke-opacity:1;stroke-miterlimit:10;" d="M 1.746868 8.879461 L 12.60409 3.023661 L 10.326622 1.278501 L -0.530601 7.135039 Z M 1.746868 8.879461 " transform="matrix(5.349622,0,0,-5.295898,151.303357,115.524716)"/>
<path style=" stroke:none;fill-rule:nonzero;fill:rgb(0%,0%,0%);fill-opacity:1;" d="M 176.050781 87.570312 C 176.050781 86.761719 175.988281 86.761719 175.109375 86.761719 C 173.230469 88.4375 170.285156 88.4375 169.71875 88.4375 L 169.28125 88.4375 L 169.28125 89.617188 L 169.71875 89.617188 C 170.347656 89.617188 172.039062 89.554688 173.605469 88.871094 L 173.605469 102.027344 C 173.605469 102.898438 173.605469 103.144531 170.785156 103.144531 L 169.46875 103.144531 L 169.46875 104.324219 C 170.910156 104.199219 173.292969 104.199219 174.859375 104.199219 C 176.363281 104.199219 178.746094 104.199219 180.1875 104.324219 L 180.1875 103.144531 L 178.871094 103.144531 C 176.050781 103.144531 176.050781 102.898438 176.050781 102.027344 Z M 194.199219 87.570312 C 194.199219 86.761719 194.136719 86.761719 193.261719 86.761719 C 191.378906 88.4375 188.433594 88.4375 187.867188 88.4375 L 187.429688 88.4375 L 187.429688 89.617188 L 187.867188 89.617188 C 188.496094 89.617188 190.1875 89.554688 191.753906 88.871094 L 191.753906 102.027344 C 191.753906 102.898438 191.753906 103.144531 188.933594 103.144531 L 187.617188 103.144531 L 187.617188 104.324219 C 189.058594 104.199219 191.441406 104.199219 193.007812 104.199219 C 194.515625 104.199219 196.894531 104.199219 198.339844 104.324219 L 198.339844 103.144531 L 197.023438 103.144531 C 194.199219 103.144531 194.199219 102.898438 194.199219 102.027344 Z M 194.199219 87.570312 "/>
<path style="fill-rule:nonzero;fill:rgb(62.352943%,85.09804%,21.960784%);fill-opacity:0.301961;stroke-width:0.19925;stroke-linecap:butt;stroke-linejoin:miter;stroke:rgb(50.196081%,50.196081%,50.196081%);stroke-opacity:1;stroke-miterlimit:10;" d="M -0.530601 4.420674 L -0.530601 7.135039 L 10.326622 1.278501 L 10.326622 -1.435864 Z M -0.530601 4.420674 " transform="matrix(5.349622,0,0,-5.295898,151.303357,115.524716)"/>
<path style="fill-rule:nonzero;fill:rgb(62.352943%,85.09804%,21.960784%);fill-opacity:0.301961;stroke-width:0.19925;stroke-linecap:butt;stroke-linejoin:miter;stroke:rgb(50.196081%,50.196081%,50.196081%);stroke-opacity:1;stroke-miterlimit:10;" d="M -0.530601 4.420674 L -0.530601 7.135039 L -2.808799 5.389879 L -2.808799 2.675514 Z M -0.530601 4.420674 " transform="matrix(5.349622,0,0,-5.295898,151.303357,115.524716)"/>
<path style="fill-rule:nonzero;fill:rgb(62.352943%,85.09804%,21.960784%);fill-opacity:0.301961;stroke-width:0.19925;stroke-linecap:butt;stroke-linejoin:miter;stroke:rgb(50.196081%,50.196081%,50.196081%);stroke-opacity:1;stroke-miterlimit:10;" d="M -0.530601 4.420674 L 10.326622 -1.435864 L 8.049153 -3.180287 L -2.808799 2.675514 Z M -0.530601 4.420674 " transform="matrix(5.349622,0,0,-5.295898,151.303357,115.524716)"/>
<path style="fill-rule:nonzero;fill:rgb(62.352943%,85.09804%,21.960784%);fill-opacity:0.301961;stroke-width:0.19925;stroke-linecap:butt;stroke-linejoin:miter;stroke:rgb(50.196081%,50.196081%,50.196081%);stroke-opacity:1;stroke-miterlimit:10;" d="M -2.808799 2.675514 L -2.808799 5.389879 L 8.049153 -0.465921 L 8.049153 -3.180287 Z M -2.808799 2.675514 " transform="matrix(5.349622,0,0,-5.295898,151.303357,115.524716)"/>
<path style="fill-rule:nonzero;fill:rgb(62.352943%,85.09804%,21.960784%);fill-opacity:0.301961;stroke-width:0.19925;stroke-linecap:butt;stroke-linejoin:miter;stroke:rgb(50.196081%,50.196081%,50.196081%);stroke-opacity:1;stroke-miterlimit:10;" d="M 10.326622 -1.435864 L 10.326622 1.278501 L 8.049153 -0.465921 L 8.049153 -3.180287 Z M 10.326622 -1.435864 " transform="matrix(5.349622,0,0,-5.295898,151.303357,115.524716)"/>
<path style="fill-rule:nonzero;fill:rgb(62.352943%,85.09804%,21.960784%);fill-opacity:0.301961;stroke-width:0.19925;stroke-linecap:butt;stroke-linejoin:miter;stroke:rgb(50.196081%,50.196081%,50.196081%);stroke-opacity:1;stroke-miterlimit:10;" d="M -0.530601 7.135039 L 10.326622 1.278501 L 8.049153 -0.465921 L -2.808799 5.389879 Z M -0.530601 7.135039 " transform="matrix(5.349622,0,0,-5.295898,151.303357,115.524716)"/>
<path style=" stroke:none;fill-rule:nonzero;fill:rgb(0%,0%,0%);fill-opacity:1;" d="M 163.875 96.800781 C 163.875 95.992188 163.8125 95.992188 162.933594 95.992188 C 161.054688 97.667969 158.105469 97.667969 157.542969 97.667969 L 157.101562 97.667969 L 157.101562 98.847656 L 157.542969 98.847656 C 158.167969 98.847656 159.863281 98.785156 161.429688 98.101562 L 161.429688 111.261719 C 161.429688 112.128906 161.429688 112.378906 158.609375 112.378906 L 157.292969 112.378906 L 157.292969 113.558594 C 158.734375 113.433594 161.117188 113.433594 162.683594 113.433594 C 164.1875 113.433594 166.570312 113.433594 168.011719 113.558594 L 168.011719 112.378906 L 166.695312 112.378906 C 163.875 112.378906 163.875 112.128906 163.875 111.261719 Z M 187.085938 108.46875 L 185.957031 108.46875 C 185.894531 108.964844 185.644531 110.578125 185.203125 110.886719 C 185.015625 111.011719 182.757812 111.011719 182.382812 111.011719 L 177.117188 111.011719 C 178.871094 109.707031 180.878906 108.28125 182.445312 107.226562 C 184.890625 105.550781 187.085938 104.0625 187.085938 101.269531 C 187.085938 97.855469 183.886719 95.992188 180.0625 95.992188 C 176.492188 95.992188 173.859375 98.042969 173.859375 100.648438 C 173.859375 102.011719 174.984375 102.261719 175.363281 102.261719 C 176.113281 102.261719 176.929688 101.765625 176.929688 100.710938 C 176.929688 99.71875 176.238281 99.21875 175.425781 99.160156 C 176.175781 97.917969 177.746094 97.171875 179.5 97.171875 C 182.070312 97.171875 184.265625 98.660156 184.265625 101.269531 C 184.265625 103.503906 182.695312 105.179688 180.628906 106.855469 L 174.171875 112.316406 C 173.921875 112.5625 173.859375 112.5625 173.859375 112.75 L 173.859375 113.558594 L 186.207031 113.558594 Z M 187.085938 108.46875 "/>
<path style="fill-rule:nonzero;fill:rgb(81.176472%,88.235295%,10.980392%);fill-opacity:0.301961;stroke-width:0.19925;stroke-linecap:butt;stroke-linejoin:miter;stroke:rgb(50.196081%,50.196081%,50.196081%);stroke-opacity:1;stroke-miterlimit:10;" d="M -13.666022 5.817686 L -13.666022 11.246417 L 8.049153 -0.465921 L 8.049153 -5.894652 Z M -13.666022 5.817686 " transform="matrix(5.349622,0,0,-5.295898,151.303357,115.524716)"/>
<path style="fill-rule:nonzero;fill:rgb(81.176472%,88.235295%,10.980392%);fill-opacity:0.301961;stroke-width:0.19925;stroke-linecap:butt;stroke-linejoin:miter;stroke:rgb(50.196081%,50.196081%,50.196081%);stroke-opacity:1;stroke-miterlimit:10;" d="M -13.666022 5.817686 L -13.666022 11.246417 L -18.220958 7.756835 L -18.220958 2.328104 Z M -13.666022 5.817686 " transform="matrix(5.349622,0,0,-5.295898,151.303357,115.524716)"/>
<path style="fill-rule:nonzero;fill:rgb(81.176472%,88.235295%,10.980392%);fill-opacity:0.301961;stroke-width:0.19925;stroke-linecap:butt;stroke-linejoin:miter;stroke:rgb(50.196081%,50.196081%,50.196081%);stroke-opacity:1;stroke-miterlimit:10;" d="M -13.666022 5.817686 L 8.049153 -5.894652 L 3.493486 -9.384234 L -18.220958 2.328104 Z M -13.666022 5.817686 " transform="matrix(5.349622,0,0,-5.295898,151.303357,115.524716)"/>
<path style="fill-rule:nonzero;fill:rgb(81.176472%,88.235295%,10.980392%);fill-opacity:0.301961;stroke-width:0.19925;stroke-linecap:butt;stroke-linejoin:miter;stroke:rgb(50.196081%,50.196081%,50.196081%);stroke-opacity:1;stroke-miterlimit:10;" d="M -18.220958 2.328104 L -18.220958 7.756835 L 3.493486 -3.955503 L 3.493486 -9.384234 Z M -18.220958 2.328104 " transform="matrix(5.349622,0,0,-5.295898,151.303357,115.524716)"/>
<path style="fill-rule:nonzero;fill:rgb(81.176472%,88.235295%,10.980392%);fill-opacity:0.301961;stroke-width:0.19925;stroke-linecap:butt;stroke-linejoin:miter;stroke:rgb(50.196081%,50.196081%,50.196081%);stroke-opacity:1;stroke-miterlimit:10;" d="M 8.049153 -5.894652 L 8.049153 -0.465921 L 3.493486 -3.955503 L 3.493486 -9.384234 Z M 8.049153 -5.894652 " transform="matrix(5.349622,0,0,-5.295898,151.303357,115.524716)"/>
<path style="fill-rule:nonzero;fill:rgb(81.176472%,88.235295%,10.980392%);fill-opacity:0.301961;stroke-width:0.19925;stroke-linecap:butt;stroke-linejoin:miter;stroke:rgb(50.196081%,50.196081%,50.196081%);stroke-opacity:1;stroke-miterlimit:10;" d="M -13.666022 11.246417 L 8.049153 -0.465921 L 3.493486 -3.955503 L -18.220958 7.756835 Z M -13.666022 11.246417 " transform="matrix(5.349622,0,0,-5.295898,151.303357,115.524716)"/>
<path style=" stroke:none;fill-rule:nonzero;fill:rgb(0%,0%,0%);fill-opacity:1;" d="M 114.867188 97.328125 C 114.867188 96.148438 114.738281 96.148438 113.613281 96.148438 C 111.855469 97.824219 109.597656 98.816406 105.523438 98.816406 L 105.523438 100.246094 C 106.714844 100.246094 108.972656 100.246094 111.480469 99.066406 L 111.480469 120.726562 C 111.480469 122.277344 111.355469 122.835938 107.28125 122.835938 L 105.773438 122.835938 L 105.773438 124.199219 C 107.53125 124.074219 111.230469 124.074219 113.109375 124.074219 C 115.054688 124.074219 118.753906 124.074219 120.507812 124.199219 L 120.507812 122.835938 L 119.003906 122.835938 C 114.992188 122.835938 114.867188 122.277344 114.867188 120.726562 Z M 134.878906 110.113281 C 138.265625 110.113281 140.394531 112.53125 140.394531 117 C 140.394531 122.277344 137.324219 123.828125 135.066406 123.828125 C 132.746094 123.828125 129.550781 122.957031 128.046875 120.726562 C 129.613281 120.726562 130.679688 119.792969 130.679688 118.367188 C 130.679688 117 129.675781 116.070312 128.296875 116.070312 C 127.167969 116.070312 125.976562 116.753906 125.976562 118.492188 C 125.976562 122.460938 130.304688 125.070312 135.191406 125.070312 C 140.835938 125.070312 144.785156 121.222656 144.785156 117 C 144.785156 113.464844 142.027344 110.296875 137.636719 109.367188 C 141.023438 108.1875 143.53125 105.273438 143.53125 101.921875 C 143.53125 98.570312 139.707031 96.148438 135.253906 96.148438 C 130.679688 96.148438 127.230469 98.570312 127.230469 101.796875 C 127.230469 103.347656 128.296875 104.03125 129.425781 104.03125 C 130.742188 104.03125 131.621094 103.097656 131.621094 101.859375 C 131.621094 100.304688 130.242188 99.746094 129.300781 99.6875 C 131.117188 97.390625 134.378906 97.203125 135.128906 97.203125 C 136.257812 97.203125 139.457031 97.574219 139.457031 101.921875 C 139.457031 104.898438 138.265625 106.636719 137.636719 107.320312 C 136.382812 108.621094 135.382812 108.683594 132.8125 108.871094 C 131.996094 108.933594 131.621094 108.996094 131.621094 109.492188 C 131.621094 110.113281 131.996094 110.113281 132.746094 110.113281 Z M 134.878906 110.113281 "/>
</g>
</svg>
